<?xml version="1.0" encoding="utf-8"?>
<!DOCTYPE svg PUBLIC "-//W3C//DTD SVG 1.1//EN" "http://www.w3.org/Graphics/SVG/1.1/DTD/svg11.dtd">
<svg version="1.1" id="Roentgenroehre" xmlns="http://www.w3.org/2000/svg" xmlns:xlink="http://www.w3.org/1999/xlink" x="0px"
	 y="0px" width="400px" height="240px" viewBox="0 0 400 240" enable-background="new 0 0 400 240" xml:space="preserve">
<rect id="Hintergrund" fill="#FFFFFF" width="400" height="240"/>
<g id="Roehre_1_">
	
		<radialGradient id="Roehre_3_" cx="188.9727" cy="231.4121" r="74.8726" gradientTransform="matrix(-4.371139e-008 -0.875 3 -1.147424e-007 -461.5449 274.498)" gradientUnits="userSpaceOnUse">
		<stop  offset="0" style="stop-color:#F1F1F2"/>
		<stop  offset="1" style="stop-color:#BBBDBF"/>
	</radialGradient>
	<path id="Roehre_2_" fill="url(#Roehre_3_)" stroke="#1A171B" stroke-width="0.5" d="M304.602,168.366c-50.76,0-143.82,0-143.82,0
		c-67.68,0-67.68-118.439,0-118.439c50.761,0,93.061,0,143.82,0C372.281,49.927,372.281,168.366,304.602,168.366z"/>
	<g id="Gluehdraht_1_">
		<ellipse fill="none" stroke="#000000" cx="147.396" cy="89.646" rx="8.102" ry="3.241"/>
		<ellipse fill="none" stroke="#000000" cx="147.396" cy="85.646" rx="8.102" ry="3.241"/>
		<ellipse fill="none" stroke="#000000" cx="147.396" cy="92.646" rx="8.102" ry="3.241"/>
		<ellipse fill="none" stroke="#000000" cx="147.396" cy="96.646" rx="8.102" ry="3.241"/>
		<ellipse fill="none" stroke="#000000" cx="147.396" cy="100.646" rx="8.102" ry="3.241"/>
		<ellipse fill="none" stroke="#000000" cx="147.396" cy="104.646" rx="8.102" ry="3.241"/>
		<ellipse fill="none" stroke="#000000" cx="147.396" cy="108.646" rx="8.102" ry="3.241"/>
		<ellipse fill="none" stroke="#000000" cx="147.396" cy="112.646" rx="8.102" ry="3.241"/>
		<ellipse fill="none" stroke="#000000" cx="147.396" cy="116.646" rx="8.102" ry="3.241"/>
		<ellipse fill="none" stroke="#000000" cx="147.396" cy="120.646" rx="8.102" ry="3.241"/>
		<ellipse fill="none" stroke="#000000" cx="147.396" cy="124.646" rx="8.102" ry="3.241"/>
		<ellipse fill="none" stroke="#000000" cx="147.396" cy="128.646" rx="8.102" ry="3.241"/>
		<ellipse fill="none" stroke="#000000" cx="147.396" cy="132.646" rx="8.102" ry="3.241"/>
		<line fill="none" stroke="#000000" x1="147.396" y1="82.405" x2="86.96" y2="82.405"/>
		<line fill="none" stroke="#000000" x1="147.396" y1="135.888" x2="86.96" y2="135.888"/>
	</g>
	<g id="Elektronen">
		<circle id="Elektron_3_" fill="#FFF100" stroke="#231F20" stroke-width="0.5" cx="160.413" cy="123.905" r="2.475"/>
		<g id="Pfeil_3_">
			<polygon id="PfeilGerade_3_" points="184.705,123.86 175.904,127.146 176.666,123.905 175.906,120.665 			"/>
			<line fill="none" stroke="#000000" x1="166.184" y1="123.905" x2="180.182" y2="123.905"/>
		</g>
		<circle id="Elektron_1_" fill="#FFF100" stroke="#231F20" stroke-width="0.5" cx="209.413" cy="102.905" r="2.475"/>
		<g id="Pfeil_1_">
			<polygon id="PfeilGerade_1_" points="233.705,102.86 224.904,106.146 225.666,102.905 224.906,99.665 			"/>
			<line fill="none" stroke="#000000" x1="215.184" y1="102.905" x2="229.182" y2="102.905"/>
		</g>
		<circle id="Elektron_4_" fill="#FFF100" stroke="#231F20" stroke-width="0.5" cx="246.413" cy="116.905" r="2.476"/>
		<g id="Pfeil_4_">
			<polygon id="PfeilGerade_4_" points="270.705,116.86 261.904,120.146 262.666,116.905 261.906,113.665 			"/>
			<line fill="none" stroke="#000000" x1="252.184" y1="116.905" x2="266.182" y2="116.905"/>
		</g>
		<circle id="Elektron_2_" fill="#FFF100" stroke="#231F20" stroke-width="0.5" cx="170.413" cy="96.905" r="2.475"/>
		<g id="Pfeil_2_">
			<polygon id="PfeilGerade_2_" points="194.706,96.86 185.904,100.146 186.666,96.905 185.906,93.665 			"/>
			<line fill="none" stroke="#000000" x1="176.184" y1="96.905" x2="190.182" y2="96.905"/>
		</g>
	</g>
</g>
<g id="Schaltung">
	<g id="Gleichspannungsquelle_2_">
		<circle fill="none" stroke="#1A171B" cx="79.46" cy="122.646" r="4.5"/>
		<circle fill="#1A171B" stroke="#1A171B" cx="79.46" cy="95.646" r="4.5"/>
		<polyline fill="none" stroke="#1A171B" points="79.46,91.146 79.46,82.405 86.96,82.405 		"/>
		<polyline fill="none" stroke="#1A171B" points="79.46,127.146 79.46,135.888 86.96,135.888 		"/>
	</g>
	<g id="Gleichspannungsquelle_1_">
		<circle fill="none" stroke="#1A171B" cx="219.191" cy="192.513" r="4.5"/>
		<circle fill="#1A171B" stroke="#1A171B" cx="246.191" cy="192.513" r="4.5"/>
		<line fill="none" stroke="#1A171B" x1="250.691" y1="192.513" x2="259.433" y2="192.513"/>
		<line fill="none" stroke="#1A171B" x1="214.691" y1="192.513" x2="205.95" y2="192.513"/>
	</g>
	<polyline fill="none" stroke="#231F20" points="322.914,109.405 381.107,109.405 381.107,192.513 259.433,192.513 	"/>
	<polyline fill="none" stroke="#231F20" points="205.95,192.513 79.46,192.513 79.46,135.888 	"/>
	<circle id="Weiche_2_" fill="#1A171B" stroke="#1A171B" cx="79.46" cy="135.888" r="2.101"/>
</g>
<g id="Strahlen">
	<g id="PfeilGerade_13_">
		<polygon id="PfeilGerade_16_" fill="#FAAF40" points="275.491,28.612 279.593,37.064 276.295,36.612 273.142,37.675 		"/>
		<line fill="none" stroke="#FAAF40" x1="284.077" y1="118.682" x2="275.951" y2="32.988"/>
	</g>
	<g id="PfeilGerade_12_">
		<polygon id="PfeilSpitze_1_" fill="#FAAF40" points="287.096,24.612 290.381,33.413 287.141,32.651 283.9,33.411 		"/>
		<line fill="none" stroke="#FAAF40" x1="287.141" y1="121.346" x2="287.141" y2="29.011"/>
	</g>
	<g id="PfeilGerade_10_">
		<polygon id="PfeilGerade_11_" fill="#FAAF40" points="298.79,29.312 294.688,37.763 297.986,37.31 301.14,38.374 		"/>
		<line fill="none" stroke="#FAAF40" x1="290.204" y1="119.38" x2="298.33" y2="33.687"/>
	</g>
	<polygon id="Anode_1_" fill="#F6921E" stroke="#231F20" stroke-width="0.5" points="250.914,145.146 322.914,145.146 
		322.914,73.146 	"/>
</g>
<g id="Beschriftung">
	<g id="eMinus">
		<g>
			<path d="M215.971,118.364c0,0.203-0.051,0.348-0.152,0.434c-0.104,0.086-0.219,0.129-0.35,0.129h-4.631
				c0,0.391,0.039,0.742,0.117,1.055c0.079,0.313,0.21,0.58,0.393,0.805c0.184,0.225,0.422,0.396,0.715,0.516s0.652,0.18,1.076,0.18
				c0.334,0,0.633-0.027,0.895-0.082s0.488-0.115,0.679-0.184s0.349-0.129,0.472-0.184s0.215-0.082,0.278-0.082
				c0.036,0,0.069,0.01,0.099,0.027c0.028,0.018,0.051,0.045,0.066,0.082s0.027,0.088,0.035,0.152s0.012,0.145,0.012,0.238
				c0,0.068-0.002,0.127-0.008,0.176s-0.012,0.094-0.02,0.133s-0.021,0.074-0.039,0.105s-0.041,0.061-0.07,0.09
				s-0.113,0.076-0.254,0.141s-0.322,0.129-0.547,0.191s-0.482,0.119-0.777,0.168s-0.607,0.074-0.941,0.074
				c-0.578,0-1.084-0.08-1.52-0.242s-0.801-0.4-1.098-0.719s-0.521-0.717-0.672-1.195s-0.227-1.037-0.227-1.672
				c0-0.604,0.078-1.146,0.234-1.629s0.381-0.891,0.676-1.227s0.65-0.594,1.066-0.773s0.883-0.27,1.398-0.27
				c0.553,0,1.021,0.088,1.41,0.266s0.707,0.416,0.957,0.715s0.434,0.65,0.551,1.055s0.176,0.834,0.176,1.293V118.364z
				 M214.674,117.981c0.016-0.678-0.135-1.209-0.452-1.594s-0.787-0.578-1.411-0.578c-0.319,0-0.6,0.061-0.841,0.18
				s-0.442,0.279-0.604,0.477c-0.163,0.197-0.289,0.428-0.378,0.691s-0.14,0.537-0.149,0.824H214.674z"/>
		</g>
		<g>
			<path d="M220.045,113.421c0,0.152-0.018,0.258-0.053,0.316s-0.086,0.088-0.152,0.088h-2.449c-0.07,0-0.123-0.03-0.158-0.091
				s-0.053-0.165-0.053-0.313s0.018-0.252,0.053-0.311s0.088-0.088,0.158-0.088h2.449c0.031,0,0.06,0.006,0.085,0.018
				s0.047,0.034,0.064,0.067s0.031,0.075,0.041,0.126S220.045,113.347,220.045,113.421z"/>
		</g>
	</g>
	<g>
		<path d="M90.964,204.224c0,0.067-0.027,0.141-0.082,0.219s-0.14,0.172-0.254,0.281l-4.195,4.094l2.648,4.711
			c0.047,0.088,0.08,0.16,0.098,0.215s0.027,0.103,0.027,0.145c0,0.047-0.01,0.088-0.031,0.125
			c-0.021,0.036-0.056,0.064-0.105,0.086c-0.049,0.021-0.12,0.037-0.211,0.051c-0.091,0.013-0.207,0.02-0.348,0.02
			c-0.146,0-0.264-0.006-0.355-0.016c-0.091-0.011-0.164-0.025-0.219-0.043c-0.055-0.019-0.096-0.045-0.125-0.078
			c-0.029-0.034-0.053-0.074-0.074-0.121l-2.766-5.047l-1,5.055c-0.005,0.041-0.022,0.078-0.051,0.109s-0.072,0.056-0.129,0.074
			c-0.057,0.018-0.13,0.033-0.219,0.047c-0.088,0.013-0.195,0.02-0.32,0.02c-0.13,0-0.238-0.007-0.324-0.02
			c-0.086-0.014-0.152-0.029-0.199-0.047c-0.047-0.019-0.078-0.043-0.094-0.074s-0.018-0.068-0.008-0.109l1.938-9.711
			c0.005-0.037,0.023-0.07,0.055-0.102s0.076-0.057,0.133-0.074c0.057-0.019,0.13-0.034,0.219-0.047
			c0.088-0.014,0.195-0.02,0.32-0.02s0.23,0.006,0.316,0.02c0.086,0.013,0.152,0.028,0.199,0.047
			c0.047,0.018,0.078,0.043,0.094,0.074s0.021,0.064,0.016,0.102l-0.898,4.5l4.422-4.484c0.042-0.047,0.087-0.088,0.137-0.121
			c0.049-0.034,0.107-0.061,0.172-0.078c0.065-0.019,0.145-0.033,0.238-0.043c0.094-0.011,0.203-0.016,0.328-0.016
			c0.135,0,0.245,0.006,0.329,0.02c0.083,0.013,0.148,0.029,0.195,0.051c0.047,0.021,0.079,0.047,0.098,0.078
			C90.954,204.146,90.964,204.182,90.964,204.224z"/>
		<path d="M96.276,213.927c-0.021,0.088-0.078,0.15-0.172,0.188c-0.094,0.036-0.25,0.055-0.469,0.055
			c-0.104,0-0.19-0.006-0.258-0.016c-0.068-0.011-0.123-0.025-0.164-0.043c-0.042-0.019-0.07-0.042-0.086-0.07
			c-0.016-0.029-0.016-0.066,0-0.113l0.258-1.328c-0.068,0.166-0.19,0.349-0.367,0.547c-0.178,0.197-0.387,0.38-0.629,0.547
			c-0.242,0.166-0.512,0.305-0.809,0.414s-0.6,0.164-0.906,0.164c-0.417,0-0.762-0.073-1.035-0.219
			c-0.273-0.146-0.491-0.339-0.652-0.578c-0.162-0.24-0.272-0.511-0.332-0.813c-0.061-0.303-0.09-0.612-0.09-0.93
			c0-0.292,0.027-0.623,0.083-0.992c0.055-0.37,0.143-0.748,0.266-1.133c0.122-0.386,0.281-0.761,0.477-1.125
			c0.195-0.365,0.431-0.691,0.707-0.98c0.275-0.289,0.596-0.521,0.961-0.695c0.364-0.175,0.778-0.262,1.242-0.262
			c0.463,0,0.86,0.094,1.191,0.281c0.33,0.188,0.626,0.445,0.887,0.773l0.148-0.711c0.021-0.084,0.08-0.144,0.18-0.18
			c0.099-0.037,0.252-0.055,0.461-0.055c0.104,0,0.191,0.004,0.262,0.012s0.126,0.021,0.168,0.043
			c0.041,0.021,0.067,0.047,0.078,0.078c0.01,0.031,0.013,0.064,0.008,0.102L96.276,213.927z M96.034,208.731
			c-0.245-0.359-0.51-0.629-0.793-0.809c-0.284-0.18-0.604-0.27-0.957-0.27c-0.281,0-0.535,0.066-0.762,0.199
			s-0.428,0.309-0.602,0.527c-0.175,0.219-0.326,0.467-0.453,0.746c-0.128,0.278-0.232,0.566-0.313,0.863
			c-0.081,0.297-0.141,0.588-0.18,0.875c-0.039,0.286-0.059,0.544-0.059,0.773c0,0.182,0.014,0.363,0.043,0.543
			c0.028,0.18,0.083,0.344,0.164,0.492c0.08,0.148,0.191,0.268,0.332,0.359c0.141,0.091,0.322,0.137,0.547,0.137
			c0.286,0,0.574-0.08,0.863-0.238c0.289-0.159,0.559-0.379,0.809-0.66s0.471-0.612,0.664-0.992c0.192-0.381,0.336-0.8,0.43-1.258
			L96.034,208.731z"/>
		<path d="M103.698,206.974c0,0.047-0.003,0.098-0.008,0.152s-0.016,0.11-0.031,0.168c-0.016,0.057-0.036,0.114-0.063,0.172
			c-0.026,0.057-0.054,0.107-0.082,0.152c-0.028,0.044-0.062,0.079-0.098,0.105c-0.036,0.025-0.078,0.039-0.125,0.039h-1.797
			l-0.789,3.922c-0.021,0.109-0.039,0.231-0.055,0.367c-0.016,0.135-0.023,0.247-0.023,0.336c0,0.266,0.056,0.459,0.168,0.582
			c0.112,0.122,0.293,0.184,0.543,0.184c0.141,0,0.263-0.012,0.367-0.035s0.194-0.049,0.27-0.074
			c0.075-0.026,0.142-0.051,0.199-0.074s0.106-0.035,0.148-0.035s0.074,0.014,0.098,0.043c0.023,0.028,0.035,0.082,0.035,0.16
			c0,0.067-0.007,0.142-0.02,0.223c-0.013,0.08-0.03,0.16-0.051,0.238s-0.047,0.148-0.078,0.211s-0.065,0.111-0.102,0.148
			c-0.042,0.036-0.104,0.072-0.188,0.109c-0.083,0.036-0.18,0.068-0.289,0.098c-0.109,0.028-0.226,0.051-0.348,0.066
			s-0.243,0.023-0.363,0.023c-0.292,0-0.544-0.031-0.758-0.094s-0.394-0.16-0.539-0.293s-0.254-0.3-0.324-0.5
			c-0.07-0.201-0.105-0.441-0.105-0.723c0-0.063,0.003-0.132,0.008-0.207c0.005-0.076,0.015-0.155,0.027-0.238
			c0.013-0.084,0.026-0.167,0.039-0.25c0.013-0.084,0.027-0.162,0.043-0.234l0.789-3.953h-0.977c-0.058,0-0.102-0.018-0.133-0.051
			c-0.031-0.034-0.047-0.101-0.047-0.199c0-0.073,0.008-0.158,0.023-0.254c0.016-0.097,0.039-0.187,0.07-0.27
			c0.031-0.084,0.071-0.154,0.121-0.211c0.05-0.058,0.108-0.086,0.176-0.086h0.984l0.336-1.672c0.005-0.037,0.022-0.07,0.051-0.102
			s0.069-0.059,0.121-0.082s0.121-0.041,0.207-0.051c0.086-0.011,0.191-0.016,0.316-0.016s0.228,0.005,0.309,0.016
			c0.081,0.01,0.144,0.027,0.188,0.051s0.073,0.051,0.086,0.082s0.017,0.064,0.012,0.102l-0.336,1.672h1.797
			c0.078,0,0.13,0.028,0.156,0.086C103.686,206.835,103.698,206.9,103.698,206.974z"/>
		<path d="M109.901,213.927c-0.011,0.041-0.028,0.076-0.055,0.105c-0.026,0.028-0.066,0.053-0.121,0.074
			c-0.055,0.021-0.124,0.036-0.207,0.047c-0.083,0.01-0.19,0.016-0.32,0.016c-0.125,0-0.228-0.006-0.309-0.016
			c-0.081-0.011-0.144-0.026-0.188-0.047c-0.044-0.021-0.073-0.046-0.086-0.074c-0.013-0.029-0.017-0.064-0.012-0.105l0.867-4.344
			c0.026-0.136,0.048-0.288,0.066-0.457c0.019-0.17,0.027-0.316,0.027-0.441c0-0.151-0.016-0.289-0.047-0.414
			s-0.082-0.233-0.152-0.324c-0.07-0.092-0.161-0.163-0.273-0.215c-0.112-0.053-0.249-0.078-0.41-0.078
			c-0.276,0-0.559,0.08-0.848,0.242c-0.289,0.161-0.558,0.384-0.805,0.668c-0.247,0.283-0.469,0.618-0.664,1.004
			c-0.195,0.385-0.337,0.799-0.426,1.242l-0.625,3.117c-0.011,0.041-0.028,0.076-0.055,0.105c-0.026,0.028-0.065,0.053-0.117,0.074
			c-0.052,0.021-0.121,0.036-0.207,0.047c-0.086,0.01-0.191,0.016-0.316,0.016c-0.13,0-0.235-0.006-0.316-0.016
			c-0.081-0.011-0.144-0.026-0.188-0.047c-0.044-0.021-0.073-0.046-0.086-0.074c-0.013-0.029-0.015-0.064-0.004-0.105l2.078-10.438
			c0.011-0.042,0.027-0.078,0.051-0.109s0.063-0.058,0.117-0.078c0.055-0.021,0.125-0.037,0.211-0.047
			c0.086-0.011,0.194-0.016,0.324-0.016c0.125,0,0.228,0.005,0.309,0.016c0.081,0.01,0.144,0.025,0.188,0.047
			c0.044,0.021,0.071,0.047,0.082,0.078s0.013,0.067,0.008,0.109l-0.625,3.18c-0.026,0.135-0.058,0.273-0.094,0.414
			s-0.074,0.279-0.113,0.418c-0.039,0.138-0.078,0.27-0.117,0.395s-0.074,0.234-0.105,0.328c0.083-0.183,0.214-0.371,0.391-0.566
			s0.386-0.375,0.625-0.539s0.504-0.301,0.793-0.41s0.587-0.164,0.895-0.164c0.333,0,0.617,0.048,0.852,0.145
			c0.234,0.096,0.426,0.229,0.574,0.398c0.148,0.169,0.257,0.371,0.324,0.605s0.102,0.486,0.102,0.758
			c0,0.188-0.011,0.369-0.031,0.547c-0.021,0.177-0.05,0.356-0.086,0.539L109.901,213.927z"/>
		<path d="M119.378,209.224c0,0.385-0.036,0.778-0.109,1.18c-0.073,0.4-0.184,0.787-0.332,1.16
			c-0.148,0.372-0.337,0.723-0.566,1.051s-0.499,0.614-0.809,0.859c-0.31,0.244-0.661,0.438-1.055,0.582
			c-0.394,0.143-0.832,0.215-1.316,0.215c-0.5,0-0.929-0.061-1.285-0.18c-0.356-0.12-0.649-0.295-0.879-0.523
			c-0.229-0.229-0.398-0.511-0.508-0.844c-0.109-0.334-0.164-0.711-0.164-1.133c0-0.386,0.035-0.779,0.105-1.18
			c0.07-0.401,0.181-0.787,0.332-1.156c0.151-0.37,0.34-0.721,0.566-1.051c0.227-0.331,0.495-0.619,0.805-0.863
			c0.31-0.245,0.661-0.439,1.055-0.582c0.394-0.144,0.832-0.215,1.316-0.215c0.5,0,0.929,0.061,1.285,0.184
			c0.356,0.122,0.651,0.298,0.883,0.527c0.231,0.229,0.402,0.51,0.512,0.844C119.323,208.432,119.378,208.807,119.378,209.224z
			 M118.019,209.302c0-0.261-0.027-0.495-0.082-0.703c-0.055-0.209-0.146-0.385-0.273-0.527c-0.128-0.144-0.294-0.254-0.5-0.332
			s-0.454-0.117-0.746-0.117c-0.313,0-0.597,0.056-0.852,0.168c-0.255,0.111-0.483,0.263-0.684,0.453
			c-0.2,0.189-0.375,0.412-0.523,0.668c-0.148,0.255-0.271,0.527-0.367,0.816s-0.168,0.586-0.215,0.891s-0.07,0.603-0.07,0.895
			c0,0.26,0.028,0.494,0.086,0.703c0.058,0.208,0.149,0.385,0.277,0.531c0.128,0.146,0.293,0.258,0.496,0.336
			s0.45,0.117,0.742,0.117c0.317,0,0.603-0.057,0.855-0.168c0.253-0.112,0.479-0.265,0.68-0.457c0.2-0.193,0.375-0.417,0.523-0.672
			c0.148-0.256,0.271-0.529,0.367-0.82c0.097-0.292,0.168-0.589,0.215-0.891C117.995,209.89,118.019,209.593,118.019,209.302z"/>
		<path d="M126.308,213.927c-0.016,0.088-0.07,0.15-0.164,0.188c-0.094,0.036-0.25,0.055-0.469,0.055
			c-0.109,0-0.198-0.006-0.266-0.016c-0.067-0.011-0.122-0.025-0.164-0.043c-0.042-0.019-0.069-0.042-0.082-0.07
			c-0.013-0.029-0.015-0.066-0.004-0.113l0.25-1.313c-0.067,0.172-0.19,0.355-0.367,0.551s-0.387,0.375-0.629,0.539
			s-0.512,0.299-0.809,0.406c-0.297,0.106-0.599,0.16-0.906,0.16s-0.574-0.041-0.801-0.121c-0.227-0.081-0.417-0.189-0.57-0.324
			c-0.153-0.136-0.278-0.293-0.375-0.473s-0.172-0.365-0.227-0.555c-0.055-0.19-0.091-0.382-0.109-0.574
			c-0.019-0.193-0.027-0.37-0.027-0.531c0-0.303,0.028-0.641,0.086-1.016s0.148-0.752,0.273-1.129
			c0.125-0.378,0.285-0.748,0.48-1.109c0.195-0.362,0.431-0.683,0.707-0.961c0.276-0.279,0.595-0.504,0.957-0.676
			s0.772-0.258,1.23-0.258c0.224,0,0.435,0.024,0.633,0.074c0.198,0.049,0.378,0.117,0.539,0.203s0.31,0.188,0.445,0.309
			c0.136,0.119,0.258,0.244,0.367,0.375l0.797-3.984c0.005-0.037,0.021-0.072,0.047-0.105c0.026-0.034,0.065-0.061,0.117-0.078
			c0.052-0.019,0.12-0.034,0.203-0.047c0.083-0.014,0.19-0.02,0.32-0.02c0.125,0,0.228,0.006,0.309,0.02
			c0.081,0.013,0.145,0.028,0.191,0.047c0.047,0.018,0.077,0.044,0.09,0.078c0.013,0.033,0.015,0.068,0.004,0.105L126.308,213.927z
			 M126.058,208.755c-0.245-0.359-0.509-0.633-0.793-0.82s-0.603-0.281-0.957-0.281c-0.276,0-0.524,0.063-0.746,0.191
			c-0.222,0.127-0.421,0.298-0.598,0.512c-0.177,0.213-0.329,0.458-0.457,0.734c-0.128,0.275-0.233,0.561-0.316,0.855
			c-0.083,0.294-0.146,0.584-0.188,0.871c-0.042,0.286-0.063,0.549-0.063,0.789c0,0.505,0.086,0.892,0.258,1.16
			c0.172,0.268,0.448,0.402,0.828,0.402c0.286,0,0.574-0.078,0.863-0.234s0.559-0.373,0.809-0.648
			c0.25-0.276,0.472-0.604,0.664-0.984c0.192-0.381,0.336-0.797,0.43-1.25L126.058,208.755z"/>
		<path d="M135.409,208.333c0,0.359-0.083,0.682-0.25,0.969c-0.167,0.286-0.427,0.531-0.781,0.734s-0.808,0.359-1.359,0.469
			s-1.214,0.164-1.984,0.164h-0.828c-0.036,0.172-0.062,0.338-0.074,0.5c-0.013,0.161-0.02,0.313-0.02,0.453
			c0,0.521,0.129,0.919,0.387,1.195c0.258,0.275,0.676,0.414,1.254,0.414c0.333,0,0.633-0.025,0.898-0.074
			c0.266-0.05,0.496-0.104,0.691-0.16c0.195-0.058,0.355-0.111,0.48-0.16c0.125-0.05,0.211-0.074,0.258-0.074
			s0.082,0.017,0.105,0.051c0.023,0.033,0.035,0.082,0.035,0.145c0,0.052-0.005,0.114-0.016,0.188
			c-0.011,0.072-0.026,0.146-0.047,0.223c-0.021,0.075-0.048,0.146-0.082,0.215c-0.034,0.067-0.071,0.125-0.113,0.172
			c-0.063,0.063-0.173,0.123-0.332,0.184c-0.159,0.06-0.348,0.114-0.566,0.164c-0.219,0.049-0.458,0.09-0.719,0.121
			s-0.521,0.047-0.781,0.047c-0.464,0-0.87-0.053-1.219-0.156c-0.349-0.104-0.64-0.265-0.871-0.48
			c-0.231-0.217-0.405-0.486-0.52-0.809c-0.114-0.323-0.172-0.703-0.172-1.141c0-0.339,0.032-0.702,0.098-1.09
			c0.065-0.389,0.168-0.772,0.309-1.152c0.141-0.381,0.323-0.745,0.547-1.094c0.224-0.35,0.491-0.656,0.801-0.922
			s0.668-0.479,1.074-0.641c0.406-0.162,0.864-0.242,1.375-0.242c0.438,0,0.809,0.055,1.113,0.164s0.555,0.25,0.75,0.422
			s0.337,0.363,0.426,0.574S135.409,208.124,135.409,208.333z M134.089,208.45c0-0.266-0.104-0.48-0.313-0.645
			s-0.505-0.246-0.891-0.246c-0.339,0-0.638,0.059-0.898,0.176s-0.491,0.274-0.691,0.473c-0.2,0.197-0.372,0.428-0.516,0.691
			c-0.144,0.263-0.259,0.54-0.348,0.832h0.797c0.547,0,1.004-0.034,1.371-0.102c0.367-0.068,0.661-0.16,0.883-0.277
			s0.378-0.254,0.469-0.41S134.089,208.622,134.089,208.45z"/>
	</g>
	<g id="Pfeil_5_">
		<polygon id="PfeilGerade_7_" fill="#1A171B" points="305.617,149.137 298.56,155.339 301.774,156.199 304.27,158.404 		"/>
		<path fill="none" stroke="#1A171B" d="M317.334,207.796c-19.42-13.021-22.73-42.032-13.838-54.803"/>
	</g>
	<g id="Pfeil_6_">
		<polygon id="PfeilGerade_5_" fill="#1A171B" points="154.277,139.137 161.335,145.339 158.12,146.199 155.625,148.404 		"/>
		<path fill="none" stroke="#1A171B" d="M140.667,207.796c25.517-19.783,24.624-52.032,15.731-64.803"/>
	</g>
	<g>
		<path d="M319.95,214.781l6.492-11.453h1.805l1.891,11.453h-1.484l-0.555-3.297h-4.633l-1.836,3.297H319.95z M324.122,210.305
			h3.789l-0.445-2.875c-0.172-1.141-0.278-2.091-0.32-2.852c-0.261,0.656-0.641,1.435-1.141,2.336L324.122,210.305z"/>
		<path d="M331.474,214.781l1.734-8.297h1.281l-0.305,1.445c0.558-0.567,1.078-0.981,1.563-1.242s0.979-0.391,1.484-0.391
			c0.672,0,1.199,0.183,1.582,0.547s0.574,0.852,0.574,1.461c0,0.308-0.067,0.792-0.203,1.453l-1.055,5.023h-1.414l1.102-5.258
			c0.109-0.511,0.164-0.888,0.164-1.133c0-0.276-0.095-0.5-0.285-0.672s-0.465-0.258-0.824-0.258c-0.724,0-1.368,0.261-1.934,0.781
			s-0.98,1.414-1.246,2.68l-0.805,3.859H331.474z"/>
		<path d="M340.622,211.633c0-1.62,0.477-2.961,1.43-4.023c0.786-0.875,1.817-1.313,3.094-1.313c1,0,1.806,0.313,2.418,0.938
			s0.918,1.469,0.918,2.531c0,0.953-0.192,1.84-0.578,2.66s-0.934,1.449-1.645,1.887s-1.46,0.656-2.246,0.656
			c-0.646,0-1.233-0.138-1.762-0.414s-0.933-0.667-1.211-1.172S340.622,212.294,340.622,211.633z M342.036,211.492
			c0,0.781,0.188,1.374,0.563,1.777s0.852,0.605,1.43,0.605c0.302,0,0.602-0.062,0.898-0.184s0.573-0.309,0.828-0.559
			s0.473-0.535,0.652-0.855s0.324-0.665,0.434-1.035c0.161-0.516,0.242-1.011,0.242-1.484c0-0.75-0.188-1.332-0.566-1.746
			s-0.853-0.621-1.426-0.621c-0.442,0-0.847,0.105-1.211,0.316s-0.694,0.52-0.988,0.926s-0.511,0.879-0.648,1.418
			S342.036,211.07,342.036,211.492z"/>
		<path d="M354.864,213.578c-0.808,0.927-1.651,1.391-2.531,1.391c-0.786,0-1.441-0.29-1.965-0.871s-0.785-1.423-0.785-2.527
			c0-1.011,0.207-1.934,0.621-2.77s0.933-1.462,1.555-1.879s1.246-0.625,1.871-0.625c1.031,0,1.81,0.497,2.336,1.492l0.938-4.461
			h1.406l-2.391,11.453h-1.305L354.864,213.578z M350.989,211.305c0,0.578,0.058,1.034,0.172,1.367s0.31,0.61,0.586,0.832
			s0.606,0.332,0.992,0.332c0.641,0,1.222-0.333,1.742-1c0.698-0.886,1.047-1.979,1.047-3.281c0-0.656-0.172-1.169-0.516-1.539
			s-0.776-0.555-1.297-0.555c-0.339,0-0.647,0.075-0.926,0.227s-0.555,0.407-0.828,0.77s-0.504,0.821-0.691,1.379
			S350.989,210.883,350.989,211.305z"/>
		<path d="M364.263,211.961l1.375,0.141c-0.198,0.683-0.652,1.331-1.363,1.945s-1.559,0.922-2.543,0.922
			c-0.614,0-1.179-0.142-1.691-0.426s-0.903-0.696-1.172-1.238s-0.402-1.159-0.402-1.852c0-0.906,0.21-1.785,0.629-2.637
			s0.962-1.484,1.629-1.898s1.388-0.621,2.164-0.621c0.989,0,1.78,0.308,2.371,0.922s0.887,1.453,0.887,2.516
			c0,0.406-0.036,0.823-0.109,1.25h-6.109c-0.021,0.161-0.031,0.308-0.031,0.438c0,0.776,0.179,1.368,0.535,1.777
			s0.793,0.613,1.309,0.613c0.484,0,0.961-0.159,1.43-0.477S364.002,212.56,364.263,211.961z M360.153,209.906h4.656
			c0.005-0.146,0.008-0.25,0.008-0.313c0-0.708-0.177-1.251-0.531-1.629s-0.81-0.566-1.367-0.566c-0.604,0-1.155,0.208-1.652,0.625
			S360.398,209.067,360.153,209.906z"/>
	</g>
	<g>
		<path d="M185.44,213.633c0.042,0.114,0.063,0.207,0.066,0.277c0.002,0.07-0.017,0.124-0.059,0.16
			c-0.042,0.036-0.111,0.06-0.207,0.07c-0.097,0.011-0.226,0.016-0.387,0.016c-0.162,0-0.291-0.004-0.387-0.012
			c-0.097-0.008-0.169-0.021-0.219-0.039c-0.05-0.019-0.086-0.043-0.109-0.074s-0.046-0.07-0.066-0.117l-0.867-2.461h-4.203
			l-0.828,2.43c-0.016,0.047-0.037,0.087-0.063,0.121c-0.026,0.034-0.064,0.063-0.113,0.086c-0.05,0.023-0.12,0.04-0.211,0.051
			c-0.091,0.011-0.21,0.016-0.355,0.016c-0.151,0-0.275-0.007-0.371-0.02c-0.097-0.013-0.164-0.038-0.203-0.074
			s-0.058-0.09-0.055-0.16c0.002-0.07,0.024-0.163,0.066-0.277l3.391-9.391c0.021-0.058,0.048-0.104,0.082-0.141
			c0.034-0.036,0.083-0.065,0.148-0.086c0.065-0.021,0.148-0.035,0.25-0.043s0.23-0.012,0.387-0.012
			c0.167,0,0.305,0.004,0.414,0.012s0.198,0.022,0.266,0.043c0.067,0.021,0.12,0.051,0.156,0.09
			c0.036,0.039,0.065,0.087,0.086,0.145L185.44,213.633z M181.088,205.344h-0.008l-1.742,5.039h3.516L181.088,205.344z"/>
		<path d="M193.034,213.914c0,0.042-0.011,0.077-0.031,0.105c-0.021,0.028-0.055,0.054-0.102,0.074s-0.112,0.036-0.195,0.047
			c-0.083,0.011-0.188,0.016-0.313,0.016c-0.13,0-0.237-0.005-0.32-0.016c-0.083-0.011-0.148-0.026-0.195-0.047
			s-0.081-0.046-0.102-0.074c-0.021-0.028-0.031-0.063-0.031-0.105v-4.117c0-0.401-0.031-0.724-0.094-0.969
			s-0.154-0.456-0.273-0.633c-0.12-0.177-0.275-0.313-0.465-0.406c-0.19-0.094-0.41-0.141-0.66-0.141
			c-0.323,0-0.646,0.114-0.969,0.344c-0.323,0.229-0.662,0.565-1.016,1.008v4.914c0,0.042-0.011,0.077-0.031,0.105
			c-0.021,0.028-0.055,0.054-0.102,0.074s-0.112,0.036-0.195,0.047c-0.083,0.011-0.19,0.016-0.32,0.016
			c-0.125,0-0.229-0.005-0.313-0.016c-0.083-0.011-0.15-0.026-0.199-0.047c-0.05-0.021-0.083-0.046-0.102-0.074
			c-0.019-0.028-0.027-0.063-0.027-0.105v-7.031c0-0.042,0.008-0.077,0.023-0.105s0.047-0.055,0.094-0.078s0.106-0.039,0.18-0.047
			c0.073-0.008,0.169-0.012,0.289-0.012c0.114,0,0.209,0.004,0.285,0.012c0.075,0.008,0.134,0.023,0.176,0.047
			c0.042,0.023,0.071,0.05,0.09,0.078c0.018,0.028,0.027,0.063,0.027,0.105v0.93c0.396-0.442,0.79-0.767,1.184-0.973
			c0.393-0.206,0.79-0.309,1.191-0.309c0.469,0,0.863,0.079,1.184,0.238s0.579,0.371,0.777,0.637
			c0.198,0.266,0.34,0.577,0.426,0.934s0.129,0.785,0.129,1.285V213.914z"/>
		<path d="M201.924,210.32c0,0.573-0.075,1.101-0.227,1.582c-0.15,0.481-0.376,0.897-0.676,1.246
			c-0.299,0.349-0.674,0.621-1.125,0.816c-0.451,0.195-0.973,0.293-1.566,0.293c-0.578,0-1.082-0.086-1.512-0.258
			s-0.788-0.422-1.074-0.75c-0.287-0.328-0.5-0.727-0.641-1.195s-0.211-1-0.211-1.594c0-0.573,0.074-1.101,0.223-1.582
			s0.372-0.897,0.672-1.246c0.299-0.349,0.673-0.62,1.121-0.813c0.448-0.192,0.971-0.289,1.57-0.289
			c0.578,0,1.082,0.086,1.512,0.258s0.788,0.422,1.074,0.75c0.287,0.328,0.502,0.727,0.645,1.195
			C201.853,209.203,201.924,209.731,201.924,210.32z M200.588,210.406c0-0.38-0.036-0.739-0.106-1.078
			c-0.071-0.339-0.188-0.636-0.351-0.891c-0.163-0.255-0.384-0.457-0.663-0.605c-0.278-0.148-0.625-0.223-1.041-0.223
			c-0.384,0-0.713,0.067-0.989,0.203s-0.503,0.327-0.682,0.574s-0.312,0.54-0.398,0.879c-0.086,0.339-0.13,0.708-0.13,1.109
			c0,0.386,0.035,0.747,0.106,1.086c0.071,0.339,0.189,0.634,0.354,0.887c0.166,0.253,0.388,0.453,0.666,0.602
			c0.279,0.148,0.625,0.223,1.041,0.223c0.378,0,0.707-0.067,0.985-0.203c0.278-0.136,0.507-0.325,0.686-0.57
			s0.31-0.536,0.395-0.875C200.546,211.185,200.588,210.813,200.588,210.406z"/>
		<path d="M209.846,213.914c0,0.042-0.009,0.078-0.027,0.109c-0.018,0.031-0.049,0.056-0.094,0.074
			c-0.044,0.019-0.103,0.032-0.176,0.043c-0.072,0.011-0.161,0.016-0.266,0.016c-0.109,0-0.2-0.005-0.273-0.016
			c-0.072-0.011-0.133-0.024-0.18-0.043s-0.08-0.043-0.102-0.074c-0.021-0.031-0.031-0.067-0.031-0.109v-0.93
			c-0.369,0.401-0.754,0.714-1.152,0.938s-0.834,0.336-1.309,0.336c-0.516,0-0.955-0.101-1.32-0.301
			c-0.364-0.2-0.66-0.472-0.887-0.813s-0.392-0.742-0.496-1.203c-0.104-0.461-0.156-0.946-0.156-1.457
			c0-0.604,0.065-1.149,0.195-1.637c0.131-0.487,0.323-0.902,0.578-1.246c0.256-0.344,0.572-0.608,0.949-0.793
			c0.378-0.185,0.814-0.277,1.309-0.277c0.412,0,0.788,0.09,1.129,0.27c0.342,0.18,0.679,0.444,1.012,0.793v-4.086
			c0-0.036,0.01-0.071,0.027-0.105c0.019-0.034,0.054-0.06,0.105-0.078c0.053-0.019,0.119-0.034,0.199-0.047
			c0.081-0.013,0.184-0.02,0.309-0.02c0.131,0,0.237,0.007,0.32,0.02c0.084,0.013,0.148,0.028,0.195,0.047s0.082,0.044,0.105,0.078
			s0.035,0.069,0.035,0.105V213.914z M208.549,208.969c-0.349-0.433-0.686-0.762-1.012-0.988c-0.325-0.227-0.665-0.34-1.02-0.34
			c-0.328,0-0.606,0.078-0.836,0.234c-0.229,0.156-0.415,0.362-0.559,0.617c-0.143,0.255-0.247,0.544-0.313,0.867
			c-0.064,0.323-0.098,0.651-0.098,0.984c0,0.354,0.027,0.7,0.082,1.039s0.15,0.64,0.285,0.902c0.136,0.263,0.315,0.474,0.539,0.633
			c0.225,0.159,0.506,0.238,0.844,0.238c0.172,0,0.338-0.023,0.496-0.07c0.159-0.047,0.322-0.125,0.488-0.234
			c0.167-0.109,0.342-0.251,0.523-0.426c0.183-0.175,0.375-0.39,0.578-0.645V208.969z"/>
		<path d="M218.229,210.094c0,0.203-0.051,0.348-0.152,0.434s-0.219,0.129-0.35,0.129h-4.631c0,0.391,0.039,0.742,0.118,1.055
			s0.21,0.581,0.393,0.805s0.421,0.396,0.714,0.516s0.652,0.18,1.076,0.18c0.335,0,0.633-0.027,0.895-0.082s0.488-0.116,0.68-0.184
			s0.348-0.129,0.471-0.184s0.216-0.082,0.279-0.082c0.036,0,0.068,0.009,0.098,0.027s0.051,0.046,0.066,0.082
			s0.027,0.087,0.035,0.152s0.012,0.145,0.012,0.238c0,0.067-0.002,0.126-0.008,0.176c-0.005,0.05-0.012,0.094-0.02,0.133
			s-0.021,0.074-0.039,0.105c-0.018,0.031-0.041,0.062-0.07,0.09c-0.028,0.028-0.113,0.075-0.254,0.141s-0.322,0.129-0.547,0.191
			c-0.224,0.063-0.482,0.118-0.777,0.168c-0.294,0.05-0.607,0.074-0.941,0.074c-0.578,0-1.084-0.081-1.52-0.242
			c-0.435-0.161-0.801-0.401-1.098-0.719s-0.521-0.716-0.672-1.195c-0.15-0.479-0.227-1.036-0.227-1.672
			c0-0.604,0.078-1.147,0.234-1.629s0.382-0.891,0.676-1.227c0.295-0.336,0.65-0.594,1.066-0.773c0.417-0.18,0.883-0.27,1.398-0.27
			c0.553,0,1.022,0.089,1.41,0.266c0.389,0.177,0.707,0.415,0.957,0.715s0.434,0.651,0.551,1.055s0.176,0.835,0.176,1.293V210.094z
			 M216.932,209.711c0.016-0.677-0.135-1.208-0.451-1.594c-0.317-0.386-0.787-0.578-1.411-0.578c-0.319,0-0.601,0.06-0.841,0.18
			c-0.242,0.12-0.443,0.278-0.605,0.477s-0.289,0.429-0.377,0.691c-0.09,0.263-0.139,0.538-0.15,0.824H216.932z"/>
		<path d="M226.244,213.914c0,0.042-0.01,0.077-0.031,0.105c-0.021,0.028-0.055,0.054-0.102,0.074s-0.111,0.036-0.195,0.047
			c-0.083,0.011-0.188,0.016-0.313,0.016c-0.13,0-0.236-0.005-0.32-0.016c-0.083-0.011-0.148-0.026-0.195-0.047
			s-0.08-0.046-0.102-0.074c-0.021-0.028-0.031-0.063-0.031-0.105v-4.117c0-0.401-0.031-0.724-0.094-0.969s-0.153-0.456-0.273-0.633
			c-0.119-0.177-0.274-0.313-0.465-0.406c-0.189-0.094-0.41-0.141-0.66-0.141c-0.322,0-0.646,0.114-0.969,0.344
			c-0.322,0.229-0.661,0.565-1.016,1.008v4.914c0,0.042-0.01,0.077-0.031,0.105c-0.021,0.028-0.055,0.054-0.102,0.074
			s-0.111,0.036-0.195,0.047c-0.083,0.011-0.189,0.016-0.32,0.016c-0.125,0-0.229-0.005-0.313-0.016
			c-0.083-0.011-0.149-0.026-0.199-0.047c-0.049-0.021-0.083-0.046-0.102-0.074c-0.018-0.028-0.027-0.063-0.027-0.105v-7.031
			c0-0.042,0.008-0.077,0.023-0.105s0.047-0.055,0.094-0.078s0.107-0.039,0.18-0.047c0.073-0.008,0.17-0.012,0.289-0.012
			c0.115,0,0.21,0.004,0.285,0.012c0.076,0.008,0.135,0.023,0.176,0.047c0.042,0.023,0.072,0.05,0.09,0.078
			c0.019,0.028,0.027,0.063,0.027,0.105v0.93c0.396-0.442,0.791-0.767,1.184-0.973c0.394-0.206,0.791-0.309,1.191-0.309
			c0.469,0,0.863,0.079,1.184,0.238s0.58,0.371,0.777,0.637c0.198,0.266,0.34,0.577,0.426,0.934s0.129,0.785,0.129,1.285V213.914z"
			/>
		<path d="M233.01,212c0,0.359-0.066,0.68-0.199,0.961s-0.321,0.519-0.566,0.711c-0.244,0.192-0.536,0.339-0.875,0.438
			c-0.338,0.099-0.711,0.148-1.117,0.148c-0.25,0-0.488-0.02-0.715-0.059s-0.43-0.089-0.609-0.148s-0.332-0.122-0.457-0.188
			s-0.216-0.124-0.273-0.176c-0.057-0.052-0.099-0.125-0.125-0.219c-0.025-0.094-0.039-0.222-0.039-0.383
			c0-0.099,0.006-0.183,0.016-0.25c0.011-0.067,0.023-0.122,0.039-0.164s0.038-0.071,0.066-0.09
			c0.029-0.019,0.062-0.027,0.098-0.027c0.058,0,0.143,0.035,0.254,0.105c0.112,0.07,0.25,0.147,0.414,0.23s0.358,0.16,0.582,0.23
			c0.225,0.07,0.482,0.105,0.773,0.105c0.219,0,0.417-0.023,0.594-0.07c0.178-0.047,0.331-0.116,0.461-0.207
			c0.131-0.091,0.23-0.207,0.301-0.348s0.105-0.308,0.105-0.5c0-0.198-0.051-0.364-0.152-0.5s-0.235-0.255-0.402-0.359
			c-0.166-0.104-0.354-0.196-0.563-0.277c-0.208-0.081-0.423-0.165-0.645-0.254c-0.221-0.089-0.438-0.188-0.648-0.301
			s-0.399-0.249-0.566-0.41c-0.166-0.161-0.301-0.354-0.402-0.578s-0.152-0.492-0.152-0.805c0-0.276,0.054-0.54,0.16-0.793
			c0.107-0.253,0.268-0.474,0.48-0.664c0.214-0.19,0.48-0.343,0.801-0.457s0.694-0.172,1.121-0.172c0.188,0,0.375,0.016,0.563,0.047
			s0.357,0.07,0.508,0.117c0.151,0.047,0.28,0.098,0.387,0.152c0.107,0.055,0.188,0.103,0.242,0.145s0.092,0.078,0.109,0.109
			c0.019,0.031,0.031,0.066,0.039,0.105s0.016,0.087,0.023,0.145s0.012,0.128,0.012,0.211c0,0.089-0.004,0.165-0.012,0.23
			s-0.021,0.118-0.039,0.16c-0.018,0.042-0.04,0.071-0.066,0.09c-0.025,0.019-0.055,0.027-0.086,0.027
			c-0.047,0-0.114-0.028-0.203-0.086c-0.088-0.058-0.203-0.118-0.344-0.184s-0.306-0.126-0.496-0.184
			c-0.189-0.058-0.407-0.086-0.652-0.086c-0.219,0-0.411,0.024-0.578,0.074c-0.166,0.05-0.303,0.12-0.41,0.211
			c-0.106,0.091-0.188,0.199-0.242,0.324s-0.082,0.261-0.082,0.406c0,0.203,0.053,0.374,0.156,0.512
			c0.104,0.138,0.24,0.259,0.406,0.363c0.167,0.104,0.357,0.198,0.57,0.281c0.214,0.083,0.432,0.169,0.652,0.258
			c0.222,0.089,0.44,0.188,0.656,0.297c0.217,0.109,0.408,0.242,0.574,0.398c0.167,0.156,0.301,0.344,0.402,0.563
			S233.01,211.698,233.01,212z"/>
		<path d="M241.322,210.289c0,0.614-0.066,1.167-0.199,1.656s-0.328,0.905-0.586,1.246s-0.576,0.604-0.957,0.789
			c-0.38,0.185-0.814,0.277-1.305,0.277c-0.208,0-0.4-0.021-0.578-0.063c-0.177-0.042-0.35-0.106-0.52-0.195
			c-0.169-0.089-0.337-0.2-0.504-0.336c-0.166-0.136-0.344-0.294-0.531-0.477v3.516c0,0.042-0.01,0.078-0.031,0.109
			c-0.021,0.031-0.055,0.058-0.102,0.078s-0.111,0.036-0.195,0.047c-0.083,0.011-0.189,0.016-0.32,0.016
			c-0.125,0-0.229-0.005-0.313-0.016c-0.083-0.011-0.149-0.026-0.199-0.047c-0.049-0.021-0.083-0.047-0.102-0.078
			c-0.018-0.031-0.027-0.067-0.027-0.109v-9.82c0-0.047,0.008-0.085,0.023-0.113s0.047-0.054,0.094-0.074s0.107-0.035,0.18-0.043
			c0.073-0.008,0.162-0.012,0.266-0.012c0.109,0,0.199,0.004,0.27,0.012s0.129,0.022,0.176,0.043s0.08,0.046,0.098,0.074
			c0.019,0.028,0.027,0.066,0.027,0.113v0.945c0.214-0.219,0.42-0.409,0.617-0.57c0.198-0.161,0.397-0.296,0.598-0.402
			c0.201-0.106,0.406-0.188,0.617-0.242s0.434-0.082,0.668-0.082c0.511,0,0.945,0.099,1.305,0.297s0.652,0.469,0.879,0.813
			s0.393,0.743,0.496,1.199C241.271,209.296,241.322,209.778,241.322,210.289z M239.986,210.438c0-0.359-0.027-0.707-0.082-1.043
			s-0.149-0.634-0.283-0.895c-0.133-0.261-0.313-0.469-0.538-0.625s-0.506-0.234-0.841-0.234c-0.168,0-0.334,0.024-0.496,0.074
			s-0.327,0.128-0.494,0.234c-0.168,0.106-0.344,0.247-0.527,0.422s-0.377,0.39-0.582,0.645v2.797
			c0.357,0.433,0.695,0.763,1.015,0.992s0.655,0.344,1.006,0.344c0.325,0,0.604-0.078,0.837-0.234
			c0.233-0.156,0.422-0.364,0.566-0.625s0.25-0.552,0.318-0.875S239.986,210.766,239.986,210.438z"/>
		<path d="M248.557,213.922c0,0.063-0.02,0.109-0.063,0.141c-0.041,0.031-0.098,0.055-0.172,0.07
			c-0.072,0.016-0.18,0.023-0.32,0.023c-0.135,0-0.242-0.008-0.324-0.023c-0.08-0.016-0.139-0.039-0.176-0.07
			c-0.035-0.031-0.055-0.078-0.055-0.141v-0.703c-0.307,0.328-0.648,0.583-1.027,0.766c-0.377,0.183-0.777,0.273-1.199,0.273
			c-0.369,0-0.703-0.048-1.004-0.145c-0.299-0.097-0.555-0.235-0.766-0.418s-0.375-0.406-0.492-0.672s-0.176-0.567-0.176-0.906
			c0-0.396,0.081-0.739,0.242-1.031c0.162-0.292,0.394-0.534,0.695-0.727c0.303-0.192,0.672-0.337,1.109-0.434
			s0.93-0.145,1.477-0.145h0.969v-0.547c0-0.271-0.027-0.511-0.086-0.719c-0.057-0.208-0.148-0.382-0.277-0.52
			c-0.127-0.138-0.293-0.242-0.496-0.313s-0.453-0.105-0.75-0.105c-0.316,0-0.602,0.038-0.855,0.113
			c-0.252,0.075-0.473,0.159-0.664,0.25c-0.189,0.091-0.348,0.175-0.477,0.25c-0.127,0.075-0.223,0.113-0.285,0.113
			c-0.041,0-0.078-0.011-0.109-0.031s-0.059-0.052-0.082-0.094s-0.04-0.095-0.051-0.16c-0.01-0.065-0.016-0.137-0.016-0.215
			c0-0.13,0.01-0.233,0.027-0.309c0.019-0.075,0.063-0.147,0.133-0.215s0.191-0.147,0.363-0.238s0.371-0.175,0.594-0.25
			c0.225-0.075,0.469-0.138,0.734-0.188s0.535-0.074,0.805-0.074c0.506,0,0.936,0.058,1.289,0.172
			c0.355,0.114,0.641,0.282,0.859,0.504s0.379,0.496,0.477,0.824c0.1,0.328,0.148,0.711,0.148,1.148V213.922z M247.275,210.711
			h-1.102c-0.354,0-0.66,0.03-0.922,0.09c-0.26,0.06-0.477,0.148-0.648,0.266s-0.297,0.258-0.379,0.422
			c-0.08,0.164-0.121,0.353-0.121,0.566c0,0.364,0.117,0.655,0.348,0.871c0.232,0.216,0.557,0.324,0.973,0.324
			c0.34,0,0.652-0.086,0.941-0.258s0.594-0.435,0.91-0.789V210.711z"/>
		<path d="M256.979,213.914c0,0.042-0.01,0.077-0.031,0.105c-0.02,0.028-0.055,0.054-0.102,0.074s-0.111,0.036-0.195,0.047
			c-0.082,0.011-0.188,0.016-0.313,0.016c-0.129,0-0.236-0.005-0.32-0.016c-0.082-0.011-0.148-0.026-0.195-0.047
			s-0.08-0.046-0.102-0.074c-0.02-0.028-0.031-0.063-0.031-0.105v-4.117c0-0.401-0.031-0.724-0.094-0.969s-0.152-0.456-0.273-0.633
			c-0.119-0.177-0.273-0.313-0.465-0.406c-0.189-0.094-0.41-0.141-0.66-0.141c-0.322,0-0.645,0.114-0.969,0.344
			c-0.322,0.229-0.66,0.565-1.016,1.008v4.914c0,0.042-0.01,0.077-0.031,0.105c-0.02,0.028-0.055,0.054-0.102,0.074
			s-0.111,0.036-0.195,0.047c-0.082,0.011-0.189,0.016-0.32,0.016c-0.125,0-0.229-0.005-0.313-0.016
			c-0.082-0.011-0.148-0.026-0.199-0.047c-0.049-0.021-0.082-0.046-0.102-0.074c-0.018-0.028-0.027-0.063-0.027-0.105v-7.031
			c0-0.042,0.008-0.077,0.023-0.105s0.047-0.055,0.094-0.078s0.107-0.039,0.18-0.047c0.074-0.008,0.17-0.012,0.289-0.012
			c0.115,0,0.211,0.004,0.285,0.012c0.076,0.008,0.135,0.023,0.176,0.047c0.043,0.023,0.072,0.05,0.09,0.078
			c0.02,0.028,0.027,0.063,0.027,0.105v0.93c0.396-0.442,0.791-0.767,1.184-0.973c0.395-0.206,0.791-0.309,1.191-0.309
			c0.469,0,0.863,0.079,1.184,0.238s0.58,0.371,0.777,0.637c0.199,0.266,0.34,0.577,0.426,0.934s0.129,0.785,0.129,1.285V213.914z"
			/>
		<path d="M265.385,213.914c0,0.042-0.01,0.077-0.031,0.105c-0.02,0.028-0.055,0.054-0.102,0.074s-0.111,0.036-0.195,0.047
			c-0.082,0.011-0.188,0.016-0.313,0.016c-0.129,0-0.236-0.005-0.32-0.016c-0.082-0.011-0.148-0.026-0.195-0.047
			s-0.08-0.046-0.102-0.074c-0.02-0.028-0.031-0.063-0.031-0.105v-4.117c0-0.401-0.031-0.724-0.094-0.969s-0.152-0.456-0.273-0.633
			c-0.119-0.177-0.273-0.313-0.465-0.406c-0.189-0.094-0.41-0.141-0.66-0.141c-0.322,0-0.645,0.114-0.969,0.344
			c-0.322,0.229-0.66,0.565-1.016,1.008v4.914c0,0.042-0.01,0.077-0.031,0.105c-0.02,0.028-0.055,0.054-0.102,0.074
			s-0.111,0.036-0.195,0.047c-0.082,0.011-0.189,0.016-0.32,0.016c-0.125,0-0.229-0.005-0.313-0.016
			c-0.082-0.011-0.148-0.026-0.199-0.047c-0.049-0.021-0.082-0.046-0.102-0.074c-0.018-0.028-0.027-0.063-0.027-0.105v-7.031
			c0-0.042,0.008-0.077,0.023-0.105s0.047-0.055,0.094-0.078s0.107-0.039,0.18-0.047c0.074-0.008,0.17-0.012,0.289-0.012
			c0.115,0,0.211,0.004,0.285,0.012c0.076,0.008,0.135,0.023,0.176,0.047c0.043,0.023,0.072,0.05,0.09,0.078
			c0.02,0.028,0.027,0.063,0.027,0.105v0.93c0.396-0.442,0.791-0.767,1.184-0.973c0.395-0.206,0.791-0.309,1.191-0.309
			c0.469,0,0.863,0.079,1.184,0.238s0.58,0.371,0.777,0.637c0.199,0.266,0.34,0.577,0.426,0.934s0.129,0.785,0.129,1.285V213.914z"
			/>
		<path d="M273.76,213.914c0,0.042-0.008,0.077-0.027,0.105c-0.018,0.028-0.051,0.054-0.098,0.074s-0.107,0.036-0.184,0.047
			c-0.074,0.011-0.168,0.016-0.277,0.016c-0.119,0-0.217-0.005-0.293-0.016c-0.074-0.011-0.135-0.026-0.18-0.047
			c-0.043-0.021-0.074-0.046-0.09-0.074s-0.023-0.063-0.023-0.105v-0.93c-0.4,0.442-0.797,0.766-1.188,0.969
			s-0.785,0.305-1.188,0.305c-0.469,0-0.863-0.078-1.184-0.234s-0.578-0.368-0.777-0.637c-0.197-0.269-0.34-0.581-0.426-0.938
			s-0.129-0.79-0.129-1.301v-4.266c0-0.042,0.01-0.077,0.027-0.105c0.02-0.028,0.055-0.055,0.105-0.078
			c0.053-0.023,0.121-0.039,0.203-0.047c0.084-0.008,0.188-0.012,0.313-0.012s0.23,0.004,0.313,0.012
			c0.084,0.008,0.15,0.023,0.199,0.047c0.051,0.023,0.086,0.05,0.105,0.078c0.021,0.028,0.031,0.063,0.031,0.105v4.094
			c0,0.411,0.031,0.741,0.09,0.988c0.061,0.247,0.152,0.458,0.273,0.633c0.123,0.175,0.277,0.31,0.465,0.406
			s0.406,0.145,0.656,0.145c0.324,0,0.645-0.114,0.965-0.344s0.66-0.565,1.02-1.008v-4.914c0-0.042,0.01-0.077,0.027-0.105
			c0.02-0.028,0.055-0.055,0.105-0.078c0.053-0.023,0.119-0.039,0.199-0.047c0.082-0.008,0.188-0.012,0.316-0.012
			c0.125,0,0.23,0.004,0.313,0.012c0.084,0.008,0.148,0.023,0.195,0.047s0.082,0.05,0.105,0.078s0.035,0.063,0.035,0.105V213.914z"
			/>
		<path d="M282.197,213.914c0,0.042-0.01,0.077-0.031,0.105c-0.02,0.028-0.055,0.054-0.102,0.074s-0.111,0.036-0.195,0.047
			c-0.082,0.011-0.188,0.016-0.313,0.016c-0.129,0-0.236-0.005-0.32-0.016c-0.082-0.011-0.148-0.026-0.195-0.047
			s-0.08-0.046-0.102-0.074c-0.02-0.028-0.031-0.063-0.031-0.105v-4.117c0-0.401-0.031-0.724-0.094-0.969s-0.152-0.456-0.273-0.633
			c-0.119-0.177-0.273-0.313-0.465-0.406c-0.189-0.094-0.41-0.141-0.66-0.141c-0.322,0-0.645,0.114-0.969,0.344
			c-0.322,0.229-0.66,0.565-1.016,1.008v4.914c0,0.042-0.01,0.077-0.031,0.105c-0.02,0.028-0.055,0.054-0.102,0.074
			s-0.111,0.036-0.195,0.047c-0.082,0.011-0.189,0.016-0.32,0.016c-0.125,0-0.229-0.005-0.313-0.016
			c-0.082-0.011-0.148-0.026-0.199-0.047c-0.049-0.021-0.082-0.046-0.102-0.074c-0.018-0.028-0.027-0.063-0.027-0.105v-7.031
			c0-0.042,0.008-0.077,0.023-0.105s0.047-0.055,0.094-0.078s0.107-0.039,0.18-0.047c0.074-0.008,0.17-0.012,0.289-0.012
			c0.115,0,0.211,0.004,0.285,0.012c0.076,0.008,0.135,0.023,0.176,0.047c0.043,0.023,0.072,0.05,0.09,0.078
			c0.02,0.028,0.027,0.063,0.027,0.105v0.93c0.396-0.442,0.791-0.767,1.184-0.973c0.395-0.206,0.791-0.309,1.191-0.309
			c0.469,0,0.863,0.079,1.184,0.238s0.58,0.371,0.777,0.637c0.199,0.266,0.34,0.577,0.426,0.934s0.129,0.785,0.129,1.285V213.914z"
			/>
		<path d="M290.424,207.203c0,0.183-0.023,0.313-0.074,0.395c-0.049,0.081-0.113,0.121-0.191,0.121h-1.008
			c0.184,0.188,0.311,0.395,0.383,0.621c0.074,0.227,0.109,0.462,0.109,0.707c0,0.406-0.064,0.766-0.195,1.078
			c-0.129,0.313-0.316,0.577-0.559,0.793s-0.529,0.382-0.863,0.496c-0.332,0.114-0.703,0.172-1.109,0.172
			c-0.285,0-0.559-0.038-0.816-0.113s-0.457-0.171-0.598-0.285c-0.094,0.094-0.17,0.2-0.23,0.32c-0.059,0.12-0.09,0.258-0.09,0.414
			c0,0.183,0.086,0.333,0.254,0.453c0.17,0.12,0.395,0.185,0.676,0.195l1.836,0.078c0.35,0.011,0.67,0.059,0.961,0.145
			c0.293,0.086,0.545,0.208,0.758,0.367c0.215,0.159,0.381,0.354,0.5,0.586c0.121,0.231,0.18,0.501,0.18,0.809
			c0,0.323-0.066,0.63-0.203,0.922c-0.135,0.292-0.342,0.548-0.621,0.77c-0.277,0.222-0.633,0.396-1.066,0.523
			c-0.432,0.128-0.941,0.191-1.531,0.191c-0.566,0-1.051-0.048-1.449-0.145s-0.725-0.228-0.98-0.395
			c-0.254-0.167-0.439-0.366-0.555-0.598c-0.113-0.231-0.172-0.483-0.172-0.754c0-0.172,0.021-0.339,0.063-0.5
			c0.043-0.161,0.105-0.315,0.191-0.461s0.193-0.285,0.32-0.418c0.129-0.133,0.275-0.265,0.441-0.395
			c-0.254-0.13-0.443-0.294-0.566-0.492c-0.121-0.198-0.184-0.411-0.184-0.641c0-0.317,0.066-0.602,0.195-0.852
			c0.131-0.25,0.293-0.474,0.484-0.672c-0.16-0.192-0.289-0.41-0.383-0.652s-0.141-0.535-0.141-0.879
			c0-0.401,0.068-0.761,0.203-1.078c0.137-0.317,0.324-0.586,0.563-0.805c0.24-0.219,0.527-0.387,0.863-0.504
			s0.703-0.176,1.098-0.176c0.215,0,0.414,0.012,0.598,0.035c0.186,0.023,0.359,0.056,0.52,0.098h2.125
			c0.09,0,0.156,0.043,0.199,0.129C290.402,206.895,290.424,207.026,290.424,207.203z M289.057,214.625
			c0-0.302-0.123-0.535-0.371-0.699c-0.246-0.164-0.582-0.251-1.004-0.262l-1.82-0.063c-0.166,0.13-0.303,0.254-0.41,0.371
			c-0.105,0.117-0.191,0.229-0.254,0.336s-0.105,0.212-0.129,0.316s-0.035,0.211-0.035,0.32c0,0.339,0.172,0.595,0.516,0.77
			s0.824,0.262,1.438,0.262c0.391,0,0.719-0.038,0.98-0.113c0.264-0.075,0.477-0.176,0.637-0.301
			c0.162-0.125,0.277-0.269,0.348-0.43S289.057,214.802,289.057,214.625z M288.408,209.055c0-0.479-0.131-0.853-0.395-1.121
			c-0.262-0.269-0.637-0.402-1.121-0.402c-0.25,0-0.467,0.042-0.652,0.125c-0.184,0.083-0.338,0.198-0.461,0.344
			c-0.121,0.146-0.213,0.313-0.273,0.504c-0.059,0.19-0.09,0.39-0.09,0.598c0,0.464,0.133,0.828,0.395,1.094
			c0.264,0.266,0.633,0.398,1.105,0.398c0.256,0,0.477-0.04,0.664-0.121s0.344-0.192,0.465-0.336
			c0.123-0.144,0.215-0.309,0.273-0.496C288.379,209.453,288.408,209.258,288.408,209.055z"/>
		<path d="M202.721,225.208c-0.01,0.354-0.074,0.664-0.191,0.93s-0.267,0.488-0.449,0.668c-0.182,0.18-0.393,0.315-0.633,0.406
			c-0.239,0.091-0.484,0.137-0.734,0.137s-0.466-0.027-0.648-0.082c-0.183-0.055-0.344-0.128-0.484-0.219s-0.265-0.194-0.371-0.309
			c-0.107-0.114-0.208-0.231-0.305-0.352c-0.097-0.12-0.189-0.231-0.277-0.336c-0.089-0.104-0.18-0.196-0.273-0.277
			s-0.195-0.145-0.305-0.191s-0.234-0.07-0.375-0.07c-0.177,0-0.327,0.038-0.449,0.113c-0.123,0.075-0.223,0.176-0.301,0.301
			s-0.134,0.269-0.168,0.43c-0.034,0.161-0.051,0.333-0.051,0.516c0,0.094-0.044,0.155-0.133,0.184
			c-0.089,0.028-0.216,0.043-0.383,0.043c-0.104,0-0.189-0.005-0.254-0.016c-0.065-0.011-0.117-0.024-0.156-0.043
			s-0.065-0.043-0.078-0.074c-0.013-0.031-0.02-0.065-0.02-0.102v-0.211c0-0.359,0.049-0.676,0.148-0.949
			c0.099-0.273,0.237-0.503,0.414-0.688c0.177-0.185,0.389-0.324,0.637-0.418c0.247-0.094,0.517-0.141,0.809-0.141
			c0.245,0,0.459,0.027,0.645,0.082c0.185,0.055,0.348,0.126,0.488,0.215s0.266,0.188,0.375,0.301s0.211,0.228,0.305,0.348
			s0.184,0.231,0.27,0.336s0.176,0.196,0.27,0.277s0.195,0.145,0.305,0.191s0.237,0.07,0.383,0.07c0.172,0,0.319-0.034,0.441-0.102
			c0.123-0.067,0.223-0.163,0.301-0.285s0.136-0.267,0.172-0.434c0.037-0.167,0.055-0.349,0.055-0.547
			c0-0.083,0.043-0.14,0.129-0.168s0.213-0.043,0.379-0.043c0.1,0,0.183,0.004,0.25,0.012c0.068,0.008,0.123,0.022,0.164,0.043
			c0.042,0.021,0.07,0.047,0.086,0.078s0.021,0.07,0.016,0.117V225.208z"/>
		<path d="M214.033,232.778c0,0.099-0.008,0.183-0.023,0.25s-0.036,0.122-0.063,0.164c-0.025,0.042-0.056,0.071-0.09,0.09
			c-0.033,0.019-0.068,0.027-0.105,0.027h-5.281c-0.036,0-0.07-0.009-0.102-0.027s-0.061-0.048-0.09-0.09
			c-0.028-0.042-0.051-0.097-0.066-0.164s-0.023-0.151-0.023-0.25c0-0.094,0.008-0.175,0.023-0.242s0.035-0.124,0.059-0.168
			s0.053-0.078,0.086-0.102c0.034-0.023,0.072-0.035,0.113-0.035h2.109v-7.688l-1.953,1.164c-0.099,0.052-0.178,0.083-0.238,0.094
			c-0.06,0.011-0.107-0.001-0.145-0.035c-0.036-0.034-0.061-0.09-0.074-0.168c-0.013-0.078-0.02-0.177-0.02-0.297
			c0-0.089,0.004-0.164,0.012-0.227s0.02-0.114,0.035-0.156s0.038-0.078,0.066-0.109c0.029-0.031,0.066-0.063,0.113-0.094
			l2.328-1.492c0.021-0.016,0.047-0.028,0.078-0.039s0.07-0.021,0.117-0.031s0.102-0.017,0.164-0.02s0.141-0.004,0.234-0.004
			c0.125,0,0.229,0.005,0.313,0.016c0.084,0.011,0.148,0.024,0.195,0.043s0.078,0.042,0.094,0.07s0.023,0.059,0.023,0.09v8.883
			h1.828c0.042,0,0.081,0.012,0.117,0.035c0.037,0.023,0.066,0.058,0.09,0.102s0.042,0.101,0.055,0.168
			C214.027,232.604,214.033,232.685,214.033,232.778z"/>
		<path d="M222.455,228.231c0,0.776-0.061,1.484-0.184,2.125c-0.122,0.641-0.325,1.191-0.609,1.652
			c-0.283,0.461-0.654,0.817-1.113,1.07c-0.458,0.253-1.023,0.379-1.695,0.379c-0.635,0-1.17-0.113-1.605-0.34
			c-0.435-0.227-0.785-0.56-1.051-1s-0.454-0.981-0.566-1.625c-0.111-0.644-0.168-1.382-0.168-2.215
			c0-0.771,0.063-1.478,0.188-2.121s0.328-1.195,0.609-1.656s0.651-0.817,1.109-1.07c0.459-0.253,1.021-0.379,1.688-0.379
			c0.641,0,1.179,0.113,1.613,0.34c0.436,0.227,0.785,0.56,1.051,1s0.455,0.981,0.566,1.625
			C222.399,226.66,222.455,227.398,222.455,228.231z M221.08,228.325c0-0.505-0.018-0.958-0.055-1.359
			c-0.036-0.401-0.09-0.755-0.16-1.063s-0.161-0.571-0.273-0.793c-0.111-0.222-0.246-0.403-0.402-0.547s-0.334-0.247-0.535-0.313
			c-0.2-0.065-0.426-0.098-0.676-0.098c-0.442,0-0.802,0.104-1.078,0.313c-0.275,0.208-0.493,0.495-0.652,0.859
			c-0.158,0.364-0.267,0.792-0.324,1.281c-0.057,0.489-0.086,1.016-0.086,1.578c0,0.755,0.039,1.397,0.117,1.926
			s0.202,0.96,0.371,1.293c0.17,0.333,0.386,0.575,0.648,0.727c0.264,0.151,0.582,0.227,0.957,0.227c0.292,0,0.549-0.047,0.77-0.141
			c0.222-0.094,0.412-0.228,0.57-0.402c0.159-0.175,0.291-0.384,0.395-0.629c0.104-0.245,0.188-0.516,0.25-0.813
			s0.105-0.618,0.129-0.965S221.08,228.7,221.08,228.325z"/>
		<path d="M227.369,229.364c0,0.203-0.023,0.344-0.07,0.422s-0.114,0.117-0.203,0.117h-3.266c-0.094,0-0.164-0.04-0.211-0.121
			s-0.07-0.22-0.07-0.418s0.023-0.336,0.07-0.414s0.117-0.117,0.211-0.117h3.266c0.042,0,0.08,0.008,0.113,0.023
			c0.034,0.016,0.063,0.046,0.086,0.09s0.042,0.101,0.055,0.168C227.363,229.182,227.369,229.266,227.369,229.364z"/>
		<path d="M235.15,232.778c0,0.099-0.008,0.183-0.023,0.25s-0.036,0.122-0.063,0.164c-0.025,0.042-0.056,0.071-0.09,0.09
			c-0.033,0.019-0.068,0.027-0.105,0.027h-5.281c-0.036,0-0.07-0.009-0.102-0.027s-0.061-0.048-0.09-0.09
			c-0.028-0.042-0.051-0.097-0.066-0.164s-0.023-0.151-0.023-0.25c0-0.094,0.008-0.175,0.023-0.242s0.035-0.124,0.059-0.168
			s0.053-0.078,0.086-0.102c0.034-0.023,0.072-0.035,0.113-0.035h2.109v-7.688l-1.953,1.164c-0.099,0.052-0.178,0.083-0.238,0.094
			c-0.06,0.011-0.107-0.001-0.145-0.035c-0.036-0.034-0.061-0.09-0.074-0.168c-0.013-0.078-0.02-0.177-0.02-0.297
			c0-0.089,0.004-0.164,0.012-0.227s0.02-0.114,0.035-0.156s0.038-0.078,0.066-0.109c0.029-0.031,0.066-0.063,0.113-0.094
			l2.328-1.492c0.021-0.016,0.047-0.028,0.078-0.039s0.07-0.021,0.117-0.031s0.102-0.017,0.164-0.02s0.141-0.004,0.234-0.004
			c0.125,0,0.229,0.005,0.313,0.016c0.084,0.011,0.148,0.024,0.195,0.043s0.078,0.042,0.094,0.07s0.023,0.059,0.023,0.09v8.883
			h1.828c0.042,0,0.081,0.012,0.117,0.035c0.037,0.023,0.066,0.058,0.09,0.102s0.042,0.101,0.055,0.168
			C235.145,232.604,235.15,232.685,235.15,232.778z"/>
		<path d="M243.572,228.231c0,0.776-0.061,1.484-0.184,2.125c-0.122,0.641-0.325,1.191-0.609,1.652
			c-0.283,0.461-0.654,0.817-1.113,1.07c-0.458,0.253-1.023,0.379-1.695,0.379c-0.635,0-1.17-0.113-1.605-0.34
			c-0.435-0.227-0.785-0.56-1.051-1s-0.454-0.981-0.566-1.625c-0.111-0.644-0.168-1.382-0.168-2.215
			c0-0.771,0.063-1.478,0.188-2.121s0.328-1.195,0.609-1.656s0.651-0.817,1.109-1.07c0.459-0.253,1.021-0.379,1.688-0.379
			c0.641,0,1.179,0.113,1.613,0.34c0.436,0.227,0.785,0.56,1.051,1s0.455,0.981,0.566,1.625
			C243.517,226.66,243.572,227.398,243.572,228.231z M242.197,228.325c0-0.505-0.018-0.958-0.055-1.359
			c-0.036-0.401-0.09-0.755-0.16-1.063s-0.161-0.571-0.273-0.793c-0.111-0.222-0.246-0.403-0.402-0.547s-0.334-0.247-0.535-0.313
			c-0.2-0.065-0.426-0.098-0.676-0.098c-0.442,0-0.802,0.104-1.078,0.313c-0.275,0.208-0.493,0.495-0.652,0.859
			c-0.158,0.364-0.267,0.792-0.324,1.281c-0.057,0.489-0.086,1.016-0.086,1.578c0,0.755,0.039,1.397,0.117,1.926
			s0.202,0.96,0.371,1.293c0.17,0.333,0.386,0.575,0.648,0.727c0.264,0.151,0.582,0.227,0.957,0.227c0.292,0,0.549-0.047,0.77-0.141
			c0.222-0.094,0.412-0.228,0.57-0.402c0.159-0.175,0.291-0.384,0.395-0.629c0.104-0.245,0.188-0.516,0.25-0.813
			s0.105-0.618,0.129-0.965S242.197,228.7,242.197,228.325z"/>
		<path d="M251.682,228.231c0,0.776-0.061,1.484-0.184,2.125c-0.121,0.641-0.324,1.191-0.609,1.652
			c-0.283,0.461-0.654,0.817-1.113,1.07c-0.457,0.253-1.023,0.379-1.695,0.379c-0.635,0-1.17-0.113-1.605-0.34
			c-0.434-0.227-0.785-0.56-1.051-1s-0.453-0.981-0.566-1.625c-0.111-0.644-0.168-1.382-0.168-2.215
			c0-0.771,0.063-1.478,0.188-2.121s0.328-1.195,0.609-1.656s0.652-0.817,1.109-1.07c0.459-0.253,1.021-0.379,1.688-0.379
			c0.641,0,1.18,0.113,1.613,0.34c0.436,0.227,0.785,0.56,1.051,1s0.455,0.981,0.566,1.625
			C251.627,226.66,251.682,227.398,251.682,228.231z M250.307,228.325c0-0.505-0.018-0.958-0.055-1.359
			c-0.035-0.401-0.09-0.755-0.16-1.063s-0.16-0.571-0.273-0.793c-0.111-0.222-0.246-0.403-0.402-0.547s-0.334-0.247-0.535-0.313
			c-0.199-0.065-0.426-0.098-0.676-0.098c-0.441,0-0.801,0.104-1.078,0.313c-0.275,0.208-0.492,0.495-0.652,0.859
			c-0.158,0.364-0.266,0.792-0.324,1.281c-0.057,0.489-0.086,1.016-0.086,1.578c0,0.755,0.039,1.397,0.117,1.926
			s0.203,0.96,0.371,1.293c0.17,0.333,0.387,0.575,0.648,0.727c0.264,0.151,0.582,0.227,0.957,0.227c0.293,0,0.549-0.047,0.77-0.141
			c0.223-0.094,0.412-0.228,0.57-0.402c0.16-0.175,0.291-0.384,0.395-0.629c0.105-0.245,0.188-0.516,0.25-0.813
			s0.105-0.618,0.129-0.965S250.307,228.7,250.307,228.325z"/>
		<path d="M262.822,233.106c0,0.042-0.01,0.078-0.031,0.109c-0.02,0.031-0.055,0.058-0.105,0.078
			c-0.049,0.021-0.117,0.036-0.207,0.047c-0.088,0.011-0.199,0.016-0.336,0.016c-0.141,0-0.256-0.004-0.348-0.012
			c-0.09-0.008-0.168-0.021-0.23-0.039s-0.113-0.044-0.152-0.078s-0.074-0.074-0.105-0.121l-2.969-3.891v3.898
			c0,0.042-0.01,0.077-0.031,0.105c-0.02,0.028-0.055,0.054-0.102,0.074s-0.111,0.036-0.195,0.047
			c-0.082,0.011-0.189,0.016-0.32,0.016c-0.125,0-0.229-0.005-0.313-0.016c-0.082-0.011-0.148-0.026-0.199-0.047
			c-0.049-0.021-0.082-0.046-0.102-0.074c-0.018-0.028-0.027-0.063-0.027-0.105v-10.438c0-0.042,0.01-0.078,0.027-0.109
			c0.02-0.031,0.053-0.058,0.102-0.078c0.051-0.021,0.117-0.036,0.199-0.047c0.084-0.011,0.188-0.016,0.313-0.016
			c0.131,0,0.238,0.005,0.32,0.016c0.084,0.011,0.148,0.026,0.195,0.047s0.082,0.047,0.102,0.078
			c0.021,0.031,0.031,0.067,0.031,0.109v6.359l2.656-2.922c0.043-0.052,0.086-0.095,0.133-0.129s0.104-0.063,0.168-0.086
			c0.066-0.023,0.143-0.039,0.23-0.047c0.09-0.008,0.195-0.012,0.32-0.012c0.131,0,0.24,0.004,0.328,0.012
			c0.09,0.008,0.16,0.021,0.215,0.039s0.094,0.042,0.117,0.07s0.035,0.066,0.035,0.113c0,0.063-0.016,0.125-0.051,0.188
			c-0.033,0.063-0.09,0.136-0.168,0.219l-2.547,2.547l2.859,3.711c0.068,0.089,0.117,0.16,0.145,0.215
			C262.809,233.009,262.822,233.06,262.822,233.106z"/>
		<path d="M268.557,233.075c-0.02,0.058-0.049,0.104-0.086,0.141c-0.035,0.036-0.086,0.065-0.152,0.086
			c-0.064,0.021-0.148,0.035-0.25,0.043s-0.227,0.012-0.379,0.012c-0.113,0-0.215-0.001-0.301-0.004s-0.16-0.009-0.223-0.02
			s-0.115-0.022-0.16-0.035c-0.043-0.013-0.082-0.03-0.113-0.051s-0.055-0.046-0.074-0.074c-0.018-0.028-0.035-0.063-0.051-0.105
			l-3.305-9.391c-0.041-0.114-0.063-0.207-0.066-0.277c-0.002-0.07,0.02-0.124,0.066-0.16s0.123-0.06,0.227-0.07
			c0.105-0.011,0.246-0.016,0.422-0.016c0.146,0,0.262,0.004,0.348,0.012s0.152,0.022,0.199,0.043s0.082,0.048,0.105,0.082
			s0.047,0.077,0.066,0.129l2.898,8.508h0.008l2.82-8.492c0.016-0.058,0.035-0.104,0.055-0.141c0.021-0.036,0.059-0.065,0.109-0.086
			c0.053-0.021,0.125-0.035,0.219-0.043s0.219-0.012,0.375-0.012c0.162,0,0.289,0.007,0.383,0.02s0.158,0.038,0.191,0.074
			c0.035,0.036,0.047,0.09,0.039,0.16s-0.031,0.163-0.074,0.277L268.557,233.075z"/>
	</g>
	<g>
		<path d="M45.139,102.702c0,0.041-0.011,0.078-0.031,0.109c-0.021,0.031-0.058,0.056-0.109,0.074
			c-0.052,0.018-0.121,0.033-0.207,0.047c-0.086,0.012-0.191,0.02-0.316,0.02c-0.136,0-0.245-0.008-0.328-0.02
			c-0.083-0.014-0.151-0.029-0.203-0.047c-0.052-0.019-0.089-0.043-0.109-0.074c-0.021-0.031-0.031-0.068-0.031-0.109v-4.484h-4.602
			v4.484c0,0.041-0.011,0.078-0.031,0.109c-0.021,0.031-0.058,0.056-0.109,0.074c-0.052,0.018-0.121,0.033-0.207,0.047
			c-0.086,0.012-0.194,0.02-0.324,0.02c-0.125,0-0.232-0.008-0.32-0.02c-0.089-0.014-0.159-0.029-0.211-0.047
			c-0.052-0.019-0.089-0.043-0.109-0.074c-0.021-0.031-0.031-0.068-0.031-0.109v-9.703c0-0.042,0.01-0.078,0.031-0.109
			c0.021-0.031,0.057-0.057,0.109-0.074c0.052-0.019,0.122-0.034,0.211-0.047c0.088-0.014,0.195-0.02,0.32-0.02
			c0.13,0,0.238,0.006,0.324,0.02c0.086,0.013,0.155,0.028,0.207,0.047c0.052,0.018,0.088,0.043,0.109,0.074
			c0.021,0.031,0.031,0.067,0.031,0.109v4.047h4.602v-4.047c0-0.042,0.01-0.078,0.031-0.109c0.021-0.031,0.057-0.057,0.109-0.074
			c0.052-0.019,0.12-0.034,0.203-0.047c0.083-0.014,0.192-0.02,0.328-0.02c0.125,0,0.23,0.006,0.316,0.02
			c0.086,0.013,0.155,0.028,0.207,0.047c0.052,0.018,0.088,0.043,0.109,0.074c0.021,0.031,0.031,0.067,0.031,0.109V102.702z"/>
		<path d="M53.678,98.89c0,0.203-0.051,0.348-0.153,0.434c-0.102,0.086-0.218,0.129-0.349,0.129h-4.63
			c0,0.391,0.039,0.742,0.118,1.055s0.209,0.58,0.393,0.805c0.183,0.224,0.421,0.396,0.714,0.516c0.293,0.119,0.651,0.18,1.076,0.18
			c0.335,0,0.633-0.027,0.895-0.082s0.488-0.116,0.679-0.184c0.191-0.068,0.348-0.129,0.471-0.184s0.216-0.082,0.279-0.082
			c0.037,0,0.069,0.009,0.098,0.027c0.029,0.018,0.051,0.045,0.067,0.082c0.016,0.036,0.027,0.087,0.035,0.152
			c0.008,0.064,0.012,0.145,0.012,0.238c0,0.067-0.003,0.126-0.008,0.176c-0.005,0.049-0.012,0.094-0.02,0.133
			s-0.021,0.074-0.039,0.105c-0.019,0.031-0.042,0.061-0.07,0.09c-0.029,0.028-0.113,0.075-0.254,0.141
			c-0.141,0.064-0.323,0.129-0.547,0.191c-0.224,0.063-0.483,0.117-0.777,0.168c-0.294,0.049-0.608,0.074-0.941,0.074
			c-0.578,0-1.085-0.082-1.52-0.242c-0.435-0.162-0.801-0.401-1.098-0.719c-0.297-0.318-0.521-0.717-0.672-1.195
			c-0.151-0.479-0.227-1.037-0.227-1.672c0-0.604,0.078-1.147,0.234-1.629c0.156-0.482,0.381-0.891,0.676-1.227
			c0.294-0.336,0.649-0.594,1.066-0.773c0.417-0.18,0.883-0.27,1.398-0.27c0.552,0,1.022,0.088,1.41,0.266
			c0.388,0.177,0.707,0.415,0.957,0.715c0.25,0.299,0.434,0.65,0.551,1.055c0.117,0.403,0.176,0.834,0.176,1.293V98.89z
			 M52.381,98.507c0.016-0.678-0.135-1.209-0.452-1.594c-0.317-0.386-0.787-0.578-1.411-0.578c-0.32,0-0.6,0.06-0.841,0.18
			c-0.241,0.119-0.443,0.278-0.605,0.477c-0.162,0.197-0.288,0.428-0.377,0.691c-0.089,0.263-0.139,0.537-0.149,0.824H52.381z"/>
		<path d="M57.076,93.304c0,0.302-0.058,0.508-0.172,0.617c-0.115,0.109-0.326,0.164-0.633,0.164c-0.302,0-0.509-0.054-0.621-0.16
			c-0.112-0.107-0.168-0.309-0.168-0.605c0-0.303,0.057-0.508,0.172-0.617c0.114-0.109,0.325-0.164,0.633-0.164
			c0.302,0,0.509,0.053,0.621,0.16C57.02,92.805,57.076,93.007,57.076,93.304z M56.928,102.71c0,0.041-0.011,0.076-0.031,0.105
			c-0.021,0.028-0.055,0.053-0.102,0.074c-0.047,0.02-0.112,0.035-0.195,0.047c-0.083,0.01-0.19,0.016-0.32,0.016
			c-0.125,0-0.229-0.006-0.313-0.016c-0.083-0.012-0.15-0.027-0.199-0.047c-0.05-0.021-0.083-0.046-0.102-0.074
			c-0.019-0.029-0.027-0.064-0.027-0.105v-7.031c0-0.037,0.009-0.07,0.027-0.102c0.018-0.031,0.052-0.058,0.102-0.078
			c0.049-0.021,0.116-0.037,0.199-0.047c0.083-0.011,0.188-0.016,0.313-0.016c0.13,0,0.237,0.005,0.32,0.016
			c0.083,0.01,0.148,0.025,0.195,0.047c0.047,0.021,0.081,0.047,0.102,0.078c0.021,0.031,0.031,0.064,0.031,0.102V102.71z"/>
		<path d="M63.795,102.358c0,0.099-0.008,0.184-0.023,0.254s-0.034,0.127-0.055,0.172c-0.021,0.044-0.05,0.075-0.086,0.094
			c-0.037,0.018-0.076,0.027-0.117,0.027h-4.328c-0.109,0-0.199-0.037-0.27-0.109c-0.07-0.073-0.105-0.195-0.105-0.367v-0.266
			c0-0.073,0.005-0.139,0.016-0.195c0.01-0.058,0.026-0.115,0.047-0.172c0.021-0.058,0.049-0.119,0.086-0.184
			c0.036-0.065,0.081-0.14,0.133-0.223l3.102-4.828h-3.008c-0.083,0-0.15-0.043-0.199-0.129c-0.05-0.086-0.074-0.226-0.074-0.418
			c0-0.094,0.005-0.176,0.016-0.246c0.01-0.07,0.027-0.128,0.051-0.172c0.023-0.045,0.052-0.076,0.086-0.094
			c0.034-0.019,0.074-0.027,0.121-0.027h4.031c0.057,0,0.108,0.008,0.152,0.023c0.044,0.016,0.082,0.041,0.113,0.078
			c0.031,0.036,0.056,0.083,0.074,0.141c0.018,0.057,0.027,0.13,0.027,0.219v0.25c0,0.072-0.005,0.141-0.016,0.203
			c-0.011,0.063-0.026,0.123-0.047,0.184c-0.021,0.06-0.05,0.123-0.086,0.191c-0.037,0.067-0.081,0.143-0.133,0.227l-3.086,4.828
			h3.297c0.042,0,0.079,0.009,0.113,0.027c0.034,0.018,0.063,0.048,0.086,0.09c0.023,0.041,0.043,0.098,0.059,0.168
			S63.795,102.259,63.795,102.358z"/>
		<path d="M68.795,98.96c0,0.203-0.023,0.344-0.07,0.422s-0.115,0.117-0.203,0.117h-3.266c-0.094,0-0.164-0.041-0.211-0.121
			c-0.047-0.081-0.07-0.221-0.07-0.418c0-0.198,0.023-0.336,0.07-0.414s0.117-0.117,0.211-0.117h3.266
			c0.042,0,0.079,0.008,0.113,0.023c0.034,0.016,0.063,0.045,0.086,0.09c0.023,0.044,0.042,0.1,0.055,0.168
			C68.788,98.777,68.795,98.86,68.795,98.96z"/>
		<path d="M11.529,119.269c0,0.475-0.087,0.896-0.262,1.266c-0.175,0.371-0.417,0.684-0.727,0.941
			c-0.31,0.258-0.675,0.453-1.094,0.582c-0.419,0.131-0.871,0.195-1.355,0.195c-0.339,0-0.652-0.028-0.941-0.086
			c-0.289-0.057-0.547-0.127-0.773-0.211c-0.227-0.082-0.417-0.168-0.57-0.258c-0.154-0.088-0.261-0.164-0.32-0.227
			c-0.06-0.063-0.104-0.141-0.133-0.238c-0.029-0.096-0.043-0.225-0.043-0.387c0-0.113,0.005-0.209,0.016-0.285
			c0.01-0.074,0.026-0.137,0.047-0.184c0.021-0.047,0.047-0.078,0.078-0.098c0.031-0.018,0.067-0.027,0.109-0.027
			c0.073,0,0.176,0.045,0.309,0.133c0.133,0.09,0.303,0.186,0.512,0.289c0.208,0.105,0.459,0.203,0.754,0.293
			c0.294,0.092,0.634,0.137,1.02,0.137c0.292,0,0.559-0.039,0.801-0.117s0.45-0.188,0.625-0.332
			c0.174-0.143,0.309-0.318,0.402-0.527c0.094-0.207,0.141-0.445,0.141-0.711c0-0.285-0.065-0.531-0.195-0.734
			c-0.13-0.203-0.302-0.381-0.516-0.535c-0.214-0.152-0.457-0.293-0.73-0.422c-0.273-0.127-0.554-0.258-0.84-0.391
			c-0.287-0.133-0.565-0.279-0.836-0.441c-0.271-0.16-0.513-0.352-0.727-0.57c-0.214-0.219-0.387-0.475-0.52-0.77
			c-0.133-0.293-0.199-0.646-0.199-1.059c0-0.422,0.077-0.797,0.23-1.129c0.153-0.33,0.367-0.607,0.641-0.832
			c0.273-0.223,0.599-0.395,0.977-0.512c0.377-0.117,0.785-0.176,1.223-0.176c0.224,0,0.449,0.02,0.676,0.059
			s0.44,0.092,0.641,0.156c0.2,0.066,0.379,0.139,0.535,0.219c0.156,0.082,0.259,0.146,0.309,0.195
			c0.049,0.051,0.082,0.09,0.098,0.117c0.016,0.029,0.028,0.066,0.039,0.109c0.01,0.045,0.018,0.098,0.023,0.16
			c0.005,0.063,0.008,0.145,0.008,0.242c0,0.094-0.004,0.178-0.012,0.25c-0.008,0.074-0.02,0.135-0.035,0.184
			c-0.016,0.051-0.038,0.086-0.066,0.109c-0.029,0.023-0.062,0.035-0.098,0.035c-0.058,0-0.147-0.035-0.27-0.109
			c-0.123-0.072-0.272-0.154-0.449-0.246c-0.177-0.09-0.387-0.174-0.629-0.25c-0.242-0.074-0.515-0.113-0.816-0.113
			c-0.281,0-0.526,0.039-0.734,0.113c-0.208,0.076-0.38,0.176-0.516,0.301c-0.136,0.125-0.237,0.273-0.305,0.445
			c-0.068,0.172-0.102,0.355-0.102,0.547c0,0.281,0.065,0.523,0.195,0.727c0.13,0.203,0.303,0.383,0.52,0.539
			c0.216,0.156,0.462,0.301,0.738,0.43c0.276,0.131,0.557,0.262,0.844,0.395c0.286,0.133,0.567,0.279,0.844,0.438
			c0.276,0.16,0.522,0.348,0.738,0.563c0.216,0.217,0.391,0.473,0.523,0.766C11.463,118.521,11.529,118.868,11.529,119.269z"/>
		<path d="M19.771,118.284c0,0.615-0.066,1.168-0.199,1.656c-0.133,0.49-0.328,0.906-0.586,1.246
			c-0.258,0.342-0.577,0.605-0.957,0.789c-0.38,0.186-0.815,0.277-1.305,0.277c-0.208,0-0.401-0.021-0.578-0.063
			c-0.177-0.041-0.351-0.105-0.52-0.195c-0.169-0.088-0.337-0.199-0.504-0.336c-0.167-0.135-0.344-0.293-0.531-0.477v3.516
			c0,0.042-0.011,0.078-0.031,0.109c-0.021,0.031-0.055,0.058-0.102,0.078c-0.047,0.021-0.112,0.037-0.195,0.047
			c-0.083,0.011-0.19,0.016-0.32,0.016c-0.125,0-0.229-0.005-0.313-0.016c-0.083-0.01-0.15-0.025-0.199-0.047
			c-0.05-0.021-0.083-0.047-0.102-0.078c-0.019-0.031-0.027-0.067-0.027-0.109v-9.82c0-0.047,0.008-0.084,0.023-0.113
			c0.016-0.027,0.047-0.053,0.094-0.074c0.047-0.02,0.106-0.035,0.18-0.043c0.073-0.008,0.161-0.012,0.266-0.012
			c0.109,0,0.199,0.004,0.27,0.012s0.129,0.023,0.176,0.043c0.047,0.021,0.079,0.047,0.098,0.074
			c0.018,0.029,0.027,0.066,0.027,0.113v0.945c0.213-0.219,0.419-0.408,0.617-0.57c0.198-0.16,0.397-0.295,0.598-0.402
			c0.2-0.105,0.406-0.188,0.617-0.242s0.434-0.082,0.668-0.082c0.51,0,0.945,0.1,1.305,0.297c0.359,0.199,0.652,0.469,0.879,0.813
			s0.392,0.744,0.496,1.199C19.719,117.292,19.771,117.774,19.771,118.284z M18.436,118.433c0-0.359-0.027-0.707-0.083-1.043
			s-0.149-0.633-0.283-0.895c-0.134-0.26-0.313-0.469-0.539-0.625c-0.226-0.156-0.506-0.234-0.841-0.234
			c-0.167,0-0.333,0.025-0.495,0.074c-0.163,0.051-0.328,0.129-0.495,0.234c-0.168,0.107-0.343,0.248-0.527,0.422
			c-0.183,0.176-0.377,0.391-0.582,0.645v2.797c0.356,0.434,0.694,0.764,1.014,0.992c0.319,0.23,0.655,0.344,1.006,0.344
			c0.325,0,0.604-0.078,0.837-0.234c0.233-0.156,0.422-0.363,0.566-0.625c0.144-0.26,0.25-0.551,0.318-0.875
			C18.401,119.087,18.436,118.761,18.436,118.433z"/>
		<path d="M27.006,121.917c0,0.063-0.021,0.109-0.063,0.141c-0.042,0.031-0.099,0.055-0.172,0.07
			c-0.073,0.016-0.18,0.023-0.32,0.023c-0.136,0-0.244-0.008-0.324-0.023c-0.081-0.016-0.14-0.039-0.176-0.07
			c-0.037-0.031-0.055-0.078-0.055-0.141v-0.703c-0.308,0.328-0.65,0.584-1.027,0.766c-0.378,0.183-0.777,0.273-1.199,0.273
			c-0.37,0-0.705-0.048-1.004-0.145c-0.3-0.096-0.555-0.234-0.766-0.418c-0.211-0.182-0.375-0.406-0.492-0.672
			s-0.176-0.566-0.176-0.906c0-0.395,0.081-0.738,0.242-1.031c0.161-0.291,0.393-0.533,0.695-0.727
			c0.302-0.191,0.672-0.336,1.109-0.434c0.438-0.096,0.93-0.145,1.477-0.145h0.969v-0.547c0-0.27-0.029-0.51-0.086-0.719
			c-0.058-0.207-0.15-0.381-0.277-0.52c-0.128-0.137-0.293-0.242-0.496-0.313s-0.453-0.105-0.75-0.105
			c-0.318,0-0.603,0.039-0.855,0.113c-0.253,0.076-0.474,0.16-0.664,0.25c-0.19,0.092-0.349,0.176-0.477,0.25
			c-0.128,0.076-0.223,0.113-0.285,0.113c-0.042,0-0.078-0.01-0.109-0.031c-0.031-0.02-0.059-0.051-0.082-0.094
			c-0.023-0.041-0.041-0.094-0.051-0.16c-0.011-0.064-0.016-0.137-0.016-0.215c0-0.129,0.009-0.232,0.027-0.309
			c0.018-0.074,0.063-0.146,0.133-0.215c0.07-0.066,0.191-0.146,0.363-0.238c0.172-0.09,0.37-0.174,0.594-0.25
			c0.224-0.074,0.469-0.137,0.734-0.188c0.266-0.049,0.534-0.074,0.805-0.074c0.505,0,0.935,0.059,1.289,0.172
			c0.354,0.115,0.641,0.283,0.859,0.504c0.219,0.223,0.377,0.496,0.477,0.824c0.099,0.328,0.148,0.711,0.148,1.148V121.917z
			 M25.725,118.706h-1.102c-0.354,0-0.662,0.031-0.922,0.09c-0.261,0.061-0.477,0.148-0.648,0.266s-0.298,0.258-0.379,0.422
			c-0.081,0.164-0.121,0.354-0.121,0.566c0,0.365,0.116,0.656,0.348,0.871c0.231,0.217,0.556,0.324,0.973,0.324
			c0.338,0,0.652-0.086,0.941-0.258s0.592-0.434,0.91-0.789V118.706z"/>
		<path d="M35.428,121.909c0,0.043-0.011,0.078-0.031,0.105c-0.021,0.029-0.055,0.055-0.102,0.074
			c-0.047,0.021-0.112,0.037-0.195,0.047c-0.083,0.011-0.188,0.016-0.313,0.016c-0.13,0-0.237-0.005-0.32-0.016
			c-0.083-0.01-0.148-0.025-0.195-0.047c-0.047-0.02-0.081-0.045-0.102-0.074c-0.021-0.027-0.031-0.063-0.031-0.105v-4.117
			c0-0.4-0.031-0.723-0.094-0.969c-0.063-0.244-0.154-0.455-0.273-0.633c-0.12-0.176-0.275-0.313-0.465-0.406
			c-0.19-0.094-0.41-0.141-0.66-0.141c-0.323,0-0.646,0.115-0.969,0.344c-0.323,0.23-0.662,0.566-1.016,1.008v4.914
			c0,0.043-0.011,0.078-0.031,0.105c-0.021,0.029-0.055,0.055-0.102,0.074c-0.047,0.021-0.112,0.037-0.195,0.047
			c-0.083,0.011-0.19,0.016-0.32,0.016c-0.125,0-0.229-0.005-0.313-0.016c-0.083-0.01-0.15-0.025-0.199-0.047
			c-0.05-0.02-0.083-0.045-0.102-0.074c-0.019-0.027-0.027-0.063-0.027-0.105v-7.031c0-0.041,0.008-0.076,0.023-0.105
			c0.016-0.027,0.047-0.055,0.094-0.078s0.106-0.039,0.18-0.047c0.073-0.008,0.169-0.012,0.289-0.012
			c0.114,0,0.209,0.004,0.285,0.012c0.075,0.008,0.134,0.023,0.176,0.047c0.042,0.023,0.071,0.051,0.09,0.078
			c0.018,0.029,0.027,0.064,0.027,0.105v0.93c0.396-0.441,0.79-0.766,1.184-0.973c0.393-0.205,0.79-0.309,1.191-0.309
			c0.469,0,0.863,0.08,1.184,0.238c0.32,0.16,0.579,0.371,0.777,0.637c0.198,0.266,0.34,0.578,0.426,0.934
			c0.086,0.357,0.129,0.785,0.129,1.285V121.909z"/>
		<path d="M43.834,121.909c0,0.043-0.011,0.078-0.031,0.105c-0.021,0.029-0.055,0.055-0.102,0.074
			c-0.047,0.021-0.112,0.037-0.195,0.047c-0.083,0.011-0.188,0.016-0.313,0.016c-0.13,0-0.237-0.005-0.32-0.016
			c-0.083-0.01-0.148-0.025-0.195-0.047c-0.047-0.02-0.081-0.045-0.102-0.074c-0.021-0.027-0.031-0.063-0.031-0.105v-4.117
			c0-0.4-0.031-0.723-0.094-0.969c-0.063-0.244-0.154-0.455-0.273-0.633c-0.12-0.176-0.275-0.313-0.465-0.406
			c-0.19-0.094-0.41-0.141-0.66-0.141c-0.323,0-0.646,0.115-0.969,0.344c-0.323,0.23-0.662,0.566-1.016,1.008v4.914
			c0,0.043-0.011,0.078-0.031,0.105c-0.021,0.029-0.055,0.055-0.102,0.074c-0.047,0.021-0.112,0.037-0.195,0.047
			c-0.083,0.011-0.19,0.016-0.32,0.016c-0.125,0-0.229-0.005-0.313-0.016c-0.083-0.01-0.15-0.025-0.199-0.047
			c-0.05-0.02-0.083-0.045-0.102-0.074c-0.019-0.027-0.027-0.063-0.027-0.105v-7.031c0-0.041,0.008-0.076,0.023-0.105
			c0.016-0.027,0.047-0.055,0.094-0.078s0.106-0.039,0.18-0.047c0.073-0.008,0.169-0.012,0.289-0.012
			c0.114,0,0.209,0.004,0.285,0.012c0.075,0.008,0.134,0.023,0.176,0.047c0.042,0.023,0.071,0.051,0.09,0.078
			c0.018,0.029,0.027,0.064,0.027,0.105v0.93c0.396-0.441,0.79-0.766,1.184-0.973c0.393-0.205,0.79-0.309,1.191-0.309
			c0.469,0,0.863,0.08,1.184,0.238c0.32,0.16,0.579,0.371,0.777,0.637c0.198,0.266,0.34,0.578,0.426,0.934
			c0.086,0.357,0.129,0.785,0.129,1.285V121.909z"/>
		<path d="M52.209,121.909c0,0.043-0.009,0.078-0.027,0.105c-0.019,0.029-0.051,0.055-0.098,0.074
			c-0.047,0.021-0.108,0.037-0.184,0.047c-0.076,0.011-0.168,0.016-0.277,0.016c-0.12,0-0.218-0.005-0.293-0.016
			c-0.076-0.01-0.136-0.025-0.18-0.047c-0.044-0.02-0.074-0.045-0.09-0.074c-0.016-0.027-0.023-0.063-0.023-0.105v-0.93
			c-0.401,0.443-0.797,0.766-1.188,0.969s-0.787,0.305-1.188,0.305c-0.469,0-0.863-0.078-1.184-0.234s-0.58-0.367-0.777-0.637
			c-0.198-0.268-0.34-0.58-0.426-0.938c-0.086-0.355-0.129-0.789-0.129-1.301v-4.266c0-0.041,0.009-0.076,0.027-0.105
			c0.018-0.027,0.053-0.055,0.105-0.078c0.052-0.023,0.12-0.039,0.203-0.047c0.083-0.008,0.188-0.012,0.313-0.012
			s0.229,0.004,0.313,0.012c0.083,0.008,0.149,0.023,0.199,0.047c0.049,0.023,0.084,0.051,0.105,0.078
			c0.021,0.029,0.031,0.064,0.031,0.105v4.094c0,0.412,0.03,0.742,0.09,0.988c0.06,0.248,0.151,0.459,0.273,0.633
			c0.122,0.176,0.277,0.311,0.465,0.406c0.188,0.098,0.406,0.145,0.656,0.145c0.323,0,0.645-0.113,0.965-0.344
			c0.32-0.229,0.66-0.564,1.02-1.008v-4.914c0-0.041,0.009-0.076,0.027-0.105c0.018-0.027,0.053-0.055,0.105-0.078
			c0.052-0.023,0.118-0.039,0.199-0.047c0.081-0.008,0.186-0.012,0.316-0.012c0.125,0,0.229,0.004,0.313,0.012
			c0.083,0.008,0.148,0.023,0.195,0.047s0.082,0.051,0.105,0.078c0.023,0.029,0.035,0.064,0.035,0.105V121.909z"/>
		<path d="M60.646,121.909c0,0.043-0.011,0.078-0.031,0.105c-0.021,0.029-0.055,0.055-0.102,0.074
			c-0.047,0.021-0.112,0.037-0.195,0.047c-0.083,0.011-0.188,0.016-0.313,0.016c-0.13,0-0.237-0.005-0.32-0.016
			c-0.083-0.01-0.148-0.025-0.195-0.047c-0.047-0.02-0.081-0.045-0.102-0.074c-0.021-0.027-0.031-0.063-0.031-0.105v-4.117
			c0-0.4-0.031-0.723-0.094-0.969c-0.063-0.244-0.154-0.455-0.273-0.633c-0.12-0.176-0.275-0.313-0.465-0.406
			c-0.19-0.094-0.41-0.141-0.66-0.141c-0.323,0-0.646,0.115-0.969,0.344c-0.323,0.23-0.662,0.566-1.016,1.008v4.914
			c0,0.043-0.011,0.078-0.031,0.105c-0.021,0.029-0.055,0.055-0.102,0.074c-0.047,0.021-0.112,0.037-0.195,0.047
			c-0.083,0.011-0.19,0.016-0.32,0.016c-0.125,0-0.229-0.005-0.313-0.016c-0.083-0.01-0.15-0.025-0.199-0.047
			c-0.05-0.02-0.083-0.045-0.102-0.074c-0.019-0.027-0.027-0.063-0.027-0.105v-7.031c0-0.041,0.008-0.076,0.023-0.105
			c0.016-0.027,0.047-0.055,0.094-0.078s0.106-0.039,0.18-0.047c0.073-0.008,0.169-0.012,0.289-0.012
			c0.114,0,0.209,0.004,0.285,0.012c0.075,0.008,0.134,0.023,0.176,0.047c0.042,0.023,0.071,0.051,0.09,0.078
			c0.018,0.029,0.027,0.064,0.027,0.105v0.93c0.396-0.441,0.79-0.766,1.184-0.973c0.393-0.205,0.79-0.309,1.191-0.309
			c0.469,0,0.863,0.08,1.184,0.238c0.32,0.16,0.579,0.371,0.777,0.637c0.198,0.266,0.34,0.578,0.426,0.934
			c0.086,0.357,0.129,0.785,0.129,1.285V121.909z"/>
		<path d="M68.873,115.198c0,0.184-0.025,0.314-0.074,0.395c-0.05,0.082-0.113,0.121-0.191,0.121H67.6
			c0.182,0.188,0.31,0.395,0.383,0.621c0.073,0.227,0.109,0.463,0.109,0.707c0,0.406-0.065,0.766-0.195,1.078
			c-0.13,0.313-0.316,0.578-0.559,0.793c-0.242,0.217-0.53,0.383-0.863,0.496c-0.333,0.115-0.703,0.172-1.109,0.172
			c-0.287,0-0.559-0.037-0.816-0.113c-0.258-0.074-0.457-0.17-0.598-0.285c-0.094,0.094-0.171,0.201-0.23,0.32
			c-0.06,0.121-0.09,0.258-0.09,0.414c0,0.184,0.084,0.334,0.254,0.453c0.169,0.121,0.395,0.186,0.676,0.195l1.836,0.078
			c0.349,0.012,0.669,0.059,0.961,0.145c0.292,0.086,0.544,0.209,0.758,0.367c0.213,0.16,0.38,0.355,0.5,0.586
			c0.12,0.232,0.18,0.502,0.18,0.809c0,0.323-0.068,0.631-0.203,0.922c-0.136,0.292-0.343,0.549-0.621,0.77
			c-0.279,0.222-0.634,0.396-1.066,0.523c-0.433,0.128-0.943,0.191-1.531,0.191c-0.568,0-1.051-0.048-1.449-0.145
			c-0.398-0.096-0.726-0.228-0.98-0.395c-0.255-0.166-0.44-0.365-0.555-0.598c-0.115-0.231-0.172-0.482-0.172-0.754
			c0-0.172,0.021-0.338,0.063-0.5c0.042-0.161,0.105-0.314,0.191-0.461c0.086-0.145,0.192-0.285,0.32-0.418
			c0.127-0.133,0.274-0.264,0.441-0.395c-0.255-0.129-0.444-0.293-0.566-0.492c-0.123-0.197-0.184-0.41-0.184-0.641
			c0-0.316,0.065-0.602,0.195-0.852c0.13-0.25,0.292-0.473,0.484-0.672c-0.162-0.191-0.289-0.41-0.383-0.652
			s-0.141-0.535-0.141-0.879c0-0.4,0.067-0.76,0.203-1.078c0.135-0.316,0.323-0.586,0.563-0.805
			c0.239-0.219,0.527-0.387,0.863-0.504s0.702-0.176,1.098-0.176c0.213,0,0.413,0.012,0.598,0.035
			c0.185,0.023,0.358,0.057,0.52,0.098h2.125c0.088,0,0.155,0.043,0.199,0.129C68.851,114.89,68.873,115.022,68.873,115.198z
			 M67.506,122.62c0-0.302-0.124-0.535-0.371-0.699c-0.248-0.164-0.582-0.25-1.004-0.262l-1.82-0.063
			c-0.167,0.131-0.304,0.254-0.41,0.371c-0.107,0.117-0.191,0.229-0.254,0.336c-0.063,0.107-0.105,0.213-0.129,0.316
			c-0.023,0.104-0.035,0.211-0.035,0.32c0,0.339,0.172,0.596,0.516,0.77c0.344,0.175,0.823,0.262,1.438,0.262
			c0.391,0,0.717-0.037,0.98-0.113c0.263-0.075,0.475-0.176,0.637-0.301c0.161-0.125,0.277-0.268,0.348-0.43
			C67.471,122.967,67.506,122.798,67.506,122.62z M66.857,117.05c0-0.479-0.132-0.852-0.395-1.121
			c-0.263-0.268-0.637-0.402-1.121-0.402c-0.25,0-0.468,0.043-0.652,0.125c-0.185,0.084-0.339,0.199-0.461,0.344
			c-0.123,0.146-0.214,0.314-0.273,0.504c-0.06,0.191-0.09,0.391-0.09,0.598c0,0.465,0.131,0.828,0.395,1.094
			c0.263,0.266,0.631,0.398,1.105,0.398c0.255,0,0.477-0.039,0.664-0.121c0.188-0.08,0.342-0.191,0.465-0.336
			c0.122-0.143,0.213-0.309,0.273-0.496C66.827,117.448,66.857,117.253,66.857,117.05z"/>
	</g>
	<g>
		<path d="M241.832,7.784c0,0.359-0.051,0.701-0.152,1.023c-0.102,0.323-0.255,0.62-0.461,0.891
			c-0.206,0.271-0.464,0.512-0.773,0.723s-0.671,0.382-1.082,0.512c0.276,0.099,0.5,0.308,0.672,0.625
			c0.172,0.318,0.305,0.737,0.398,1.258l0.414,2.234c0.016,0.099,0.03,0.191,0.043,0.277s0.02,0.163,0.02,0.23
			c0,0.047-0.013,0.087-0.039,0.121c-0.026,0.034-0.067,0.062-0.125,0.082s-0.137,0.036-0.238,0.047
			c-0.102,0.01-0.226,0.016-0.371,0.016c-0.136,0-0.245-0.005-0.328-0.016c-0.083-0.011-0.147-0.029-0.191-0.055
			s-0.075-0.059-0.094-0.098s-0.032-0.092-0.043-0.16l-0.398-2.375c-0.042-0.276-0.101-0.526-0.176-0.75
			c-0.075-0.224-0.181-0.418-0.316-0.582s-0.309-0.292-0.52-0.383c-0.211-0.091-0.468-0.137-0.77-0.137h-0.898l-0.867,4.313
			c-0.011,0.037-0.028,0.07-0.055,0.102s-0.067,0.056-0.125,0.074c-0.058,0.019-0.13,0.034-0.219,0.047
			c-0.089,0.013-0.198,0.02-0.328,0.02c-0.12,0-0.223-0.005-0.309-0.016c-0.086-0.011-0.152-0.025-0.199-0.043
			s-0.079-0.043-0.098-0.074s-0.022-0.067-0.012-0.109l1.875-9.367c0.042-0.203,0.125-0.345,0.25-0.426
			c0.125-0.081,0.263-0.121,0.414-0.121h2.195c0.479,0,0.899,0.047,1.262,0.141s0.665,0.23,0.91,0.41s0.429,0.401,0.551,0.664
			C241.771,7.145,241.832,7.445,241.832,7.784z M240.379,7.995c0-0.177-0.031-0.341-0.094-0.492
			c-0.063-0.151-0.16-0.281-0.293-0.391s-0.308-0.192-0.523-0.25c-0.216-0.057-0.473-0.086-0.77-0.086h-1.398l-0.688,3.406h1.188
			c0.464,0,0.858-0.063,1.184-0.188s0.591-0.29,0.797-0.496c0.206-0.206,0.356-0.438,0.453-0.699
			C240.331,8.539,240.379,8.271,240.379,7.995z"/>
		<path d="M249.527,10.877c0,0.386-0.036,0.779-0.109,1.18c-0.073,0.401-0.184,0.788-0.332,1.16
			c-0.148,0.373-0.337,0.723-0.566,1.051s-0.499,0.615-0.809,0.859c-0.31,0.245-0.661,0.439-1.055,0.582s-0.832,0.215-1.316,0.215
			c-0.5,0-0.929-0.06-1.285-0.18s-0.649-0.294-0.879-0.523c-0.229-0.229-0.398-0.51-0.508-0.844
			c-0.109-0.333-0.164-0.711-0.164-1.133c0-0.385,0.035-0.778,0.105-1.18c0.07-0.401,0.181-0.786,0.332-1.156
			c0.151-0.37,0.34-0.72,0.566-1.051c0.227-0.331,0.495-0.618,0.805-0.863c0.31-0.245,0.661-0.438,1.055-0.582
			c0.394-0.143,0.832-0.215,1.316-0.215c0.5,0,0.929,0.062,1.285,0.184c0.356,0.123,0.651,0.298,0.883,0.527
			c0.231,0.229,0.402,0.511,0.512,0.844C249.473,10.086,249.527,10.461,249.527,10.877z M248.168,10.956
			c0-0.26-0.027-0.495-0.082-0.703c-0.055-0.208-0.146-0.384-0.273-0.527c-0.128-0.143-0.294-0.254-0.5-0.332
			s-0.454-0.117-0.746-0.117c-0.313,0-0.597,0.056-0.852,0.168c-0.255,0.112-0.483,0.263-0.684,0.453
			c-0.2,0.19-0.375,0.413-0.523,0.668c-0.148,0.255-0.271,0.527-0.367,0.816s-0.168,0.586-0.215,0.891s-0.07,0.603-0.07,0.895
			c0,0.261,0.028,0.495,0.086,0.703c0.058,0.208,0.149,0.386,0.277,0.531c0.128,0.146,0.293,0.258,0.496,0.336
			s0.45,0.117,0.742,0.117c0.317,0,0.603-0.056,0.855-0.168c0.253-0.112,0.479-0.264,0.68-0.457c0.2-0.192,0.375-0.417,0.523-0.672
			c0.148-0.255,0.271-0.528,0.367-0.82c0.097-0.292,0.168-0.588,0.215-0.891C248.145,11.544,248.168,11.248,248.168,10.956z
			 M246.473,6.276c-0.021,0.141-0.052,0.259-0.094,0.355c-0.042,0.097-0.097,0.172-0.164,0.227s-0.151,0.094-0.25,0.117
			s-0.214,0.035-0.344,0.035c-0.141,0-0.255-0.012-0.344-0.035s-0.156-0.063-0.203-0.117s-0.073-0.13-0.078-0.227
			c-0.005-0.096,0.003-0.215,0.023-0.355s0.051-0.258,0.09-0.352s0.093-0.169,0.16-0.227c0.067-0.057,0.149-0.098,0.246-0.121
			s0.212-0.035,0.348-0.035s0.247,0.012,0.336,0.035s0.157,0.064,0.207,0.121c0.05,0.058,0.078,0.133,0.086,0.227
			S246.493,6.135,246.473,6.276z M249.238,6.276c-0.026,0.141-0.06,0.259-0.102,0.355c-0.042,0.097-0.095,0.172-0.16,0.227
			s-0.147,0.094-0.246,0.117s-0.216,0.035-0.352,0.035s-0.247-0.012-0.336-0.035s-0.155-0.063-0.199-0.117s-0.071-0.13-0.082-0.227
			c-0.011-0.096-0.003-0.215,0.023-0.355c0.021-0.141,0.051-0.258,0.09-0.352s0.093-0.169,0.16-0.227
			c0.067-0.057,0.149-0.098,0.246-0.121s0.212-0.035,0.348-0.035s0.247,0.012,0.336,0.035s0.157,0.064,0.207,0.121
			c0.05,0.058,0.078,0.133,0.086,0.227S249.259,6.135,249.238,6.276z"/>
		<path d="M257.48,10.104c0,0.183-0.011,0.362-0.031,0.539c-0.021,0.177-0.05,0.359-0.086,0.547l-0.883,4.391
			c-0.011,0.042-0.027,0.077-0.051,0.105c-0.023,0.029-0.063,0.054-0.117,0.074s-0.124,0.036-0.207,0.047
			c-0.083,0.01-0.19,0.016-0.32,0.016c-0.125,0-0.228-0.005-0.309-0.016c-0.081-0.011-0.144-0.026-0.188-0.047
			s-0.073-0.045-0.086-0.074c-0.013-0.028-0.017-0.063-0.012-0.105l0.867-4.344c0.036-0.161,0.062-0.317,0.074-0.469
			c0.013-0.151,0.02-0.284,0.02-0.398c0-0.317-0.067-0.574-0.203-0.77s-0.362-0.293-0.68-0.293c-0.276,0-0.559,0.08-0.848,0.238
			c-0.289,0.159-0.558,0.378-0.805,0.656c-0.247,0.279-0.469,0.609-0.664,0.992s-0.337,0.798-0.426,1.246l-0.625,3.141
			c-0.011,0.042-0.028,0.077-0.055,0.105c-0.026,0.029-0.065,0.054-0.117,0.074s-0.121,0.036-0.207,0.047
			c-0.086,0.01-0.191,0.016-0.316,0.016c-0.13,0-0.235-0.005-0.316-0.016c-0.081-0.011-0.144-0.026-0.188-0.047
			s-0.073-0.045-0.086-0.074c-0.013-0.028-0.015-0.063-0.004-0.105l1.414-7.039c0.005-0.036,0.02-0.07,0.043-0.102
			s0.06-0.057,0.109-0.078c0.05-0.021,0.112-0.035,0.188-0.043s0.165-0.012,0.27-0.012c0.109,0,0.199,0.004,0.27,0.012
			s0.125,0.022,0.164,0.043c0.039,0.021,0.063,0.047,0.074,0.078s0.013,0.065,0.008,0.102l-0.266,1.344
			c0.078-0.177,0.206-0.364,0.383-0.563c0.177-0.198,0.388-0.38,0.633-0.547c0.245-0.167,0.515-0.305,0.809-0.414
			s0.601-0.164,0.918-0.164c0.349,0,0.641,0.054,0.875,0.16c0.234,0.107,0.425,0.248,0.57,0.422c0.146,0.175,0.25,0.376,0.313,0.605
			C257.449,9.615,257.48,9.854,257.48,10.104z"/>
		<path d="M263.715,8.627c0,0.047-0.003,0.098-0.008,0.152s-0.016,0.111-0.031,0.168c-0.016,0.058-0.036,0.115-0.063,0.172
			c-0.026,0.058-0.054,0.108-0.082,0.152c-0.028,0.044-0.062,0.08-0.098,0.105c-0.036,0.026-0.078,0.039-0.125,0.039h-1.797
			l-0.789,3.922c-0.021,0.109-0.039,0.232-0.055,0.367c-0.016,0.136-0.023,0.248-0.023,0.336c0,0.266,0.056,0.46,0.168,0.582
			c0.112,0.123,0.293,0.184,0.543,0.184c0.141,0,0.263-0.012,0.367-0.035s0.194-0.048,0.27-0.074
			c0.075-0.026,0.142-0.051,0.199-0.074s0.106-0.035,0.148-0.035s0.074,0.015,0.098,0.043c0.023,0.029,0.035,0.082,0.035,0.16
			c0,0.068-0.007,0.142-0.02,0.223c-0.013,0.081-0.03,0.16-0.051,0.238s-0.047,0.148-0.078,0.211s-0.065,0.112-0.102,0.148
			c-0.042,0.037-0.104,0.073-0.188,0.109c-0.083,0.037-0.18,0.069-0.289,0.098c-0.109,0.028-0.226,0.051-0.348,0.066
			s-0.243,0.023-0.363,0.023c-0.292,0-0.544-0.031-0.758-0.094s-0.394-0.16-0.539-0.293s-0.254-0.299-0.324-0.5
			c-0.07-0.2-0.105-0.441-0.105-0.723c0-0.063,0.003-0.131,0.008-0.207c0.005-0.075,0.015-0.155,0.027-0.238
			c0.013-0.083,0.026-0.167,0.039-0.25c0.013-0.083,0.027-0.161,0.043-0.234l0.789-3.953h-0.977c-0.058,0-0.102-0.017-0.133-0.051
			c-0.031-0.034-0.047-0.1-0.047-0.199c0-0.073,0.008-0.157,0.023-0.254c0.016-0.096,0.039-0.186,0.07-0.27
			c0.031-0.083,0.071-0.153,0.121-0.211c0.05-0.057,0.108-0.086,0.176-0.086h0.984l0.336-1.672c0.005-0.036,0.022-0.07,0.051-0.102
			s0.069-0.059,0.121-0.082s0.121-0.04,0.207-0.051c0.086-0.01,0.191-0.016,0.316-0.016s0.228,0.005,0.309,0.016
			c0.081,0.011,0.144,0.027,0.188,0.051s0.073,0.051,0.086,0.082s0.017,0.065,0.012,0.102l-0.336,1.672h1.797
			c0.078,0,0.13,0.029,0.156,0.086C263.702,8.49,263.715,8.555,263.715,8.627z"/>
		<path d="M269.543,16.135c-0.083,0.417-0.218,0.781-0.402,1.094s-0.421,0.571-0.707,0.777c-0.286,0.206-0.626,0.36-1.02,0.465
			c-0.394,0.104-0.84,0.156-1.34,0.156c-0.433,0-0.827-0.043-1.184-0.129s-0.642-0.189-0.855-0.309
			c-0.078-0.052-0.132-0.103-0.16-0.152c-0.028-0.05-0.043-0.113-0.043-0.191c0-0.031,0.001-0.076,0.004-0.133
			c0.003-0.058,0.011-0.115,0.023-0.172c0.013-0.058,0.028-0.117,0.047-0.18s0.042-0.119,0.07-0.168
			c0.028-0.05,0.063-0.089,0.105-0.117c0.042-0.029,0.086-0.043,0.133-0.043c0.063,0,0.141,0.027,0.234,0.082
			s0.219,0.116,0.375,0.184c0.156,0.067,0.351,0.13,0.582,0.188c0.231,0.057,0.517,0.086,0.855,0.086
			c0.281,0,0.535-0.029,0.762-0.086c0.227-0.058,0.425-0.144,0.594-0.258c0.169-0.115,0.308-0.261,0.414-0.438
			c0.106-0.177,0.187-0.388,0.238-0.633c0.089-0.474,0.177-0.867,0.266-1.18s0.161-0.555,0.219-0.727
			c-0.083,0.193-0.216,0.387-0.398,0.582s-0.394,0.375-0.633,0.539s-0.503,0.297-0.789,0.398s-0.578,0.152-0.875,0.152
			c-0.391,0-0.722-0.065-0.992-0.195s-0.488-0.309-0.652-0.535s-0.282-0.495-0.355-0.805c-0.073-0.31-0.109-0.645-0.109-1.004
			c0-0.302,0.028-0.642,0.086-1.02c0.058-0.377,0.148-0.758,0.273-1.141s0.285-0.755,0.48-1.117
			c0.195-0.362,0.431-0.685,0.707-0.969c0.276-0.284,0.595-0.512,0.957-0.684s0.772-0.258,1.23-0.258
			c0.464,0,0.86,0.094,1.191,0.281s0.626,0.445,0.887,0.773l0.148-0.711c0.021-0.083,0.081-0.143,0.18-0.18
			c0.099-0.036,0.253-0.055,0.461-0.055c0.104,0,0.191,0.004,0.262,0.012s0.126,0.022,0.168,0.043
			c0.042,0.021,0.067,0.047,0.078,0.078s0.013,0.065,0.008,0.102L269.543,16.135z M269.418,10.385
			c-0.245-0.359-0.509-0.629-0.793-0.809s-0.603-0.27-0.957-0.27c-0.281,0-0.534,0.065-0.758,0.195
			c-0.224,0.13-0.423,0.304-0.598,0.52c-0.175,0.216-0.327,0.465-0.457,0.746s-0.235,0.569-0.316,0.863
			c-0.081,0.294-0.141,0.586-0.18,0.875s-0.059,0.551-0.059,0.785c0,0.224,0.02,0.43,0.059,0.617s0.102,0.348,0.188,0.48
			s0.198,0.238,0.336,0.316s0.306,0.117,0.504,0.117c0.286,0,0.574-0.079,0.863-0.238c0.289-0.159,0.559-0.379,0.809-0.66
			s0.472-0.613,0.664-0.996s0.336-0.801,0.43-1.254L269.418,10.385z"/>
		<path d="M278.77,9.987c0,0.359-0.083,0.683-0.25,0.969c-0.167,0.287-0.427,0.531-0.781,0.734s-0.808,0.359-1.359,0.469
			s-1.214,0.164-1.984,0.164h-0.828c-0.036,0.172-0.062,0.339-0.074,0.5c-0.013,0.162-0.02,0.313-0.02,0.453
			c0,0.521,0.129,0.919,0.387,1.195c0.258,0.276,0.676,0.414,1.254,0.414c0.333,0,0.633-0.024,0.898-0.074
			c0.266-0.049,0.496-0.103,0.691-0.16c0.195-0.057,0.355-0.11,0.48-0.16c0.125-0.049,0.211-0.074,0.258-0.074
			s0.082,0.017,0.105,0.051c0.023,0.034,0.035,0.082,0.035,0.145c0,0.052-0.005,0.115-0.016,0.188
			c-0.011,0.073-0.026,0.147-0.047,0.223c-0.021,0.076-0.048,0.147-0.082,0.215c-0.034,0.068-0.071,0.125-0.113,0.172
			c-0.063,0.063-0.173,0.124-0.332,0.184c-0.159,0.06-0.348,0.115-0.566,0.164s-0.458,0.09-0.719,0.121s-0.521,0.047-0.781,0.047
			c-0.464,0-0.87-0.052-1.219-0.156s-0.64-0.264-0.871-0.48c-0.231-0.216-0.405-0.485-0.52-0.809
			c-0.114-0.323-0.172-0.703-0.172-1.141c0-0.338,0.032-0.702,0.098-1.09c0.065-0.388,0.168-0.772,0.309-1.152
			c0.141-0.38,0.323-0.745,0.547-1.094c0.224-0.349,0.491-0.656,0.801-0.922s0.668-0.479,1.074-0.641
			c0.406-0.161,0.864-0.242,1.375-0.242c0.438,0,0.809,0.055,1.113,0.164s0.555,0.25,0.75,0.422s0.337,0.363,0.426,0.574
			S278.77,9.779,278.77,9.987z M277.449,10.104c0-0.266-0.104-0.48-0.313-0.645s-0.505-0.246-0.891-0.246
			c-0.339,0-0.638,0.059-0.898,0.176s-0.491,0.275-0.691,0.473c-0.2,0.198-0.372,0.429-0.516,0.691
			c-0.144,0.263-0.259,0.541-0.348,0.832h0.797c0.547,0,1.004-0.034,1.371-0.102c0.367-0.067,0.661-0.16,0.883-0.277
			s0.378-0.254,0.469-0.41S277.449,10.276,277.449,10.104z"/>
		<path d="M286.559,10.104c0,0.183-0.011,0.362-0.031,0.539c-0.021,0.177-0.05,0.359-0.086,0.547l-0.883,4.391
			c-0.011,0.042-0.027,0.077-0.051,0.105c-0.023,0.029-0.063,0.054-0.117,0.074s-0.124,0.036-0.207,0.047
			c-0.083,0.01-0.19,0.016-0.32,0.016c-0.125,0-0.228-0.005-0.309-0.016c-0.081-0.011-0.144-0.026-0.188-0.047
			s-0.073-0.045-0.086-0.074c-0.013-0.028-0.017-0.063-0.012-0.105l0.867-4.344c0.036-0.161,0.062-0.317,0.074-0.469
			c0.013-0.151,0.02-0.284,0.02-0.398c0-0.317-0.067-0.574-0.203-0.77s-0.362-0.293-0.68-0.293c-0.276,0-0.559,0.08-0.848,0.238
			c-0.289,0.159-0.558,0.378-0.805,0.656c-0.247,0.279-0.469,0.609-0.664,0.992s-0.337,0.798-0.426,1.246l-0.625,3.141
			c-0.011,0.042-0.028,0.077-0.055,0.105c-0.026,0.029-0.065,0.054-0.117,0.074s-0.121,0.036-0.207,0.047
			c-0.086,0.01-0.191,0.016-0.316,0.016c-0.13,0-0.235-0.005-0.316-0.016c-0.081-0.011-0.144-0.026-0.188-0.047
			s-0.073-0.045-0.086-0.074c-0.013-0.028-0.015-0.063-0.004-0.105l1.414-7.039c0.005-0.036,0.02-0.07,0.043-0.102
			s0.06-0.057,0.109-0.078c0.05-0.021,0.112-0.035,0.188-0.043s0.165-0.012,0.27-0.012c0.109,0,0.199,0.004,0.27,0.012
			s0.125,0.022,0.164,0.043c0.039,0.021,0.063,0.047,0.074,0.078s0.013,0.065,0.008,0.102l-0.266,1.344
			c0.078-0.177,0.206-0.364,0.383-0.563c0.177-0.198,0.388-0.38,0.633-0.547c0.245-0.167,0.515-0.305,0.809-0.414
			s0.601-0.164,0.918-0.164c0.349,0,0.641,0.054,0.875,0.16c0.234,0.107,0.425,0.248,0.57,0.422c0.146,0.175,0.25,0.376,0.313,0.605
			C286.527,9.615,286.559,9.854,286.559,10.104z"/>
		<path d="M293.246,8.932c0,0.052-0.008,0.121-0.023,0.207s-0.038,0.171-0.066,0.254c-0.028,0.083-0.063,0.154-0.102,0.211
			c-0.039,0.058-0.082,0.086-0.129,0.086c-0.063,0-0.137-0.024-0.223-0.074c-0.086-0.049-0.191-0.105-0.316-0.168
			s-0.274-0.12-0.449-0.172c-0.175-0.052-0.382-0.078-0.621-0.078c-0.229,0-0.433,0.033-0.609,0.098
			c-0.177,0.065-0.325,0.154-0.445,0.266c-0.12,0.112-0.211,0.24-0.273,0.383c-0.063,0.144-0.094,0.293-0.094,0.449
			c0,0.208,0.069,0.382,0.207,0.52c0.138,0.138,0.312,0.262,0.52,0.371s0.434,0.218,0.676,0.324
			c0.242,0.107,0.466,0.237,0.672,0.391c0.206,0.154,0.378,0.339,0.516,0.555c0.138,0.216,0.207,0.488,0.207,0.816
			c0,0.365-0.071,0.705-0.215,1.02c-0.144,0.315-0.349,0.586-0.617,0.813s-0.593,0.404-0.973,0.531s-0.805,0.191-1.273,0.191
			c-0.245,0-0.476-0.019-0.691-0.055c-0.216-0.037-0.411-0.083-0.586-0.141s-0.324-0.121-0.449-0.191s-0.222-0.137-0.289-0.199
			c-0.042-0.042-0.071-0.084-0.09-0.129c-0.019-0.044-0.027-0.098-0.027-0.16c0-0.042,0.003-0.091,0.008-0.148
			c0.005-0.057,0.016-0.117,0.031-0.18s0.032-0.122,0.051-0.18c0.019-0.057,0.04-0.109,0.066-0.156s0.052-0.084,0.078-0.113
			c0.026-0.028,0.058-0.043,0.094-0.043c0.063,0,0.138,0.035,0.227,0.105s0.204,0.146,0.348,0.227
			c0.144,0.081,0.321,0.156,0.535,0.227s0.479,0.105,0.797,0.105c0.286,0,0.532-0.035,0.738-0.105s0.376-0.164,0.512-0.281
			s0.235-0.254,0.301-0.41s0.098-0.32,0.098-0.492c0-0.219-0.067-0.397-0.203-0.535c-0.136-0.138-0.306-0.263-0.512-0.375
			c-0.206-0.112-0.429-0.223-0.668-0.332s-0.462-0.238-0.668-0.387s-0.378-0.331-0.516-0.547c-0.138-0.216-0.207-0.491-0.207-0.824
			c0-0.344,0.067-0.663,0.203-0.957c0.136-0.294,0.327-0.549,0.574-0.766c0.247-0.216,0.544-0.384,0.891-0.504
			c0.347-0.12,0.73-0.18,1.152-0.18c0.198,0,0.39,0.016,0.574,0.047s0.355,0.07,0.512,0.117s0.292,0.099,0.406,0.156
			c0.114,0.058,0.2,0.115,0.258,0.172C293.218,8.742,293.246,8.823,293.246,8.932z"/>
		<path d="M298.996,8.627c0,0.047-0.003,0.098-0.008,0.152s-0.016,0.111-0.031,0.168c-0.016,0.058-0.036,0.115-0.063,0.172
			c-0.026,0.058-0.054,0.108-0.082,0.152c-0.028,0.044-0.062,0.08-0.098,0.105c-0.036,0.026-0.078,0.039-0.125,0.039h-1.797
			l-0.789,3.922c-0.021,0.109-0.039,0.232-0.055,0.367c-0.016,0.136-0.023,0.248-0.023,0.336c0,0.266,0.056,0.46,0.168,0.582
			c0.112,0.123,0.293,0.184,0.543,0.184c0.141,0,0.263-0.012,0.367-0.035s0.194-0.048,0.27-0.074
			c0.075-0.026,0.142-0.051,0.199-0.074s0.106-0.035,0.148-0.035s0.074,0.015,0.098,0.043c0.023,0.029,0.035,0.082,0.035,0.16
			c0,0.068-0.007,0.142-0.02,0.223c-0.013,0.081-0.03,0.16-0.051,0.238s-0.047,0.148-0.078,0.211s-0.065,0.112-0.102,0.148
			c-0.042,0.037-0.104,0.073-0.188,0.109c-0.083,0.037-0.18,0.069-0.289,0.098c-0.109,0.028-0.226,0.051-0.348,0.066
			s-0.243,0.023-0.363,0.023c-0.292,0-0.544-0.031-0.758-0.094s-0.394-0.16-0.539-0.293s-0.254-0.299-0.324-0.5
			c-0.07-0.2-0.105-0.441-0.105-0.723c0-0.063,0.003-0.131,0.008-0.207c0.005-0.075,0.015-0.155,0.027-0.238
			c0.013-0.083,0.026-0.167,0.039-0.25c0.013-0.083,0.027-0.161,0.043-0.234l0.789-3.953h-0.977c-0.058,0-0.102-0.017-0.133-0.051
			c-0.031-0.034-0.047-0.1-0.047-0.199c0-0.073,0.008-0.157,0.023-0.254c0.016-0.096,0.039-0.186,0.07-0.27
			c0.031-0.083,0.071-0.153,0.121-0.211c0.05-0.057,0.108-0.086,0.176-0.086h0.984l0.336-1.672c0.005-0.036,0.022-0.07,0.051-0.102
			s0.069-0.059,0.121-0.082s0.121-0.04,0.207-0.051c0.086-0.01,0.191-0.016,0.316-0.016s0.228,0.005,0.309,0.016
			c0.081,0.011,0.144,0.027,0.188,0.051s0.073,0.051,0.086,0.082s0.017,0.065,0.012,0.102l-0.336,1.672h1.797
			c0.078,0,0.13,0.029,0.156,0.086C298.983,8.49,298.996,8.555,298.996,8.627z"/>
		<path d="M304.707,8.557c0,0.021-0.004,0.062-0.012,0.121c-0.008,0.06-0.017,0.129-0.027,0.207s-0.026,0.159-0.047,0.242
			c-0.021,0.083-0.047,0.16-0.078,0.23s-0.063,0.129-0.098,0.176s-0.071,0.07-0.113,0.07s-0.087-0.009-0.137-0.027
			c-0.05-0.018-0.104-0.04-0.164-0.066c-0.06-0.026-0.129-0.048-0.207-0.066c-0.078-0.018-0.169-0.027-0.273-0.027
			c-0.177,0-0.382,0.077-0.613,0.23c-0.231,0.154-0.46,0.366-0.684,0.637c-0.224,0.271-0.429,0.591-0.613,0.961
			c-0.185,0.37-0.321,0.771-0.41,1.203l-0.617,3.133c-0.011,0.042-0.028,0.077-0.055,0.105c-0.026,0.029-0.065,0.054-0.117,0.074
			s-0.121,0.036-0.207,0.047c-0.086,0.01-0.191,0.016-0.316,0.016c-0.13,0-0.235-0.005-0.316-0.016
			c-0.081-0.011-0.144-0.026-0.188-0.047s-0.073-0.045-0.086-0.074c-0.013-0.028-0.015-0.063-0.004-0.105l1.398-7.039
			c0.005-0.036,0.021-0.07,0.047-0.102s0.065-0.057,0.117-0.078c0.052-0.021,0.116-0.035,0.191-0.043s0.165-0.012,0.27-0.012
			c0.109,0,0.199,0.004,0.27,0.012s0.125,0.022,0.164,0.043c0.039,0.021,0.063,0.047,0.074,0.078s0.013,0.065,0.008,0.102
			l-0.258,1.281c0.12-0.213,0.262-0.419,0.426-0.617c0.164-0.198,0.343-0.371,0.535-0.52s0.395-0.267,0.605-0.355
			c0.211-0.088,0.418-0.133,0.621-0.133c0.089,0,0.179,0.007,0.27,0.02c0.091,0.013,0.176,0.029,0.254,0.047
			c0.078,0.019,0.147,0.039,0.207,0.063s0.105,0.051,0.137,0.082S304.707,8.49,304.707,8.557z"/>
		<path d="M310.645,15.581c-0.021,0.089-0.078,0.151-0.172,0.188s-0.25,0.055-0.469,0.055c-0.104,0-0.19-0.005-0.258-0.016
			c-0.067-0.011-0.122-0.025-0.164-0.043s-0.07-0.042-0.086-0.07c-0.016-0.028-0.016-0.066,0-0.113l0.258-1.328
			c-0.067,0.167-0.19,0.349-0.367,0.547c-0.177,0.198-0.387,0.38-0.629,0.547c-0.242,0.167-0.512,0.305-0.809,0.414
			s-0.599,0.164-0.906,0.164c-0.417,0-0.762-0.073-1.035-0.219s-0.491-0.338-0.652-0.578c-0.161-0.239-0.272-0.51-0.332-0.813
			c-0.06-0.302-0.09-0.612-0.09-0.93c0-0.292,0.027-0.622,0.082-0.992c0.055-0.37,0.144-0.747,0.266-1.133
			c0.122-0.385,0.281-0.76,0.477-1.125c0.195-0.364,0.431-0.691,0.707-0.98s0.597-0.521,0.961-0.695
			c0.364-0.174,0.778-0.262,1.242-0.262s0.86,0.094,1.191,0.281s0.626,0.445,0.887,0.773l0.148-0.711
			c0.021-0.083,0.081-0.143,0.18-0.18c0.099-0.036,0.253-0.055,0.461-0.055c0.104,0,0.191,0.004,0.262,0.012
			s0.126,0.022,0.168,0.043c0.042,0.021,0.067,0.047,0.078,0.078s0.013,0.065,0.008,0.102L310.645,15.581z M310.402,10.385
			c-0.245-0.359-0.509-0.629-0.793-0.809s-0.603-0.27-0.957-0.27c-0.281,0-0.535,0.066-0.762,0.199s-0.427,0.309-0.602,0.527
			s-0.325,0.468-0.453,0.746c-0.128,0.279-0.231,0.566-0.313,0.863s-0.141,0.589-0.18,0.875c-0.039,0.287-0.059,0.544-0.059,0.773
			c0,0.183,0.015,0.363,0.043,0.543s0.083,0.344,0.164,0.492s0.191,0.269,0.332,0.359c0.141,0.091,0.323,0.137,0.547,0.137
			c0.286,0,0.574-0.079,0.863-0.238c0.289-0.159,0.559-0.379,0.809-0.66s0.472-0.612,0.664-0.992c0.192-0.38,0.336-0.799,0.43-1.258
			L310.402,10.385z"/>
		<path d="M318.91,15.581c-0.011,0.042-0.028,0.077-0.055,0.105c-0.026,0.029-0.066,0.054-0.121,0.074s-0.124,0.036-0.207,0.047
			c-0.083,0.01-0.19,0.016-0.32,0.016c-0.125,0-0.228-0.005-0.309-0.016c-0.081-0.011-0.144-0.026-0.188-0.047
			s-0.073-0.045-0.086-0.074c-0.013-0.028-0.017-0.063-0.012-0.105l0.867-4.344c0.026-0.135,0.048-0.288,0.066-0.457
			c0.019-0.169,0.027-0.316,0.027-0.441c0-0.151-0.016-0.289-0.047-0.414s-0.082-0.233-0.152-0.324
			c-0.07-0.091-0.161-0.163-0.273-0.215c-0.112-0.052-0.249-0.078-0.41-0.078c-0.276,0-0.559,0.081-0.848,0.242
			c-0.289,0.162-0.558,0.384-0.805,0.668c-0.247,0.284-0.469,0.619-0.664,1.004c-0.195,0.386-0.337,0.8-0.426,1.242l-0.625,3.117
			c-0.011,0.042-0.028,0.077-0.055,0.105c-0.026,0.029-0.065,0.054-0.117,0.074s-0.121,0.036-0.207,0.047
			c-0.086,0.01-0.191,0.016-0.316,0.016c-0.13,0-0.235-0.005-0.316-0.016c-0.081-0.011-0.144-0.026-0.188-0.047
			s-0.073-0.045-0.086-0.074c-0.013-0.028-0.015-0.063-0.004-0.105l2.078-10.438c0.011-0.042,0.027-0.078,0.051-0.109
			s0.063-0.057,0.117-0.078c0.055-0.021,0.125-0.036,0.211-0.047c0.086-0.01,0.194-0.016,0.324-0.016
			c0.125,0,0.228,0.005,0.309,0.016c0.081,0.011,0.144,0.026,0.188,0.047c0.044,0.021,0.071,0.047,0.082,0.078
			s0.013,0.068,0.008,0.109l-0.625,3.18c-0.026,0.136-0.058,0.273-0.094,0.414s-0.074,0.28-0.113,0.418
			c-0.039,0.138-0.078,0.27-0.117,0.395s-0.074,0.234-0.105,0.328c0.083-0.182,0.214-0.371,0.391-0.566s0.386-0.375,0.625-0.539
			s0.504-0.301,0.793-0.41s0.587-0.164,0.895-0.164c0.333,0,0.617,0.048,0.852,0.145c0.234,0.097,0.426,0.229,0.574,0.398
			c0.148,0.169,0.257,0.371,0.324,0.605s0.102,0.487,0.102,0.758c0,0.188-0.011,0.37-0.031,0.547
			c-0.021,0.177-0.05,0.357-0.086,0.539L318.91,15.581z"/>
		<path d="M322.551,15.581c-0.011,0.042-0.028,0.077-0.055,0.105c-0.026,0.029-0.065,0.054-0.117,0.074s-0.121,0.036-0.207,0.047
			c-0.086,0.01-0.191,0.016-0.316,0.016c-0.13,0-0.235-0.005-0.316-0.016c-0.081-0.011-0.144-0.026-0.188-0.047
			s-0.073-0.045-0.086-0.074c-0.013-0.028-0.015-0.063-0.004-0.105l2.078-10.438c0.011-0.042,0.027-0.078,0.051-0.109
			s0.063-0.057,0.117-0.078c0.055-0.021,0.125-0.036,0.211-0.047c0.086-0.01,0.194-0.016,0.324-0.016
			c0.125,0,0.228,0.005,0.309,0.016c0.081,0.011,0.144,0.026,0.188,0.047c0.044,0.021,0.071,0.047,0.082,0.078
			s0.013,0.068,0.008,0.109L322.551,15.581z"/>
		<path d="M331.652,9.987c0,0.359-0.083,0.683-0.25,0.969c-0.167,0.287-0.427,0.531-0.781,0.734s-0.808,0.359-1.359,0.469
			s-1.214,0.164-1.984,0.164h-0.828c-0.036,0.172-0.062,0.339-0.074,0.5c-0.013,0.162-0.02,0.313-0.02,0.453
			c0,0.521,0.129,0.919,0.387,1.195c0.258,0.276,0.676,0.414,1.254,0.414c0.333,0,0.633-0.024,0.898-0.074
			c0.266-0.049,0.496-0.103,0.691-0.16c0.195-0.057,0.355-0.11,0.48-0.16c0.125-0.049,0.211-0.074,0.258-0.074
			s0.082,0.017,0.105,0.051c0.023,0.034,0.035,0.082,0.035,0.145c0,0.052-0.005,0.115-0.016,0.188
			c-0.011,0.073-0.026,0.147-0.047,0.223c-0.021,0.076-0.048,0.147-0.082,0.215c-0.034,0.068-0.071,0.125-0.113,0.172
			c-0.063,0.063-0.173,0.124-0.332,0.184c-0.159,0.06-0.348,0.115-0.566,0.164s-0.458,0.09-0.719,0.121s-0.521,0.047-0.781,0.047
			c-0.464,0-0.87-0.052-1.219-0.156s-0.64-0.264-0.871-0.48c-0.231-0.216-0.405-0.485-0.52-0.809
			c-0.114-0.323-0.172-0.703-0.172-1.141c0-0.338,0.032-0.702,0.098-1.09c0.065-0.388,0.168-0.772,0.309-1.152
			c0.141-0.38,0.323-0.745,0.547-1.094c0.224-0.349,0.491-0.656,0.801-0.922s0.668-0.479,1.074-0.641
			c0.406-0.161,0.864-0.242,1.375-0.242c0.438,0,0.809,0.055,1.113,0.164s0.555,0.25,0.75,0.422s0.337,0.363,0.426,0.574
			S331.652,9.779,331.652,9.987z M330.332,10.104c0-0.266-0.104-0.48-0.313-0.645s-0.505-0.246-0.891-0.246
			c-0.339,0-0.638,0.059-0.898,0.176s-0.491,0.275-0.691,0.473c-0.2,0.198-0.372,0.429-0.516,0.691
			c-0.144,0.263-0.259,0.541-0.348,0.832h0.797c0.547,0,1.004-0.034,1.371-0.102c0.367-0.067,0.661-0.16,0.883-0.277
			s0.378-0.254,0.469-0.41S330.332,10.276,330.332,10.104z"/>
		<path d="M339.441,10.104c0,0.183-0.011,0.362-0.031,0.539c-0.021,0.177-0.05,0.359-0.086,0.547l-0.883,4.391
			c-0.011,0.042-0.027,0.077-0.051,0.105c-0.023,0.029-0.063,0.054-0.117,0.074s-0.124,0.036-0.207,0.047
			c-0.083,0.01-0.19,0.016-0.32,0.016c-0.125,0-0.228-0.005-0.309-0.016c-0.081-0.011-0.144-0.026-0.188-0.047
			s-0.073-0.045-0.086-0.074c-0.013-0.028-0.017-0.063-0.012-0.105l0.867-4.344c0.036-0.161,0.062-0.317,0.074-0.469
			c0.013-0.151,0.02-0.284,0.02-0.398c0-0.317-0.067-0.574-0.203-0.77s-0.362-0.293-0.68-0.293c-0.276,0-0.559,0.08-0.848,0.238
			c-0.289,0.159-0.558,0.378-0.805,0.656c-0.247,0.279-0.469,0.609-0.664,0.992s-0.337,0.798-0.426,1.246l-0.625,3.141
			c-0.011,0.042-0.028,0.077-0.055,0.105c-0.026,0.029-0.065,0.054-0.117,0.074s-0.121,0.036-0.207,0.047
			c-0.086,0.01-0.191,0.016-0.316,0.016c-0.13,0-0.235-0.005-0.316-0.016c-0.081-0.011-0.144-0.026-0.188-0.047
			s-0.073-0.045-0.086-0.074c-0.013-0.028-0.015-0.063-0.004-0.105l1.414-7.039c0.005-0.036,0.02-0.07,0.043-0.102
			s0.06-0.057,0.109-0.078c0.05-0.021,0.112-0.035,0.188-0.043s0.165-0.012,0.27-0.012c0.109,0,0.199,0.004,0.27,0.012
			s0.125,0.022,0.164,0.043c0.039,0.021,0.063,0.047,0.074,0.078s0.013,0.065,0.008,0.102l-0.266,1.344
			c0.078-0.177,0.206-0.364,0.383-0.563c0.177-0.198,0.388-0.38,0.633-0.547c0.245-0.167,0.515-0.305,0.809-0.414
			s0.601-0.164,0.918-0.164c0.349,0,0.641,0.054,0.875,0.16c0.234,0.107,0.425,0.248,0.57,0.422c0.146,0.175,0.25,0.376,0.313,0.605
			C339.41,9.615,339.441,9.854,339.441,10.104z"/>
	</g>
</g>
</svg>
