<?xml version="1.0" encoding="utf-8"?>
<!DOCTYPE svg PUBLIC "-//W3C//DTD SVG 1.1//EN" "http://www.w3.org/Graphics/SVG/1.1/DTD/svg11.dtd">
<svg version="1.1" id="RoentgenstrahlungPlot" xmlns="http://www.w3.org/2000/svg" xmlns:xlink="http://www.w3.org/1999/xlink"
	 x="0px" y="0px" width="400px" height="310px" viewBox="0 0 400 310" enable-background="new 0 0 400 310" xml:space="preserve">
<rect id="Hintergrund" fill="#FFFFFF" width="400" height="310"/>
<g id="Kurven">
	
		<polyline id="Roentgenstrahung" fill="none" stroke="#FF0000" stroke-linecap="round" stroke-linejoin="round" stroke-miterlimit="10" points="
		50.627,289.816 51.133,283.346 51.442,277.704 51.906,272.394 52.216,267.251 52.525,262.273 52.989,257.627 53.298,252.98 
		53.762,248.667 54.071,244.354 54.381,240.37 54.845,236.389 55.154,232.737 55.618,229.088 55.927,225.604 56.236,222.285 
		56.7,218.966 57.009,215.813 57.474,212.826 57.783,210.006 58.092,207.186 58.556,204.53 58.865,202.041 59.329,199.553 
		59.638,197.063 59.948,194.74 60.412,192.583 60.721,190.427 61.03,188.436 61.494,186.444 61.804,184.453 62.267,182.628 
		62.577,180.803 62.886,179.143 63.35,177.484 63.659,175.99 64.123,174.332 64.432,173.004 64.741,171.511 65.206,170.184 
		65.515,168.856 65.979,167.529 66.288,166.367 66.597,165.205 67.061,164.044 67.37,163.049 67.834,161.887 68.144,160.893 
		68.453,160.063 68.917,159.066 69.226,158.236 69.69,157.407 69.999,156.577 70.309,155.748 70.772,154.918 71.082,154.255 
		71.545,153.591 71.855,152.927 72.164,152.264 72.628,151.6 72.938,151.102 73.247,150.439 73.71,149.939 74.02,149.442 
		74.484,148.945 74.793,148.446 75.102,147.949 75.566,147.617 75.875,147.119 76.339,146.788 76.648,146.456 76.958,146.124 
		77.422,145.792 77.731,145.46 78.195,145.129 78.504,144.797 78.814,144.631 79.277,144.299 79.587,144.133 80.051,143.967 
		80.36,143.636 80.669,143.47 81.133,143.304 81.442,143.138 81.906,142.972 82.216,142.806 82.525,142.64 82.989,142.64 
		83.298,142.474 83.762,142.308 84.071,142.308 84.38,142.143 84.845,142.143 85.154,142.143 85.617,141.977 85.927,141.977 
		86.236,141.977 86.7,141.977 87.009,141.977 87.319,141.977 87.783,141.977 88.092,141.977 88.556,141.977 88.865,141.977 
		89.174,141.977 89.638,141.977 89.948,141.977 90.411,142.143 90.721,142.143 91.03,142.143 91.494,142.308 91.803,142.308 
		92.267,142.308 92.577,142.474 92.886,142.474 93.349,142.64 93.659,142.806 94.123,142.806 94.432,142.972 94.741,142.972 
		95.206,143.138 95.515,143.304 95.978,143.304 96.288,143.47 96.597,143.636 97.061,143.802 97.37,143.802 97.834,143.967 
		98.143,144.133 98.453,144.299 98.917,144.465 99.226,144.631 99.535,144.797 99.999,144.963 100.309,145.129 100.772,145.129 
		101.081,145.295 101.391,145.46 101.855,145.626 102.164,145.792 102.628,145.959 102.938,146.29 103.247,146.456 103.71,146.622 
		104.02,146.788 104.484,146.954 104.793,147.119 105.102,147.285 105.566,147.452 105.875,147.617 106.339,147.784 
		106.648,148.115 106.958,148.281 107.422,148.446 107.731,148.612 108.195,148.779 108.504,148.945 108.813,149.276 
		109.277,149.442 109.587,149.609 110.05,149.774 110.36,149.939 110.669,150.272 111.133,150.439 111.442,150.604 111.906,150.77 
		112.216,151.102 112.525,151.268 112.989,151.434 113.298,151.6 113.607,151.933 114.071,152.098 114.38,152.264 114.844,152.595 
		115.154,152.762 115.463,152.927 115.927,153.093 116.236,153.425 116.7,153.591 117.009,153.757 117.319,154.089 117.782,154.255 
		118.092,154.42 118.556,154.587 118.865,154.918 119.174,155.084 119.638,155.25 119.948,155.582 120.411,155.748 120.721,155.914 
		121.03,156.245 121.494,156.412 121.803,156.577 122.267,156.909 122.576,157.075 122.885,157.242 123.35,157.572 123.659,157.739 
		124.123,157.905 124.432,158.236 124.741,158.402 125.205,158.569 125.514,158.734 125.979,159.066 126.288,159.232 
		126.597,159.398 127.061,159.729 127.37,159.896 127.679,160.063 128.143,160.394 128.453,160.56 128.917,160.726 129.226,161.058 
		129.535,161.224 129.999,161.39 130.308,161.722 130.772,161.887 131.082,162.053 131.391,162.385 131.855,162.551 
		132.164,162.717 132.628,162.883 132.937,163.215 133.246,163.38 133.71,163.547 134.02,163.878 134.483,164.044 134.792,164.21 
		135.102,164.542 135.566,164.708 135.875,164.874 136.339,165.04 136.649,165.372 136.958,165.537 137.421,165.704 
		137.731,166.035 138.195,166.202 138.504,166.367 138.813,166.532 139.277,166.865 139.587,167.031 139.896,167.196 
		140.36,167.362 140.669,167.695 141.133,167.86 141.442,168.026 141.752,168.192 142.215,168.524 142.524,168.689 142.989,168.856 
		143.298,169.022 143.607,169.354 144.071,169.52 144.381,169.686 144.844,169.853 145.153,170.184 145.463,170.35 145.927,170.516 
		146.236,170.682 146.7,171.013 147.009,171.18 147.318,171.346 147.782,171.511 148.092,171.677 148.556,172.01 148.865,172.175 
		149.174,172.34 149.638,172.507 149.947,172.838 150.411,173.004 150.721,173.17 151.03,173.337 151.494,173.502 151.803,173.834 
		152.267,174 152.576,174.165 152.886,174.332 153.35,174.497 153.659,174.663 153.968,174.995 154.432,175.162 154.741,175.327 
		155.205,175.493 155.515,175.659 155.824,175.825 156.287,176.157 156.597,176.322 157.061,176.489 157.37,176.655 157.679,176.82 
		158.144,176.986 158.453,177.152 158.916,177.484 159.226,177.649 159.535,177.816 159.999,177.982 160.308,178.147 
		160.772,178.313 161.081,178.479 161.391,178.646 161.854,178.978 162.164,179.143 162.628,179.31 162.937,179.476 
		163.247,179.642 163.71,179.807 164.019,179.973 164.483,180.14 164.793,180.306 165.102,180.471 165.566,180.803 165.875,180.97 
		166.185,181.135 166.648,181.3 166.958,181.467 167.422,181.633 167.731,181.799 168.04,181.965 168.504,182.13 168.813,182.296 
		169.277,182.463 169.586,182.628 169.896,182.794 170.36,182.96 170.669,183.126 171.133,183.457 171.442,183.623 171.751,183.79 
		172.215,183.955 172.525,184.122 172.989,184.287 173.298,184.453 173.607,184.619 174.071,184.785 174.38,184.95 174.844,185.117 
		175.154,185.283 175.463,185.449 175.927,185.615 176.236,185.78 176.7,185.947 177.009,186.112 177.318,186.278 177.783,186.444 
		178.092,186.61 178.556,186.775 178.865,186.942 179.174,187.108 179.638,187.274 179.947,187.439 180.257,187.605 180.72,187.772 
		181.03,187.938 181.494,188.103 181.803,188.27 182.112,188.436 182.576,188.602 182.886,188.768 183.349,188.933 183.659,188.933 
		183.968,189.1 184.432,189.266 184.741,189.431 185.205,189.597 185.514,189.763 185.824,189.929 186.288,190.095 186.596,190.26 
		187.061,190.427 187.37,190.593 187.679,190.759 188.143,190.925 188.453,191.09 188.917,191.256 189.225,191.256 189.535,191.423 
		189.999,191.588 190.308,191.754 190.772,191.92 191.082,192.086 191.391,192.252 191.854,192.418 192.164,192.583 192.473,192.75 
		192.937,192.916 193.246,192.916 193.71,193.082 194.02,193.247 194.329,193.413 194.792,193.58 195.102,193.745 195.566,193.91 
		195.875,194.077 196.185,194.077 196.648,193.91 196.957,191.423 197.422,179.31 197.73,144.133 198.04,81.911 198.504,26.325 
		198.813,26.491 199.277,82.408 199.586,144.797 199.896,180.306 200.359,192.583 200.669,195.404 201.133,195.902 201.441,196.068 
		201.751,196.234 202.215,196.4 202.524,196.565 202.988,196.732 203.298,196.897 203.607,196.897 204.07,197.063 204.38,197.229 
		204.844,197.396 205.153,197.562 205.463,197.728 205.927,197.728 206.236,197.893 206.546,198.06 207.009,198.226 
		207.318,198.391 207.782,198.391 208.092,198.557 208.401,198.723 208.865,198.889 209.174,199.055 209.638,199.055 
		209.947,199.221 210.257,199.387 210.721,199.553 211.03,199.719 211.494,199.719 211.803,199.885 212.112,200.05 212.576,200.216 
		212.886,200.216 213.35,200.383 213.658,200.548 213.968,200.714 214.432,200.714 214.741,200.88 215.205,200.714 215.515,198.391 
		215.823,187.772 216.287,157.075 216.597,104.643 217.061,59.842 217.37,62.663 217.679,110.616 218.143,161.887 218.452,190.427 
		218.762,199.885 219.226,202.041 219.534,202.54 219.999,202.706 220.308,202.706 220.617,202.871 221.081,203.037 
		221.391,203.203 221.854,203.203 222.163,203.369 222.473,203.535 222.937,203.7 223.246,203.7 223.71,203.867 224.02,204.033 
		224.329,204.033 224.792,204.198 225.102,204.364 225.565,204.53 225.875,204.53 226.185,204.696 226.648,204.862 226.958,204.862 
		227.421,205.028 227.73,205.193 228.04,205.193 228.504,205.36 228.813,205.525 229.277,205.692 229.587,205.692 229.896,205.857 
		230.359,206.023 230.669,206.023 231.133,206.189 231.442,206.355 231.751,206.355 232.216,206.521 232.524,206.688 
		232.834,206.688 233.298,206.854 233.606,207.02 234.071,207.02 234.38,207.186 234.689,207.351 235.153,207.351 235.463,207.518 
		235.927,207.683 236.235,207.683 236.545,207.849 237.009,208.015 237.318,208.015 237.782,208.181 238.091,208.347 238.4,208.347 
		238.864,208.513 239.174,208.679 239.638,208.679 239.947,208.845 240.256,208.845 240.72,209.01 241.029,209.176 241.493,209.176 
		241.803,209.343 242.112,209.508 242.575,209.508 242.885,209.674 243.349,209.84 243.658,209.84 243.968,210.006 244.432,210.006 
		244.741,210.173 245.051,210.338 245.514,210.338 245.823,210.503 246.287,210.67 246.597,210.67 246.906,210.836 247.37,210.836 
		247.679,211.001 248.144,211.167 248.452,211.167 248.762,211.333 249.226,211.333 249.535,211.5 249.999,211.666 250.308,211.666 
		250.617,211.831 251.081,211.831 251.391,211.997 251.854,212.163 252.164,212.163 252.473,212.329 252.937,212.329 
		253.246,212.495 253.71,212.66 254.02,212.66 254.328,212.826 254.792,212.826 255.102,212.993 255.565,212.993 255.875,213.158 
		256.184,213.324 256.647,213.324 256.957,213.49 257.421,213.49 257.73,213.656 258.04,213.656 258.504,213.823 258.813,213.988 
		259.122,213.988 259.586,214.153 259.896,214.153 260.359,214.32 260.669,214.32 260.979,214.486 261.441,214.652 261.751,214.652 
		262.215,214.817 262.524,214.817 262.834,214.983 263.298,214.983 263.607,215.15 264.07,215.15 264.38,215.315 264.689,215.315 
		265.153,215.481 265.463,215.647 265.927,215.647 266.236,215.813 266.545,215.813 267.009,215.979 267.318,215.979 
		267.782,216.146 268.092,216.146 268.4,216.311 268.865,216.311 269.174,216.478 269.638,216.478 269.947,216.643 270.256,216.809 
		270.721,216.809 271.029,216.976 271.339,216.976 271.803,217.141 272.111,217.141 272.576,217.307 272.885,217.307 
		273.194,217.473 273.658,217.473 273.968,217.639 274.432,217.639 274.74,217.805 275.05,217.805 275.514,217.971 275.823,217.971 
		276.287,218.136 276.597,218.136 276.905,218.303 277.369,218.303 277.679,218.468 278.143,218.468 278.452,218.634 
		278.762,218.634 279.225,218.8 279.534,218.8 279.998,218.966 280.308,218.966 280.617,219.133 281.081,219.133 281.391,219.298 
		281.854,219.298 282.163,219.463 282.473,219.463 282.937,219.63 283.246,219.63 283.71,219.796 284.02,219.796 284.328,219.961 
		284.793,219.961 285.102,220.127 285.411,220.127 285.875,220.293 286.185,220.293 286.648,220.459 286.957,220.459 
		287.267,220.626 287.73,220.626 288.04,220.791 288.504,220.791 288.813,220.791 289.122,220.957 289.586,220.957 289.896,221.123 
		290.359,221.123 290.669,221.289 290.978,221.289 291.441,221.455 291.751,221.455 292.215,221.62 292.524,221.62 292.833,221.786 
		293.298,221.786 293.606,221.953 294.07,221.953 294.38,221.953 294.689,222.119 295.153,222.119 295.462,222.285 295.926,222.285 
		296.235,222.45 296.545,222.45 297.009,222.616 297.318,222.616 297.781,222.616 298.091,222.783 298.4,222.783 298.864,222.948 
		299.174,222.948 299.483,223.113 299.947,223.113 300.257,223.28 300.72,223.28 301.029,223.28 301.339,223.446 301.803,223.446 
		302.112,223.612 302.576,223.612 302.886,223.777 303.194,223.777 303.658,223.943 303.968,223.943 304.432,223.943 
		304.741,224.11 305.05,224.11 305.514,224.276 305.823,224.276 306.287,224.441 306.597,224.441 306.905,224.441 307.37,224.607 
		307.679,224.607 308.143,224.773 308.452,224.773 308.762,224.773 309.226,224.939 309.534,224.939 309.999,225.105 
		310.308,225.105 310.616,225.271 311.081,225.271 311.39,225.271 311.699,225.438 312.163,225.438 312.473,225.604 
		312.937,225.604 313.245,225.604 313.555,225.769 314.019,225.769 314.328,225.936 314.792,225.936 315.102,225.936 
		315.411,226.101 315.874,226.101 316.184,226.267 316.647,226.267 316.957,226.433 317.267,226.433 317.73,226.433 318.04,226.599 
		318.503,226.599 318.813,226.765 319.122,226.765 319.586,226.765 319.896,226.931 320.359,226.931 320.669,226.931 
		320.978,227.096 321.441,227.096 321.751,227.263 322.215,227.263 322.524,227.263 322.834,227.429 323.298,227.429 
		323.606,227.594 324.07,227.594 324.38,227.594 324.689,227.761 325.153,227.761 325.462,227.926 325.771,227.926 326.235,227.926 
		326.545,228.092 327.009,228.092 327.318,228.092 327.627,228.258 328.091,228.258 328.4,228.424 328.864,228.424 329.174,228.424 
		329.482,228.59 329.946,228.59 330.256,228.59 330.72,228.756 331.029,228.756 331.338,228.921 331.803,228.921 332.111,228.921 
		332.575,229.088 332.885,229.088 333.194,229.088 333.658,229.253 333.967,229.253 334.432,229.253 334.74,229.419 335.05,229.419 
		335.514,229.586 335.823,229.586 336.287,229.586 336.596,229.751 336.906,229.751 337.369,229.751 337.679,229.917 
		337.988,229.917 338.452,229.917 338.762,230.083 339.225,230.083 339.535,230.249 339.844,230.249 340.308,230.249 
		340.617,230.415 341.081,230.415 341.391,230.415 341.699,230.58 342.163,230.58 342.473,230.58 342.937,230.746 343.246,230.746 
		343.555,230.746 344.02,230.913 344.328,230.913 344.792,230.913 345.102,231.079 345.41,231.079 345.875,231.079 346.184,231.245 
		346.647,231.245 346.957,231.41 347.267,231.41 347.73,231.41 348.039,231.576 348.504,231.576 348.813,231.576 349.122,231.743 
		349.586,231.743 349.895,231.743 350.359,231.908 350.668,231.908 350.978,231.908 351.441,232.073 351.751,232.073 
		352.061,232.073 352.523,232.24 352.833,232.24 353.297,232.24 353.606,232.406 353.916,232.406 354.38,232.406 354.689,232.571 
		355.152,232.571 355.462,232.571 355.771,232.737 356.235,232.737 356.545,232.737 357.009,232.903 357.318,232.903 
		357.627,232.903 358.091,232.903 358.4,233.07 358.864,233.07 359.174,233.07 359.482,233.236 359.947,233.236 360.256,233.236 
		360.72,233.401 361.029,233.401 361.339,233.401 361.803,233.567 362.111,233.567 362.576,233.567 362.885,233.733 
		363.194,233.733 363.658,233.733 363.968,233.899 364.276,233.899 364.74,233.899 365.05,234.065 365.514,234.065 365.823,234.065 
		366.132,234.065 366.596,234.23 366.905,234.23 367.369,234.23 367.679,234.397 367.987,234.397 368.451,234.397 368.761,234.563 
		369.225,234.563 369.534,234.563 369.844,234.729 370.308,234.729 370.616,234.729 371.08,234.729 371.39,234.896 371.699,234.896 
		372.163,234.896 372.473,235.061 372.937,235.061 373.245,235.061 373.555,235.227 374.019,235.227 374.328,235.227 
		374.792,235.227 375.102,235.394 375.411,235.394 375.874,235.394 376.184,235.559 376.647,235.559 376.957,235.559 
		377.267,235.559 377.73,235.725 378.04,235.725 378.349,235.725 378.813,235.891 379.122,235.891 379.586,235.891 379.896,236.057 
		380.204,236.057 380.669,236.057 380.978,236.057 381.441,236.223 381.751,236.223 382.06,236.223 382.524,236.389 
		382.833,236.389 383.297,236.389 383.606,236.389 	"/>
	
		<polyline id="Bremsstrahlung" fill="none" stroke="#000000" stroke-width="0.5" stroke-linecap="round" stroke-linejoin="round" stroke-miterlimit="10" stroke-dasharray="2" points="
		50.627,289.816 51.442,277.207 52.216,266.754 52.989,257.129 53.762,248.169 54.535,239.873 55.154,232.24 55.927,225.271 
		56.7,218.634 57.474,212.495 58.247,206.854 58.865,201.71 59.638,196.897 60.412,192.252 61.185,188.103 61.958,184.287 
		62.577,180.637 63.35,177.318 64.123,174.165 64.896,171.346 65.669,168.689 66.288,166.202 67.061,163.878 67.834,161.887 
		68.607,159.896 69.381,158.071 69.999,156.412 70.772,154.918 71.545,153.425 72.319,152.098 72.938,150.937 73.71,149.774 
		74.484,148.779 75.257,147.949 76.03,147.119 76.648,146.29 77.422,145.626 78.195,145.129 78.968,144.631 79.742,144.133 
		80.36,143.636 81.133,143.304 81.906,142.972 82.68,142.64 83.453,142.474 84.071,142.308 84.845,142.143 85.617,141.977 
		86.391,141.977 87.164,141.977 87.783,141.977 88.556,141.977 89.329,141.977 90.103,141.977 90.875,142.143 91.494,142.308 
		92.267,142.474 93.04,142.64 93.813,142.806 94.587,142.972 95.206,143.138 95.978,143.47 96.752,143.636 97.525,143.967 
		98.143,144.133 98.917,144.465 99.69,144.797 100.463,145.129 101.236,145.46 101.855,145.792 102.628,146.124 103.401,146.456 
		104.174,146.788 104.947,147.119 105.566,147.452 106.339,147.949 107.112,148.281 107.886,148.612 108.659,149.111 
		109.277,149.442 110.05,149.939 110.824,150.272 111.597,150.604 112.37,151.102 112.989,151.6 113.762,151.933 114.535,152.429 
		115.308,152.762 116.082,153.259 116.7,153.591 117.473,154.089 118.247,154.587 119.02,154.918 119.638,155.416 120.411,155.748 
		121.185,156.245 121.958,156.744 122.731,157.075 123.35,157.572 124.123,158.071 124.896,158.402 125.669,158.899 
		126.442,159.398 127.061,159.729 127.834,160.228 128.607,160.56 129.38,161.058 130.154,161.556 130.772,161.887 131.545,162.385 
		132.318,162.883 133.092,163.215 133.865,163.712 134.483,164.044 135.257,164.542 136.03,165.04 136.803,165.372 137.576,165.869 
		138.195,166.202 138.968,166.699 139.741,167.031 140.514,167.529 141.133,167.86 141.906,168.358 142.679,168.689 
		143.452,169.188 144.226,169.52 144.844,170.018 145.618,170.35 146.391,170.847 147.164,171.18 147.937,171.677 148.556,172.01 
		149.329,172.507 150.102,172.838 150.875,173.17 151.648,173.668 152.267,174 153.04,174.332 153.813,174.83 154.587,175.162 
		155.359,175.659 155.978,175.99 156.751,176.322 157.525,176.655 158.298,177.152 159.071,177.484 159.69,177.816 160.463,178.313 
		161.236,178.646 162.009,178.978 162.782,179.31 163.401,179.642 164.174,180.14 164.947,180.471 165.721,180.803 166.339,181.135 
		167.112,181.467 167.885,181.799 168.659,182.296 169.432,182.628 170.051,182.96 170.824,183.292 171.597,183.623 172.37,183.955 
		173.143,184.287 173.762,184.619 174.535,184.95 175.308,185.283 176.082,185.615 176.854,185.947 177.473,186.278 178.246,186.61 
		179.02,186.942 179.792,187.274 180.566,187.605 181.185,187.938 181.958,188.27 182.731,188.602 183.504,188.933 184.277,189.266 
		184.896,189.597 185.669,189.929 186.442,190.26 187.215,190.427 187.833,190.759 188.607,191.09 189.38,191.423 190.153,191.754 
		190.927,192.086 191.545,192.252 192.318,192.583 193.091,192.916 193.865,193.247 194.638,193.58 195.256,193.745 196.03,194.077 
		196.803,194.408 197.576,194.575 198.349,194.907 198.968,195.238 199.741,195.57 200.514,195.736 201.288,196.068 202.061,196.4 
		202.68,196.565 203.452,196.897 204.226,197.229 204.999,197.396 205.772,197.728 206.391,198.06 207.164,198.226 207.937,198.557 
		208.71,198.723 209.483,199.055 210.102,199.387 210.875,199.553 211.648,199.885 212.421,200.05 213.04,200.383 213.813,200.548 
		214.586,200.88 215.359,201.046 216.133,201.378 216.752,201.543 217.524,201.876 218.298,202.041 219.071,202.373 219.844,202.54 
		220.463,202.871 221.236,203.037 222.009,203.369 222.782,203.535 223.556,203.867 224.174,204.033 224.947,204.364 
		225.721,204.53 226.493,204.696 227.267,205.028 227.885,205.193 228.658,205.525 229.432,205.692 230.205,205.857 
		230.978,206.189 231.597,206.355 232.369,206.521 233.143,206.854 233.916,207.02 234.535,207.186 235.308,207.518 
		236.081,207.683 236.854,207.849 237.627,208.181 238.246,208.347 239.02,208.513 239.793,208.845 240.566,209.01 241.339,209.176 
		241.957,209.343 242.73,209.674 243.504,209.84 244.277,210.006 245.051,210.173 245.669,210.503 246.441,210.67 247.215,210.836 
		247.988,211.001 248.762,211.333 249.38,211.5 250.153,211.666 250.927,211.831 251.699,211.997 252.473,212.329 253.092,212.495 
		253.864,212.66 254.638,212.826 255.411,212.993 256.184,213.158 256.803,213.49 257.576,213.656 258.35,213.823 259.122,213.988 
		259.741,214.153 260.514,214.32 261.287,214.486 262.061,214.652 262.834,214.983 263.452,215.15 264.226,215.315 264.999,215.481 
		265.771,215.647 266.545,215.813 267.163,215.979 267.937,216.146 268.71,216.311 269.483,216.478 270.256,216.643 
		270.875,216.809 271.647,216.976 272.421,217.307 273.194,217.473 273.968,217.639 274.586,217.805 275.359,217.971 
		276.133,218.136 276.905,218.303 277.679,218.468 278.298,218.634 279.071,218.8 279.844,218.966 280.617,219.133 281.235,219.298 
		282.009,219.463 282.782,219.63 283.556,219.796 284.328,219.961 284.946,220.127 285.72,220.293 286.493,220.293 287.267,220.459 
		288.04,220.626 288.658,220.791 289.432,220.957 290.204,221.123 290.978,221.289 291.751,221.455 292.369,221.62 293.143,221.786 
		293.916,221.953 294.689,222.119 295.462,222.285 296.081,222.45 296.854,222.45 297.628,222.616 298.4,222.783 299.174,222.948 
		299.792,223.113 300.565,223.28 301.339,223.446 302.112,223.612 302.73,223.777 303.504,223.777 304.276,223.943 305.05,224.11 
		305.823,224.276 306.441,224.441 307.215,224.607 307.988,224.773 308.762,224.773 309.534,224.939 310.153,225.105 
		310.926,225.271 311.699,225.438 312.473,225.604 313.245,225.604 313.864,225.769 314.638,225.936 315.411,226.101 
		316.184,226.267 316.957,226.267 317.576,226.433 318.349,226.599 319.122,226.765 319.896,226.931 320.669,226.931 
		321.287,227.096 322.061,227.263 322.834,227.429 323.606,227.594 324.38,227.594 324.998,227.761 325.771,227.926 
		326.545,228.092 327.318,228.092 327.937,228.258 328.709,228.424 329.482,228.59 330.256,228.59 331.029,228.756 331.647,228.921 
		332.421,229.088 333.194,229.088 333.967,229.253 334.74,229.419 335.359,229.586 336.133,229.586 336.906,229.751 
		337.679,229.917 338.452,229.917 339.07,230.083 339.844,230.249 340.617,230.415 341.391,230.415 342.163,230.58 342.781,230.746 
		343.555,230.746 344.328,230.913 345.102,231.079 345.875,231.079 346.493,231.245 347.267,231.41 348.039,231.41 348.813,231.576 
		349.432,231.743 350.204,231.908 350.978,231.908 351.751,232.073 352.523,232.24 353.143,232.24 353.916,232.406 354.689,232.571 
		355.462,232.571 356.235,232.737 356.854,232.737 357.627,232.903 358.4,233.07 359.174,233.07 359.947,233.236 360.565,233.401 
		361.339,233.401 362.111,233.567 362.885,233.733 363.658,233.733 364.276,233.899 365.05,233.899 365.823,234.065 366.596,234.23 
		367.369,234.23 367.987,234.397 368.761,234.563 369.534,234.563 370.308,234.729 371.08,234.729 371.699,234.896 372.473,235.061 
		373.245,235.061 374.019,235.227 374.638,235.227 375.411,235.394 376.184,235.559 376.957,235.559 377.73,235.725 
		378.349,235.725 379.122,235.891 379.896,236.057 380.669,236.057 381.441,236.223 382.06,236.223 382.833,236.389 
		383.606,236.389 	"/>
</g>
<g id="Achsen">
	<g id="xAchse">
		<g id="yAchse_1_">
			<line fill="none" stroke="#000000" x1="23" y1="289.816" x2="389.598" y2="289.816"/>
			<polygon id="PfeilSpitze" points="393.996,289.771 385.195,293.057 385.957,289.816 385.197,286.576 			"/>
		</g>
		<g>
			<path d="M375.133,303.518c0,0.073-0.003,0.137-0.008,0.191s-0.012,0.101-0.02,0.137s-0.017,0.067-0.027,0.094
				s-0.026,0.05-0.047,0.07s-0.056,0.04-0.105,0.059s-0.105,0.034-0.168,0.047s-0.126,0.023-0.191,0.031s-0.132,0.012-0.199,0.012
				c-0.234,0-0.441-0.024-0.621-0.074s-0.337-0.136-0.473-0.258s-0.255-0.29-0.359-0.504s-0.206-0.484-0.305-0.813l-1.297-4.281
				l-1.922,5.547c-0.021,0.063-0.046,0.113-0.074,0.152s-0.071,0.069-0.129,0.09s-0.133,0.035-0.227,0.043s-0.216,0.012-0.367,0.012
				c-0.156,0-0.282-0.007-0.379-0.02s-0.165-0.038-0.207-0.074s-0.06-0.087-0.055-0.152s0.028-0.149,0.07-0.254l2.711-7.078
				l-0.203-0.609c-0.245-0.755-0.44-1.227-0.586-1.414s-0.362-0.281-0.648-0.281c-0.146,0-0.302,0.022-0.469,0.066
				s-0.269,0.066-0.305,0.066c-0.026,0-0.048-0.005-0.066-0.016s-0.034-0.032-0.047-0.066s-0.022-0.078-0.027-0.133
				s-0.008-0.126-0.008-0.215c0-0.156,0.008-0.277,0.023-0.363s0.043-0.148,0.082-0.188s0.094-0.071,0.164-0.098
				s0.161-0.052,0.273-0.078s0.215-0.043,0.309-0.051s0.183-0.012,0.266-0.012c0.281,0,0.534,0.031,0.758,0.094
				s0.427,0.183,0.609,0.359s0.353,0.425,0.512,0.742s0.313,0.731,0.465,1.242l2.055,6.648c0.052,0.183,0.104,0.328,0.156,0.438
				s0.105,0.195,0.16,0.258s0.116,0.105,0.184,0.129s0.148,0.035,0.242,0.035c0.063,0,0.12-0.004,0.172-0.012
				s0.097-0.012,0.133-0.012s0.067,0.005,0.094,0.016s0.046,0.032,0.059,0.066s0.023,0.083,0.031,0.148
				S375.133,303.408,375.133,303.518z"/>
		</g>
		<g>
			<path d="M26.429,297.95c0,0.679-0.054,1.299-0.161,1.859s-0.285,1.042-0.533,1.446c-0.249,0.402-0.573,0.715-0.974,0.936
				c-0.401,0.222-0.896,0.332-1.483,0.332c-0.556,0-1.024-0.1-1.405-0.297c-0.38-0.199-0.687-0.49-0.919-0.875
				c-0.232-0.386-0.397-0.859-0.496-1.422c-0.098-0.563-0.147-1.209-0.147-1.938c0-0.675,0.055-1.293,0.164-1.856
				c0.109-0.563,0.287-1.045,0.533-1.449c0.246-0.402,0.57-0.715,0.971-0.936c0.401-0.222,0.893-0.332,1.477-0.332
				c0.561,0,1.031,0.1,1.412,0.297c0.38,0.199,0.687,0.49,0.919,0.875c0.232,0.386,0.397,0.859,0.496,1.422
				C26.38,296.575,26.429,297.221,26.429,297.95z M25.226,298.032c0-0.442-0.016-0.839-0.048-1.189s-0.079-0.661-0.14-0.93
				s-0.141-0.5-0.239-0.694c-0.098-0.193-0.215-0.353-0.352-0.479c-0.137-0.125-0.293-0.216-0.468-0.273
				c-0.175-0.057-0.373-0.085-0.591-0.085c-0.387,0-0.702,0.091-0.943,0.273s-0.432,0.433-0.571,0.752s-0.233,0.692-0.284,1.121
				s-0.075,0.889-0.075,1.381c0,0.661,0.034,1.223,0.103,1.685c0.068,0.463,0.177,0.84,0.325,1.132s0.337,0.504,0.567,0.636
				s0.509,0.198,0.837,0.198c0.255,0,0.479-0.041,0.673-0.123s0.36-0.199,0.499-0.353c0.139-0.152,0.254-0.336,0.345-0.55
				s0.164-0.451,0.219-0.711s0.092-0.541,0.113-0.845C25.215,298.676,25.226,298.36,25.226,298.032z"/>
		</g>
	</g>
	<g id="yAchse_2_">
		<g id="yAchse">
			<line fill="none" stroke="#000000" x1="29.24" y1="296.057" x2="29.24" y2="9.459"/>
			<polygon id="PfeilSpitze_1_" points="29.195,5.061 32.48,13.861 29.24,13.1 26,13.859 			"/>
		</g>
		<g>
			<path d="M21.797,42.315c0.042,0,0.078,0.01,0.109,0.031s0.056,0.057,0.074,0.109s0.034,0.121,0.047,0.207s0.02,0.194,0.02,0.324
				c0,0.125-0.006,0.232-0.02,0.32s-0.029,0.159-0.047,0.211s-0.043,0.088-0.074,0.109s-0.068,0.031-0.109,0.031h-9.703
				c-0.042,0-0.078-0.012-0.109-0.035s-0.056-0.063-0.074-0.117s-0.034-0.125-0.047-0.211s-0.02-0.189-0.02-0.309
				c0-0.13,0.006-0.238,0.02-0.324s0.029-0.155,0.047-0.207s0.043-0.088,0.074-0.109s0.068-0.031,0.109-0.031H21.797z"/>
			<path d="M11.234,37.104c1.047,0.495,2.121,0.863,3.223,1.105s2.209,0.363,3.324,0.363c1.12,0,2.229-0.124,3.328-0.371
				s2.177-0.608,3.234-1.082c0.063-0.026,0.116-0.041,0.16-0.043s0.081,0.014,0.109,0.051s0.049,0.092,0.063,0.168
				s0.02,0.178,0.02,0.309c0,0.094-0.002,0.174-0.008,0.242s-0.016,0.126-0.031,0.176s-0.034,0.09-0.055,0.121
				s-0.044,0.055-0.07,0.07c-0.531,0.281-1.069,0.529-1.613,0.742s-1.098,0.393-1.66,0.539s-1.131,0.255-1.707,0.328
				s-1.158,0.109-1.746,0.109s-1.169-0.041-1.742-0.121s-1.142-0.195-1.707-0.344s-1.121-0.33-1.668-0.543s-1.088-0.453-1.625-0.719
				c-0.021-0.005-0.039-0.02-0.055-0.043s-0.031-0.056-0.047-0.098s-0.027-0.099-0.035-0.172s-0.012-0.167-0.012-0.281
				c0-0.12,0.008-0.216,0.023-0.289s0.037-0.13,0.063-0.172s0.06-0.065,0.102-0.07S11.188,37.083,11.234,37.104z"/>
			<path d="M21.492,28.776c0.073,0,0.137,0.002,0.191,0.008s0.1,0.012,0.137,0.02s0.068,0.017,0.094,0.027s0.049,0.026,0.07,0.047
				s0.041,0.056,0.059,0.105s0.034,0.105,0.047,0.168s0.023,0.126,0.031,0.191s0.012,0.131,0.012,0.199
				c0,0.234-0.025,0.441-0.074,0.621s-0.135,0.337-0.258,0.473s-0.291,0.255-0.504,0.359s-0.484,0.206-0.813,0.305l-4.281,1.297
				l5.547,1.922c0.063,0.021,0.113,0.045,0.152,0.074s0.069,0.072,0.09,0.129s0.035,0.133,0.043,0.227s0.012,0.216,0.012,0.367
				c0,0.156-0.006,0.283-0.02,0.379s-0.038,0.166-0.074,0.207s-0.087,0.06-0.152,0.055s-0.15-0.029-0.254-0.07l-7.078-2.711
				l-0.609,0.203c-0.755,0.245-1.227,0.44-1.414,0.586s-0.281,0.362-0.281,0.648c0,0.146,0.022,0.302,0.066,0.469
				s0.066,0.268,0.066,0.305c0,0.026-0.005,0.048-0.016,0.066s-0.033,0.034-0.066,0.047s-0.078,0.022-0.133,0.027
				s-0.126,0.008-0.215,0.008c-0.156,0-0.277-0.008-0.363-0.023s-0.148-0.043-0.188-0.082s-0.072-0.094-0.098-0.164
				s-0.052-0.162-0.078-0.273s-0.043-0.215-0.051-0.309s-0.012-0.182-0.012-0.266c0-0.281,0.031-0.534,0.094-0.758
				s0.182-0.427,0.359-0.609s0.424-0.353,0.742-0.512s0.732-0.314,1.242-0.465l6.648-2.055c0.182-0.052,0.328-0.104,0.438-0.156
				s0.195-0.105,0.258-0.16s0.105-0.116,0.129-0.184s0.035-0.148,0.035-0.242c0-0.063-0.004-0.12-0.012-0.172S21,29.008,21,28.971
				s0.005-0.068,0.016-0.094s0.033-0.045,0.066-0.059s0.083-0.023,0.148-0.031S21.383,28.776,21.492,28.776z"/>
			<path d="M17.805,24.909c0.588,0,1.17,0.037,1.746,0.109s1.145,0.182,1.707,0.328s1.116,0.324,1.66,0.535S24,26.338,24.531,26.62
				c0.026,0.016,0.049,0.039,0.07,0.07s0.039,0.072,0.055,0.121s0.026,0.108,0.031,0.176s0.008,0.148,0.008,0.242
				c0,0.135-0.006,0.241-0.02,0.316s-0.034,0.13-0.063,0.164s-0.065,0.049-0.109,0.047s-0.098-0.017-0.16-0.043
				c-1.052-0.479-2.129-0.841-3.23-1.086s-2.212-0.367-3.332-0.367c-1.115,0-2.223,0.123-3.324,0.367s-2.176,0.612-3.223,1.102
				c-0.047,0.021-0.091,0.029-0.133,0.023s-0.076-0.029-0.102-0.07s-0.047-0.099-0.063-0.172s-0.023-0.169-0.023-0.289
				c0-0.109,0.004-0.201,0.012-0.273s0.02-0.131,0.035-0.176s0.031-0.077,0.047-0.098s0.034-0.037,0.055-0.047
				c1.068-0.537,2.166-0.957,3.293-1.262S16.633,24.909,17.805,24.909z"/>
		</g>
	</g>
</g>
<g id="Beschriftung">
	<g id="Pfeil_2_">
		<path fill="none" stroke="#000000" d="M218.761,15.942c-2.094-3.042-6.917-8.111-15.865,4.619"/>
		<polygon id="PfeilSpitze_15_" points="200,23.876 203.406,15.12 205.316,17.846 208.241,19.434 		"/>
	</g>
	<g id="Pfeil_1_">
		<path fill="none" stroke="#000000" d="M218,20.562c-11.25,2.214-12.195,19.297-2.996,31.847"/>
		<polygon id="PfeilSpitze_2_" points="217.219,56.211 210.012,50.184 213.205,49.246 215.646,46.982 		"/>
	</g>
	<g>
		<path d="M225.433,19.358c0,0.094-0.009,0.19-0.027,0.289c-0.019,0.099-0.046,0.191-0.082,0.277s-0.079,0.158-0.129,0.215
			c-0.05,0.058-0.105,0.086-0.168,0.086c-0.073,0-0.148-0.038-0.227-0.113c-0.078-0.075-0.181-0.16-0.309-0.254
			s-0.289-0.18-0.484-0.258s-0.444-0.117-0.746-0.117c-0.333,0-0.629,0.069-0.887,0.207c-0.258,0.138-0.481,0.318-0.672,0.539
			c-0.19,0.222-0.348,0.473-0.473,0.754s-0.227,0.565-0.305,0.852c-0.078,0.287-0.134,0.564-0.168,0.832
			c-0.034,0.269-0.051,0.501-0.051,0.699c0,0.537,0.117,0.943,0.352,1.219c0.234,0.276,0.583,0.414,1.047,0.414
			c0.339,0,0.629-0.042,0.871-0.125c0.242-0.083,0.448-0.178,0.617-0.285c0.169-0.106,0.309-0.202,0.418-0.285
			c0.109-0.083,0.206-0.125,0.289-0.125c0.042,0,0.074,0.02,0.098,0.059s0.035,0.095,0.035,0.168c0,0.063-0.005,0.137-0.016,0.223
			s-0.027,0.175-0.051,0.266c-0.023,0.091-0.052,0.176-0.086,0.254s-0.082,0.15-0.145,0.215c-0.063,0.065-0.172,0.145-0.328,0.238
			s-0.337,0.179-0.543,0.254c-0.206,0.076-0.429,0.138-0.668,0.188c-0.239,0.049-0.487,0.074-0.742,0.074
			c-0.839,0-1.465-0.213-1.879-0.641c-0.414-0.427-0.621-1.063-0.621-1.906c0-0.317,0.027-0.665,0.082-1.043
			c0.055-0.377,0.147-0.758,0.277-1.141s0.297-0.754,0.5-1.113s0.453-0.678,0.75-0.957c0.297-0.278,0.641-0.501,1.031-0.668
			c0.391-0.167,0.839-0.25,1.344-0.25c0.208,0,0.409,0.017,0.602,0.051c0.192,0.034,0.374,0.08,0.543,0.137
			c0.169,0.058,0.323,0.129,0.461,0.215s0.245,0.163,0.32,0.23c0.075,0.068,0.122,0.125,0.141,0.172S225.433,19.301,225.433,19.358z
			"/>
		<path d="M231.8,25.772c-0.011,0.042-0.028,0.077-0.055,0.105c-0.026,0.029-0.066,0.054-0.121,0.074s-0.124,0.036-0.207,0.047
			c-0.083,0.01-0.19,0.016-0.32,0.016c-0.125,0-0.228-0.005-0.309-0.016c-0.081-0.011-0.144-0.026-0.188-0.047
			s-0.073-0.045-0.086-0.074c-0.013-0.028-0.017-0.063-0.012-0.105l0.867-4.344c0.026-0.135,0.048-0.288,0.066-0.457
			c0.019-0.169,0.027-0.316,0.027-0.441c0-0.151-0.016-0.289-0.047-0.414s-0.082-0.233-0.152-0.324
			c-0.07-0.091-0.161-0.163-0.273-0.215c-0.112-0.052-0.249-0.078-0.41-0.078c-0.276,0-0.559,0.081-0.848,0.242
			c-0.289,0.162-0.558,0.384-0.805,0.668c-0.247,0.284-0.469,0.619-0.664,1.004c-0.195,0.386-0.337,0.8-0.426,1.242l-0.625,3.117
			c-0.011,0.042-0.028,0.077-0.055,0.105c-0.026,0.029-0.065,0.054-0.117,0.074s-0.121,0.036-0.207,0.047
			c-0.086,0.01-0.191,0.016-0.316,0.016c-0.13,0-0.235-0.005-0.316-0.016c-0.081-0.011-0.144-0.026-0.188-0.047
			s-0.073-0.045-0.086-0.074c-0.013-0.028-0.015-0.063-0.004-0.105l2.078-10.438c0.011-0.042,0.027-0.078,0.051-0.109
			s0.063-0.057,0.117-0.078c0.055-0.021,0.125-0.036,0.211-0.047c0.086-0.01,0.194-0.016,0.324-0.016
			c0.125,0,0.228,0.005,0.309,0.016c0.081,0.011,0.144,0.026,0.188,0.047c0.044,0.021,0.071,0.047,0.082,0.078
			s0.013,0.068,0.008,0.109l-0.625,3.18c-0.026,0.136-0.058,0.273-0.094,0.414s-0.074,0.28-0.113,0.418
			c-0.039,0.138-0.078,0.27-0.117,0.395s-0.074,0.234-0.105,0.328c0.083-0.182,0.214-0.371,0.391-0.566s0.386-0.375,0.625-0.539
			s0.504-0.301,0.793-0.41s0.587-0.164,0.895-0.164c0.333,0,0.617,0.048,0.852,0.145c0.234,0.097,0.426,0.229,0.574,0.398
			c0.148,0.169,0.257,0.371,0.324,0.605s0.102,0.487,0.102,0.758c0,0.188-0.011,0.37-0.031,0.547
			c-0.021,0.177-0.05,0.357-0.086,0.539L231.8,25.772z"/>
		<path d="M239.987,25.772c-0.021,0.089-0.078,0.151-0.172,0.188s-0.25,0.055-0.469,0.055c-0.104,0-0.19-0.005-0.258-0.016
			c-0.067-0.011-0.122-0.025-0.164-0.043s-0.07-0.042-0.086-0.07c-0.016-0.028-0.016-0.066,0-0.113l0.258-1.328
			c-0.067,0.167-0.19,0.349-0.367,0.547c-0.177,0.198-0.387,0.38-0.629,0.547c-0.242,0.167-0.512,0.305-0.809,0.414
			s-0.599,0.164-0.906,0.164c-0.417,0-0.762-0.073-1.035-0.219s-0.491-0.338-0.652-0.578c-0.161-0.239-0.272-0.51-0.332-0.813
			c-0.06-0.302-0.09-0.612-0.09-0.93c0-0.292,0.027-0.622,0.082-0.992c0.055-0.37,0.144-0.747,0.266-1.133
			c0.122-0.385,0.281-0.76,0.477-1.125c0.195-0.364,0.431-0.691,0.707-0.98s0.597-0.521,0.961-0.695
			c0.364-0.174,0.778-0.262,1.242-0.262s0.86,0.094,1.191,0.281s0.626,0.445,0.887,0.773l0.148-0.711
			c0.021-0.083,0.081-0.143,0.18-0.18c0.099-0.036,0.253-0.055,0.461-0.055c0.104,0,0.191,0.004,0.262,0.012
			s0.126,0.022,0.168,0.043c0.042,0.021,0.067,0.047,0.078,0.078s0.013,0.065,0.008,0.102L239.987,25.772z M239.745,20.577
			c-0.245-0.359-0.509-0.629-0.793-0.809s-0.603-0.27-0.957-0.27c-0.281,0-0.535,0.066-0.762,0.199s-0.427,0.309-0.602,0.527
			s-0.325,0.468-0.453,0.746c-0.128,0.279-0.231,0.566-0.313,0.863s-0.141,0.589-0.18,0.875c-0.039,0.287-0.059,0.544-0.059,0.773
			c0,0.183,0.015,0.363,0.043,0.543s0.083,0.344,0.164,0.492s0.191,0.269,0.332,0.359c0.141,0.091,0.323,0.137,0.547,0.137
			c0.286,0,0.574-0.079,0.863-0.238c0.289-0.159,0.559-0.379,0.809-0.66s0.472-0.612,0.664-0.992c0.192-0.38,0.336-0.799,0.43-1.258
			L239.745,20.577z"/>
		<path d="M247.761,18.749c0,0.021-0.004,0.062-0.012,0.121c-0.008,0.06-0.017,0.129-0.027,0.207s-0.026,0.159-0.047,0.242
			c-0.021,0.083-0.047,0.16-0.078,0.23s-0.063,0.129-0.098,0.176s-0.071,0.07-0.113,0.07s-0.087-0.009-0.137-0.027
			c-0.05-0.018-0.104-0.04-0.164-0.066c-0.06-0.026-0.129-0.048-0.207-0.066c-0.078-0.018-0.169-0.027-0.273-0.027
			c-0.177,0-0.382,0.077-0.613,0.23c-0.231,0.154-0.46,0.366-0.684,0.637c-0.224,0.271-0.429,0.591-0.613,0.961
			c-0.185,0.37-0.321,0.771-0.41,1.203l-0.617,3.133c-0.011,0.042-0.028,0.077-0.055,0.105c-0.026,0.029-0.065,0.054-0.117,0.074
			s-0.121,0.036-0.207,0.047c-0.086,0.01-0.191,0.016-0.316,0.016c-0.13,0-0.235-0.005-0.316-0.016
			c-0.081-0.011-0.144-0.026-0.188-0.047s-0.073-0.045-0.086-0.074c-0.013-0.028-0.015-0.063-0.004-0.105l1.398-7.039
			c0.005-0.036,0.021-0.07,0.047-0.102s0.065-0.057,0.117-0.078c0.052-0.021,0.116-0.035,0.191-0.043s0.165-0.012,0.27-0.012
			c0.109,0,0.199,0.004,0.27,0.012s0.125,0.022,0.164,0.043c0.039,0.021,0.063,0.047,0.074,0.078s0.013,0.065,0.008,0.102
			l-0.258,1.281c0.12-0.213,0.262-0.419,0.426-0.617c0.164-0.198,0.343-0.371,0.535-0.52s0.395-0.267,0.605-0.355
			c0.211-0.088,0.418-0.133,0.621-0.133c0.089,0,0.179,0.007,0.27,0.02c0.091,0.013,0.176,0.029,0.254,0.047
			c0.078,0.019,0.147,0.039,0.207,0.063s0.105,0.051,0.137,0.082S247.761,18.681,247.761,18.749z"/>
		<path d="M253.698,25.772c-0.021,0.089-0.078,0.151-0.172,0.188s-0.25,0.055-0.469,0.055c-0.104,0-0.19-0.005-0.258-0.016
			c-0.067-0.011-0.122-0.025-0.164-0.043s-0.07-0.042-0.086-0.07c-0.016-0.028-0.016-0.066,0-0.113l0.258-1.328
			c-0.067,0.167-0.19,0.349-0.367,0.547c-0.177,0.198-0.387,0.38-0.629,0.547c-0.242,0.167-0.512,0.305-0.809,0.414
			s-0.599,0.164-0.906,0.164c-0.417,0-0.762-0.073-1.035-0.219s-0.491-0.338-0.652-0.578c-0.161-0.239-0.272-0.51-0.332-0.813
			c-0.06-0.302-0.09-0.612-0.09-0.93c0-0.292,0.027-0.622,0.082-0.992c0.055-0.37,0.144-0.747,0.266-1.133
			c0.122-0.385,0.281-0.76,0.477-1.125c0.195-0.364,0.431-0.691,0.707-0.98s0.597-0.521,0.961-0.695
			c0.364-0.174,0.778-0.262,1.242-0.262s0.86,0.094,1.191,0.281s0.626,0.445,0.887,0.773l0.148-0.711
			c0.021-0.083,0.081-0.143,0.18-0.18c0.099-0.036,0.253-0.055,0.461-0.055c0.104,0,0.191,0.004,0.262,0.012
			s0.126,0.022,0.168,0.043c0.042,0.021,0.067,0.047,0.078,0.078s0.013,0.065,0.008,0.102L253.698,25.772z M253.456,20.577
			c-0.245-0.359-0.509-0.629-0.793-0.809s-0.603-0.27-0.957-0.27c-0.281,0-0.535,0.066-0.762,0.199s-0.427,0.309-0.602,0.527
			s-0.325,0.468-0.453,0.746c-0.128,0.279-0.231,0.566-0.313,0.863s-0.141,0.589-0.18,0.875c-0.039,0.287-0.059,0.544-0.059,0.773
			c0,0.183,0.015,0.363,0.043,0.543s0.083,0.344,0.164,0.492s0.191,0.269,0.332,0.359c0.141,0.091,0.323,0.137,0.547,0.137
			c0.286,0,0.574-0.079,0.863-0.238c0.289-0.159,0.559-0.379,0.809-0.66s0.472-0.612,0.664-0.992c0.192-0.38,0.336-0.799,0.43-1.258
			L253.456,20.577z"/>
		<path d="M262.979,18.717c0,0.063-0.022,0.128-0.066,0.195c-0.044,0.068-0.132,0.162-0.262,0.281l-3.055,2.617l2.102,3.539
			c0.052,0.094,0.089,0.173,0.109,0.238c0.021,0.065,0.031,0.116,0.031,0.152c0,0.047-0.011,0.087-0.031,0.121
			c-0.021,0.034-0.059,0.062-0.113,0.082c-0.055,0.021-0.128,0.038-0.219,0.051c-0.091,0.013-0.204,0.02-0.34,0.02
			c-0.146,0-0.261-0.004-0.344-0.012s-0.151-0.022-0.203-0.043s-0.091-0.047-0.117-0.078s-0.05-0.07-0.07-0.117l-2.25-3.891
			l-0.773,3.898c-0.011,0.042-0.028,0.077-0.055,0.105c-0.026,0.029-0.066,0.054-0.121,0.074s-0.125,0.036-0.211,0.047
			c-0.086,0.01-0.191,0.016-0.316,0.016s-0.228-0.005-0.309-0.016c-0.081-0.011-0.144-0.025-0.188-0.043s-0.074-0.043-0.09-0.074
			s-0.019-0.067-0.008-0.109l2.086-10.438c0.011-0.042,0.027-0.078,0.051-0.109s0.063-0.057,0.117-0.078
			c0.055-0.021,0.125-0.036,0.211-0.047c0.086-0.01,0.194-0.016,0.324-0.016c0.125,0,0.228,0.005,0.309,0.016
			c0.081,0.011,0.144,0.026,0.188,0.047c0.044,0.021,0.071,0.047,0.082,0.078s0.013,0.068,0.008,0.109l-1.273,6.359l3.258-2.945
			c0.042-0.047,0.089-0.087,0.141-0.121c0.052-0.034,0.112-0.06,0.18-0.078c0.067-0.018,0.147-0.031,0.238-0.039
			s0.199-0.012,0.324-0.012s0.23,0.004,0.316,0.012s0.153,0.021,0.203,0.039c0.05,0.019,0.085,0.042,0.105,0.07
			C262.969,18.648,262.979,18.681,262.979,18.717z"/>
		<path d="M268.315,18.819c0,0.047-0.003,0.098-0.008,0.152s-0.016,0.111-0.031,0.168c-0.016,0.058-0.036,0.115-0.063,0.172
			c-0.026,0.058-0.054,0.108-0.082,0.152c-0.028,0.044-0.062,0.08-0.098,0.105c-0.036,0.026-0.078,0.039-0.125,0.039h-1.797
			l-0.789,3.922c-0.021,0.109-0.039,0.232-0.055,0.367c-0.016,0.136-0.023,0.248-0.023,0.336c0,0.266,0.056,0.46,0.168,0.582
			c0.112,0.123,0.293,0.184,0.543,0.184c0.141,0,0.263-0.012,0.367-0.035s0.194-0.048,0.27-0.074
			c0.075-0.026,0.142-0.051,0.199-0.074s0.106-0.035,0.148-0.035s0.074,0.015,0.098,0.043c0.023,0.029,0.035,0.082,0.035,0.16
			c0,0.068-0.007,0.142-0.02,0.223c-0.013,0.081-0.03,0.16-0.051,0.238s-0.047,0.148-0.078,0.211s-0.065,0.112-0.102,0.148
			c-0.042,0.037-0.104,0.073-0.188,0.109c-0.083,0.037-0.18,0.069-0.289,0.098c-0.109,0.028-0.226,0.051-0.348,0.066
			s-0.243,0.023-0.363,0.023c-0.292,0-0.544-0.031-0.758-0.094s-0.394-0.16-0.539-0.293s-0.254-0.299-0.324-0.5
			c-0.07-0.2-0.105-0.441-0.105-0.723c0-0.063,0.003-0.131,0.008-0.207c0.005-0.075,0.015-0.155,0.027-0.238
			c0.013-0.083,0.026-0.167,0.039-0.25c0.013-0.083,0.027-0.161,0.043-0.234l0.789-3.953h-0.977c-0.058,0-0.102-0.017-0.133-0.051
			c-0.031-0.034-0.047-0.1-0.047-0.199c0-0.073,0.008-0.157,0.023-0.254c0.016-0.096,0.039-0.186,0.07-0.27
			c0.031-0.083,0.071-0.153,0.121-0.211c0.05-0.057,0.108-0.086,0.176-0.086h0.984l0.336-1.672c0.005-0.036,0.022-0.07,0.051-0.102
			s0.069-0.059,0.121-0.082s0.121-0.04,0.207-0.051c0.086-0.01,0.191-0.016,0.316-0.016s0.228,0.005,0.309,0.016
			c0.081,0.011,0.144,0.027,0.188,0.051s0.073,0.051,0.086,0.082s0.017,0.065,0.012,0.102l-0.336,1.672h1.797
			c0.078,0,0.13,0.029,0.156,0.086C268.303,18.681,268.315,18.746,268.315,18.819z"/>
		<path d="M275.19,20.178c0,0.359-0.083,0.683-0.25,0.969c-0.167,0.287-0.427,0.531-0.781,0.734s-0.808,0.359-1.359,0.469
			s-1.214,0.164-1.984,0.164h-0.828c-0.036,0.172-0.062,0.339-0.074,0.5c-0.013,0.162-0.02,0.313-0.02,0.453
			c0,0.521,0.129,0.919,0.387,1.195c0.258,0.276,0.676,0.414,1.254,0.414c0.333,0,0.633-0.024,0.898-0.074
			c0.266-0.049,0.496-0.103,0.691-0.16c0.195-0.057,0.355-0.11,0.48-0.16c0.125-0.049,0.211-0.074,0.258-0.074
			s0.082,0.017,0.105,0.051c0.023,0.034,0.035,0.082,0.035,0.145c0,0.052-0.005,0.115-0.016,0.188
			c-0.011,0.073-0.026,0.147-0.047,0.223c-0.021,0.076-0.048,0.147-0.082,0.215c-0.034,0.068-0.071,0.125-0.113,0.172
			c-0.063,0.063-0.173,0.124-0.332,0.184c-0.159,0.06-0.348,0.115-0.566,0.164s-0.458,0.09-0.719,0.121s-0.521,0.047-0.781,0.047
			c-0.464,0-0.87-0.052-1.219-0.156s-0.64-0.264-0.871-0.48c-0.231-0.216-0.405-0.485-0.52-0.809
			c-0.114-0.323-0.172-0.703-0.172-1.141c0-0.338,0.032-0.702,0.098-1.09c0.065-0.388,0.168-0.772,0.309-1.152
			c0.141-0.38,0.323-0.745,0.547-1.094c0.224-0.349,0.491-0.656,0.801-0.922s0.668-0.479,1.074-0.641
			c0.406-0.161,0.864-0.242,1.375-0.242c0.438,0,0.809,0.055,1.113,0.164s0.555,0.25,0.75,0.422s0.337,0.363,0.426,0.574
			S275.19,19.97,275.19,20.178z M273.87,20.295c0-0.266-0.104-0.48-0.313-0.645s-0.505-0.246-0.891-0.246
			c-0.339,0-0.638,0.059-0.898,0.176s-0.491,0.275-0.691,0.473c-0.2,0.198-0.372,0.429-0.516,0.691
			c-0.144,0.263-0.259,0.541-0.348,0.832h0.797c0.547,0,1.004-0.034,1.371-0.102c0.367-0.067,0.661-0.16,0.883-0.277
			s0.378-0.254,0.469-0.41S273.87,20.467,273.87,20.295z"/>
		<path d="M281.495,18.749c0,0.021-0.004,0.062-0.012,0.121c-0.008,0.06-0.017,0.129-0.027,0.207s-0.026,0.159-0.047,0.242
			c-0.021,0.083-0.047,0.16-0.078,0.23s-0.063,0.129-0.098,0.176s-0.071,0.07-0.113,0.07s-0.087-0.009-0.137-0.027
			c-0.05-0.018-0.104-0.04-0.164-0.066c-0.06-0.026-0.129-0.048-0.207-0.066c-0.078-0.018-0.169-0.027-0.273-0.027
			c-0.177,0-0.382,0.077-0.613,0.23c-0.231,0.154-0.46,0.366-0.684,0.637c-0.224,0.271-0.429,0.591-0.613,0.961
			c-0.185,0.37-0.321,0.771-0.41,1.203l-0.617,3.133c-0.011,0.042-0.028,0.077-0.055,0.105c-0.026,0.029-0.065,0.054-0.117,0.074
			s-0.121,0.036-0.207,0.047c-0.086,0.01-0.191,0.016-0.316,0.016c-0.13,0-0.235-0.005-0.316-0.016
			c-0.081-0.011-0.144-0.026-0.188-0.047s-0.073-0.045-0.086-0.074c-0.013-0.028-0.015-0.063-0.004-0.105l1.398-7.039
			c0.005-0.036,0.021-0.07,0.047-0.102s0.065-0.057,0.117-0.078c0.052-0.021,0.116-0.035,0.191-0.043s0.165-0.012,0.27-0.012
			c0.109,0,0.199,0.004,0.27,0.012s0.125,0.022,0.164,0.043c0.039,0.021,0.063,0.047,0.074,0.078s0.013,0.065,0.008,0.102
			l-0.258,1.281c0.12-0.213,0.262-0.419,0.426-0.617c0.164-0.198,0.343-0.371,0.535-0.52s0.395-0.267,0.605-0.355
			c0.211-0.088,0.418-0.133,0.621-0.133c0.089,0,0.179,0.007,0.27,0.02c0.091,0.013,0.176,0.029,0.254,0.047
			c0.078,0.019,0.147,0.039,0.207,0.063s0.105,0.051,0.137,0.082S281.495,18.681,281.495,18.749z"/>
		<path d="M282.886,25.772c-0.011,0.042-0.028,0.077-0.055,0.105c-0.026,0.029-0.065,0.054-0.117,0.074s-0.121,0.036-0.207,0.047
			c-0.086,0.01-0.191,0.016-0.316,0.016c-0.13,0-0.235-0.005-0.316-0.016c-0.081-0.011-0.144-0.026-0.188-0.047
			s-0.073-0.045-0.086-0.074c-0.013-0.028-0.015-0.063-0.004-0.105l1.398-7.031c0.005-0.036,0.021-0.07,0.047-0.102
			s0.065-0.057,0.117-0.078c0.052-0.021,0.121-0.036,0.207-0.047c0.086-0.01,0.194-0.016,0.324-0.016
			c0.125,0,0.228,0.005,0.309,0.016c0.081,0.011,0.144,0.026,0.188,0.047c0.044,0.021,0.073,0.047,0.086,0.078
			s0.017,0.065,0.012,0.102L282.886,25.772z M284.909,16.374c-0.026,0.146-0.062,0.269-0.105,0.367
			c-0.044,0.099-0.103,0.179-0.176,0.238c-0.073,0.06-0.164,0.103-0.273,0.129c-0.109,0.026-0.242,0.039-0.398,0.039
			c-0.151,0-0.276-0.013-0.375-0.039c-0.099-0.026-0.172-0.069-0.219-0.129c-0.047-0.06-0.073-0.139-0.078-0.238
			c-0.005-0.099,0.005-0.221,0.031-0.367c0.031-0.146,0.07-0.267,0.117-0.363c0.047-0.096,0.105-0.177,0.176-0.242
			c0.07-0.065,0.16-0.109,0.27-0.133s0.242-0.035,0.398-0.035c0.151,0,0.274,0.012,0.371,0.035s0.169,0.068,0.219,0.133
			c0.05,0.065,0.077,0.146,0.082,0.242C284.953,16.107,284.94,16.228,284.909,16.374z"/>
		<path d="M290.597,19.124c0,0.052-0.008,0.121-0.023,0.207s-0.038,0.171-0.066,0.254c-0.028,0.083-0.063,0.154-0.102,0.211
			c-0.039,0.058-0.082,0.086-0.129,0.086c-0.063,0-0.137-0.024-0.223-0.074c-0.086-0.049-0.191-0.105-0.316-0.168
			s-0.274-0.12-0.449-0.172c-0.175-0.052-0.382-0.078-0.621-0.078c-0.229,0-0.433,0.033-0.609,0.098
			c-0.177,0.065-0.325,0.154-0.445,0.266c-0.12,0.112-0.211,0.24-0.273,0.383c-0.063,0.144-0.094,0.293-0.094,0.449
			c0,0.208,0.069,0.382,0.207,0.52c0.138,0.138,0.312,0.262,0.52,0.371s0.434,0.218,0.676,0.324
			c0.242,0.107,0.466,0.237,0.672,0.391c0.206,0.154,0.378,0.339,0.516,0.555c0.138,0.216,0.207,0.488,0.207,0.816
			c0,0.365-0.071,0.705-0.215,1.02c-0.144,0.315-0.349,0.586-0.617,0.813s-0.593,0.404-0.973,0.531s-0.805,0.191-1.273,0.191
			c-0.245,0-0.476-0.019-0.691-0.055c-0.216-0.037-0.411-0.083-0.586-0.141s-0.324-0.121-0.449-0.191s-0.222-0.137-0.289-0.199
			c-0.042-0.042-0.071-0.084-0.09-0.129c-0.019-0.044-0.027-0.098-0.027-0.16c0-0.042,0.003-0.091,0.008-0.148
			c0.005-0.057,0.016-0.117,0.031-0.18s0.032-0.122,0.051-0.18c0.019-0.057,0.04-0.109,0.066-0.156s0.052-0.084,0.078-0.113
			c0.026-0.028,0.058-0.043,0.094-0.043c0.063,0,0.138,0.035,0.227,0.105s0.204,0.146,0.348,0.227
			c0.144,0.081,0.321,0.156,0.535,0.227s0.479,0.105,0.797,0.105c0.286,0,0.532-0.035,0.738-0.105s0.376-0.164,0.512-0.281
			s0.235-0.254,0.301-0.41s0.098-0.32,0.098-0.492c0-0.219-0.067-0.397-0.203-0.535c-0.136-0.138-0.306-0.263-0.512-0.375
			c-0.206-0.112-0.429-0.223-0.668-0.332s-0.462-0.238-0.668-0.387s-0.378-0.331-0.516-0.547c-0.138-0.216-0.207-0.491-0.207-0.824
			c0-0.344,0.067-0.663,0.203-0.957c0.136-0.294,0.327-0.549,0.574-0.766c0.247-0.216,0.544-0.384,0.891-0.504
			c0.347-0.12,0.73-0.18,1.152-0.18c0.198,0,0.39,0.016,0.574,0.047s0.355,0.07,0.512,0.117s0.292,0.099,0.406,0.156
			c0.114,0.058,0.2,0.115,0.258,0.172C290.568,18.934,290.597,19.014,290.597,19.124z"/>
		<path d="M297.839,25.772c-0.011,0.042-0.028,0.077-0.055,0.105c-0.026,0.029-0.065,0.054-0.117,0.074s-0.121,0.036-0.207,0.047
			c-0.086,0.01-0.191,0.016-0.316,0.016s-0.229-0.005-0.313-0.016c-0.083-0.011-0.147-0.026-0.191-0.047s-0.074-0.045-0.09-0.074
			c-0.016-0.028-0.019-0.063-0.008-0.105l1.234-6.164h-3.633l-0.789,3.922c-0.021,0.109-0.039,0.232-0.055,0.367
			c-0.016,0.136-0.023,0.248-0.023,0.336c0,0.266,0.056,0.46,0.168,0.582c0.112,0.123,0.293,0.184,0.543,0.184
			c0.141,0,0.263-0.012,0.367-0.035s0.194-0.048,0.27-0.074c0.075-0.026,0.142-0.051,0.199-0.074s0.106-0.035,0.148-0.035
			s0.074,0.015,0.098,0.043c0.023,0.029,0.035,0.082,0.035,0.16c0,0.068-0.007,0.142-0.02,0.223c-0.013,0.081-0.03,0.16-0.051,0.238
			s-0.047,0.148-0.078,0.211s-0.065,0.112-0.102,0.148c-0.042,0.037-0.104,0.073-0.188,0.109c-0.083,0.037-0.18,0.069-0.289,0.098
			c-0.109,0.028-0.226,0.051-0.348,0.066s-0.243,0.023-0.363,0.023c-0.292,0-0.544-0.031-0.758-0.094s-0.394-0.16-0.539-0.293
			s-0.254-0.299-0.324-0.5c-0.07-0.2-0.105-0.441-0.105-0.723c0-0.063,0.003-0.131,0.008-0.207c0.005-0.075,0.015-0.155,0.027-0.238
			c0.013-0.083,0.026-0.167,0.039-0.25c0.013-0.083,0.027-0.161,0.043-0.234l0.789-3.953h-0.977c-0.058,0-0.102-0.017-0.133-0.051
			c-0.031-0.034-0.047-0.1-0.047-0.199c0-0.073,0.008-0.157,0.023-0.254c0.016-0.096,0.039-0.186,0.07-0.27
			c0.031-0.083,0.071-0.153,0.121-0.211c0.05-0.057,0.108-0.086,0.176-0.086h0.984l0.336-1.672c0.005-0.036,0.022-0.07,0.051-0.102
			s0.069-0.059,0.121-0.082s0.121-0.04,0.207-0.051c0.086-0.01,0.191-0.016,0.316-0.016s0.229,0.005,0.313,0.016
			c0.083,0.011,0.147,0.027,0.191,0.051s0.073,0.051,0.086,0.082s0.015,0.065,0.004,0.102l-0.336,1.672h4.523
			c0.156,0,0.257,0.035,0.301,0.105s0.051,0.173,0.02,0.309L297.839,25.772z M299.854,16.374c-0.026,0.146-0.062,0.269-0.105,0.367
			c-0.044,0.099-0.103,0.179-0.176,0.238c-0.073,0.06-0.163,0.103-0.27,0.129c-0.106,0.026-0.238,0.039-0.395,0.039
			s-0.282-0.013-0.379-0.039c-0.097-0.026-0.167-0.069-0.211-0.129c-0.044-0.06-0.069-0.139-0.074-0.238
			c-0.005-0.099,0.005-0.221,0.031-0.367c0.026-0.146,0.062-0.267,0.105-0.363c0.044-0.096,0.104-0.177,0.18-0.242
			c0.075-0.065,0.165-0.109,0.27-0.133s0.234-0.035,0.391-0.035s0.282,0.012,0.379,0.035s0.168,0.068,0.215,0.133
			c0.047,0.065,0.073,0.146,0.078,0.242C299.898,16.107,299.886,16.228,299.854,16.374z"/>
		<path d="M305.558,19.124c0,0.052-0.008,0.121-0.023,0.207s-0.038,0.171-0.066,0.254c-0.028,0.083-0.063,0.154-0.102,0.211
			c-0.039,0.058-0.082,0.086-0.129,0.086c-0.063,0-0.137-0.024-0.223-0.074c-0.086-0.049-0.191-0.105-0.316-0.168
			s-0.274-0.12-0.449-0.172c-0.175-0.052-0.382-0.078-0.621-0.078c-0.229,0-0.433,0.033-0.609,0.098
			c-0.177,0.065-0.325,0.154-0.445,0.266c-0.12,0.112-0.211,0.24-0.273,0.383c-0.063,0.144-0.094,0.293-0.094,0.449
			c0,0.208,0.069,0.382,0.207,0.52c0.138,0.138,0.312,0.262,0.52,0.371s0.434,0.218,0.676,0.324
			c0.242,0.107,0.466,0.237,0.672,0.391c0.206,0.154,0.378,0.339,0.516,0.555c0.138,0.216,0.207,0.488,0.207,0.816
			c0,0.365-0.071,0.705-0.215,1.02c-0.144,0.315-0.349,0.586-0.617,0.813s-0.593,0.404-0.973,0.531s-0.805,0.191-1.273,0.191
			c-0.245,0-0.476-0.019-0.691-0.055c-0.216-0.037-0.411-0.083-0.586-0.141s-0.324-0.121-0.449-0.191s-0.222-0.137-0.289-0.199
			c-0.042-0.042-0.071-0.084-0.09-0.129c-0.019-0.044-0.027-0.098-0.027-0.16c0-0.042,0.003-0.091,0.008-0.148
			c0.005-0.057,0.016-0.117,0.031-0.18s0.032-0.122,0.051-0.18c0.019-0.057,0.04-0.109,0.066-0.156s0.052-0.084,0.078-0.113
			c0.026-0.028,0.058-0.043,0.094-0.043c0.063,0,0.138,0.035,0.227,0.105s0.204,0.146,0.348,0.227
			c0.144,0.081,0.321,0.156,0.535,0.227s0.479,0.105,0.797,0.105c0.286,0,0.532-0.035,0.738-0.105s0.376-0.164,0.512-0.281
			s0.235-0.254,0.301-0.41s0.098-0.32,0.098-0.492c0-0.219-0.067-0.397-0.203-0.535c-0.136-0.138-0.306-0.263-0.512-0.375
			c-0.206-0.112-0.429-0.223-0.668-0.332s-0.462-0.238-0.668-0.387s-0.378-0.331-0.516-0.547c-0.138-0.216-0.207-0.491-0.207-0.824
			c0-0.344,0.067-0.663,0.203-0.957c0.136-0.294,0.327-0.549,0.574-0.766c0.247-0.216,0.544-0.384,0.891-0.504
			c0.347-0.12,0.73-0.18,1.152-0.18c0.198,0,0.39,0.016,0.574,0.047s0.355,0.07,0.512,0.117s0.292,0.099,0.406,0.156
			c0.114,0.058,0.2,0.115,0.258,0.172C305.529,18.934,305.558,19.014,305.558,19.124z"/>
		<path d="M312.62,19.358c0,0.094-0.009,0.19-0.027,0.289c-0.019,0.099-0.046,0.191-0.082,0.277s-0.079,0.158-0.129,0.215
			c-0.05,0.058-0.105,0.086-0.168,0.086c-0.073,0-0.148-0.038-0.227-0.113c-0.078-0.075-0.181-0.16-0.309-0.254
			s-0.289-0.18-0.484-0.258s-0.444-0.117-0.746-0.117c-0.333,0-0.629,0.069-0.887,0.207c-0.258,0.138-0.481,0.318-0.672,0.539
			c-0.19,0.222-0.348,0.473-0.473,0.754s-0.227,0.565-0.305,0.852c-0.078,0.287-0.134,0.564-0.168,0.832
			c-0.034,0.269-0.051,0.501-0.051,0.699c0,0.537,0.117,0.943,0.352,1.219c0.234,0.276,0.583,0.414,1.047,0.414
			c0.339,0,0.629-0.042,0.871-0.125c0.242-0.083,0.448-0.178,0.617-0.285c0.169-0.106,0.309-0.202,0.418-0.285
			c0.109-0.083,0.206-0.125,0.289-0.125c0.042,0,0.074,0.02,0.098,0.059s0.035,0.095,0.035,0.168c0,0.063-0.005,0.137-0.016,0.223
			s-0.027,0.175-0.051,0.266c-0.023,0.091-0.052,0.176-0.086,0.254s-0.082,0.15-0.145,0.215c-0.063,0.065-0.172,0.145-0.328,0.238
			s-0.337,0.179-0.543,0.254c-0.206,0.076-0.429,0.138-0.668,0.188c-0.239,0.049-0.487,0.074-0.742,0.074
			c-0.839,0-1.465-0.213-1.879-0.641c-0.414-0.427-0.621-1.063-0.621-1.906c0-0.317,0.027-0.665,0.082-1.043
			c0.055-0.377,0.147-0.758,0.277-1.141s0.297-0.754,0.5-1.113s0.453-0.678,0.75-0.957c0.297-0.278,0.641-0.501,1.031-0.668
			c0.391-0.167,0.839-0.25,1.344-0.25c0.208,0,0.409,0.017,0.602,0.051c0.192,0.034,0.374,0.08,0.543,0.137
			c0.169,0.058,0.323,0.129,0.461,0.215s0.245,0.163,0.32,0.23c0.075,0.068,0.122,0.125,0.141,0.172S312.62,19.301,312.62,19.358z"
			/>
		<path d="M318.987,25.772c-0.011,0.042-0.028,0.077-0.055,0.105c-0.026,0.029-0.066,0.054-0.121,0.074s-0.124,0.036-0.207,0.047
			c-0.083,0.01-0.19,0.016-0.32,0.016c-0.125,0-0.228-0.005-0.309-0.016c-0.081-0.011-0.144-0.026-0.188-0.047
			s-0.073-0.045-0.086-0.074c-0.013-0.028-0.017-0.063-0.012-0.105l0.867-4.344c0.026-0.135,0.048-0.288,0.066-0.457
			c0.019-0.169,0.027-0.316,0.027-0.441c0-0.151-0.016-0.289-0.047-0.414s-0.082-0.233-0.152-0.324
			c-0.07-0.091-0.161-0.163-0.273-0.215c-0.112-0.052-0.249-0.078-0.41-0.078c-0.276,0-0.559,0.081-0.848,0.242
			c-0.289,0.162-0.558,0.384-0.805,0.668c-0.247,0.284-0.469,0.619-0.664,1.004c-0.195,0.386-0.337,0.8-0.426,1.242l-0.625,3.117
			c-0.011,0.042-0.028,0.077-0.055,0.105c-0.026,0.029-0.065,0.054-0.117,0.074s-0.121,0.036-0.207,0.047
			c-0.086,0.01-0.191,0.016-0.316,0.016c-0.13,0-0.235-0.005-0.316-0.016c-0.081-0.011-0.144-0.026-0.188-0.047
			s-0.073-0.045-0.086-0.074c-0.013-0.028-0.015-0.063-0.004-0.105l2.078-10.438c0.011-0.042,0.027-0.078,0.051-0.109
			s0.063-0.057,0.117-0.078c0.055-0.021,0.125-0.036,0.211-0.047c0.086-0.01,0.194-0.016,0.324-0.016
			c0.125,0,0.228,0.005,0.309,0.016c0.081,0.011,0.144,0.026,0.188,0.047c0.044,0.021,0.071,0.047,0.082,0.078
			s0.013,0.068,0.008,0.109l-0.625,3.18c-0.026,0.136-0.058,0.273-0.094,0.414s-0.074,0.28-0.113,0.418
			c-0.039,0.138-0.078,0.27-0.117,0.395s-0.074,0.234-0.105,0.328c0.083-0.182,0.214-0.371,0.391-0.566s0.386-0.375,0.625-0.539
			s0.504-0.301,0.793-0.41s0.587-0.164,0.895-0.164c0.333,0,0.617,0.048,0.852,0.145c0.234,0.097,0.426,0.229,0.574,0.398
			c0.148,0.169,0.257,0.371,0.324,0.605s0.102,0.487,0.102,0.758c0,0.188-0.011,0.37-0.031,0.547
			c-0.021,0.177-0.05,0.357-0.086,0.539L318.987,25.772z"/>
		<path d="M328.058,20.178c0,0.359-0.083,0.683-0.25,0.969c-0.167,0.287-0.427,0.531-0.781,0.734s-0.808,0.359-1.359,0.469
			s-1.214,0.164-1.984,0.164h-0.828c-0.036,0.172-0.062,0.339-0.074,0.5c-0.013,0.162-0.02,0.313-0.02,0.453
			c0,0.521,0.129,0.919,0.387,1.195c0.258,0.276,0.676,0.414,1.254,0.414c0.333,0,0.633-0.024,0.898-0.074
			c0.266-0.049,0.496-0.103,0.691-0.16c0.195-0.057,0.355-0.11,0.48-0.16c0.125-0.049,0.211-0.074,0.258-0.074
			s0.082,0.017,0.105,0.051c0.023,0.034,0.035,0.082,0.035,0.145c0,0.052-0.005,0.115-0.016,0.188
			c-0.011,0.073-0.026,0.147-0.047,0.223c-0.021,0.076-0.048,0.147-0.082,0.215c-0.034,0.068-0.071,0.125-0.113,0.172
			c-0.063,0.063-0.173,0.124-0.332,0.184c-0.159,0.06-0.348,0.115-0.566,0.164s-0.458,0.09-0.719,0.121s-0.521,0.047-0.781,0.047
			c-0.464,0-0.87-0.052-1.219-0.156s-0.64-0.264-0.871-0.48c-0.231-0.216-0.405-0.485-0.52-0.809
			c-0.114-0.323-0.172-0.703-0.172-1.141c0-0.338,0.032-0.702,0.098-1.09c0.065-0.388,0.168-0.772,0.309-1.152
			c0.141-0.38,0.323-0.745,0.547-1.094c0.224-0.349,0.491-0.656,0.801-0.922s0.668-0.479,1.074-0.641
			c0.406-0.161,0.864-0.242,1.375-0.242c0.438,0,0.809,0.055,1.113,0.164s0.555,0.25,0.75,0.422s0.337,0.363,0.426,0.574
			S328.058,19.97,328.058,20.178z M326.737,20.295c0-0.266-0.104-0.48-0.313-0.645s-0.505-0.246-0.891-0.246
			c-0.339,0-0.638,0.059-0.898,0.176s-0.491,0.275-0.691,0.473c-0.2,0.198-0.372,0.429-0.516,0.691
			c-0.144,0.263-0.259,0.541-0.348,0.832h0.797c0.547,0,1.004-0.034,1.371-0.102c0.367-0.067,0.661-0.16,0.883-0.277
			s0.378-0.254,0.469-0.41S326.737,20.467,326.737,20.295z"/>
		<path d="M339.284,16.624c0,0.042-0.003,0.09-0.008,0.145s-0.015,0.112-0.027,0.172c-0.013,0.06-0.028,0.123-0.047,0.188
			c-0.019,0.065-0.04,0.123-0.066,0.172c-0.026,0.05-0.056,0.09-0.09,0.121s-0.071,0.047-0.113,0.047
			c-0.058,0-0.137-0.034-0.238-0.102c-0.102-0.067-0.231-0.139-0.391-0.215c-0.159-0.075-0.348-0.147-0.566-0.215
			c-0.219-0.067-0.472-0.102-0.758-0.102c-0.317,0-0.597,0.048-0.836,0.145c-0.239,0.097-0.44,0.227-0.602,0.391
			s-0.282,0.351-0.363,0.559c-0.081,0.208-0.121,0.425-0.121,0.648c0,0.229,0.051,0.43,0.152,0.602s0.234,0.328,0.398,0.469
			s0.352,0.273,0.563,0.398s0.426,0.253,0.645,0.383c0.219,0.13,0.435,0.27,0.648,0.418s0.402,0.32,0.566,0.516
			s0.297,0.419,0.398,0.672c0.102,0.253,0.152,0.546,0.152,0.879c0,0.443-0.091,0.858-0.273,1.246
			c-0.183,0.388-0.441,0.727-0.777,1.016s-0.741,0.519-1.215,0.688s-1.003,0.254-1.586,0.254c-0.317,0-0.613-0.027-0.887-0.082
			s-0.52-0.122-0.738-0.203c-0.219-0.081-0.403-0.164-0.555-0.25s-0.261-0.163-0.328-0.23c-0.067-0.067-0.102-0.167-0.102-0.297
			c0-0.031,0.004-0.075,0.012-0.133c0.008-0.057,0.02-0.12,0.035-0.188c0.016-0.067,0.032-0.134,0.051-0.199
			c0.019-0.065,0.042-0.125,0.07-0.18s0.06-0.099,0.094-0.133c0.034-0.034,0.074-0.051,0.121-0.051c0.083,0,0.188,0.042,0.313,0.125
			c0.125,0.083,0.28,0.173,0.465,0.27c0.185,0.097,0.405,0.187,0.66,0.27c0.255,0.083,0.555,0.125,0.898,0.125
			c0.364,0,0.69-0.051,0.977-0.152s0.527-0.239,0.723-0.414c0.195-0.174,0.345-0.379,0.449-0.613s0.156-0.484,0.156-0.75
			c0-0.234-0.05-0.438-0.148-0.613c-0.099-0.174-0.229-0.332-0.391-0.473s-0.348-0.271-0.559-0.391
			c-0.211-0.12-0.425-0.245-0.641-0.375c-0.216-0.13-0.429-0.27-0.637-0.418s-0.394-0.32-0.555-0.516s-0.293-0.419-0.395-0.672
			c-0.102-0.252-0.152-0.548-0.152-0.887c0-0.411,0.081-0.797,0.242-1.156s0.391-0.674,0.688-0.945
			c0.297-0.271,0.656-0.484,1.078-0.641s0.894-0.234,1.414-0.234c0.25,0,0.488,0.021,0.715,0.063
			c0.227,0.042,0.431,0.093,0.613,0.152c0.183,0.06,0.339,0.125,0.469,0.195s0.219,0.129,0.266,0.176s0.081,0.095,0.102,0.145
			C339.273,16.49,339.284,16.551,339.284,16.624z"/>
		<path d="M344.862,18.819c0,0.047-0.003,0.098-0.008,0.152s-0.016,0.111-0.031,0.168c-0.016,0.058-0.036,0.115-0.063,0.172
			c-0.026,0.058-0.054,0.108-0.082,0.152c-0.028,0.044-0.062,0.08-0.098,0.105c-0.036,0.026-0.078,0.039-0.125,0.039h-1.797
			l-0.789,3.922c-0.021,0.109-0.039,0.232-0.055,0.367c-0.016,0.136-0.023,0.248-0.023,0.336c0,0.266,0.056,0.46,0.168,0.582
			c0.112,0.123,0.293,0.184,0.543,0.184c0.141,0,0.263-0.012,0.367-0.035s0.194-0.048,0.27-0.074
			c0.075-0.026,0.142-0.051,0.199-0.074s0.106-0.035,0.148-0.035s0.074,0.015,0.098,0.043c0.023,0.029,0.035,0.082,0.035,0.16
			c0,0.068-0.007,0.142-0.02,0.223c-0.013,0.081-0.03,0.16-0.051,0.238s-0.047,0.148-0.078,0.211s-0.065,0.112-0.102,0.148
			c-0.042,0.037-0.104,0.073-0.188,0.109c-0.083,0.037-0.18,0.069-0.289,0.098c-0.109,0.028-0.226,0.051-0.348,0.066
			s-0.243,0.023-0.363,0.023c-0.292,0-0.544-0.031-0.758-0.094s-0.394-0.16-0.539-0.293s-0.254-0.299-0.324-0.5
			c-0.07-0.2-0.105-0.441-0.105-0.723c0-0.063,0.003-0.131,0.008-0.207c0.005-0.075,0.015-0.155,0.027-0.238
			c0.013-0.083,0.026-0.167,0.039-0.25c0.013-0.083,0.027-0.161,0.043-0.234l0.789-3.953h-0.977c-0.058,0-0.102-0.017-0.133-0.051
			c-0.031-0.034-0.047-0.1-0.047-0.199c0-0.073,0.008-0.157,0.023-0.254c0.016-0.096,0.039-0.186,0.07-0.27
			c0.031-0.083,0.071-0.153,0.121-0.211c0.05-0.057,0.108-0.086,0.176-0.086h0.984l0.336-1.672c0.005-0.036,0.022-0.07,0.051-0.102
			s0.069-0.059,0.121-0.082s0.121-0.04,0.207-0.051c0.086-0.01,0.191-0.016,0.316-0.016s0.228,0.005,0.309,0.016
			c0.081,0.011,0.144,0.027,0.188,0.051s0.073,0.051,0.086,0.082s0.017,0.065,0.012,0.102l-0.336,1.672h1.797
			c0.078,0,0.13,0.029,0.156,0.086C344.85,18.681,344.862,18.746,344.862,18.819z"/>
		<path d="M350.573,18.749c0,0.021-0.004,0.062-0.012,0.121c-0.008,0.06-0.017,0.129-0.027,0.207s-0.026,0.159-0.047,0.242
			c-0.021,0.083-0.047,0.16-0.078,0.23s-0.063,0.129-0.098,0.176s-0.071,0.07-0.113,0.07s-0.087-0.009-0.137-0.027
			c-0.05-0.018-0.104-0.04-0.164-0.066c-0.06-0.026-0.129-0.048-0.207-0.066c-0.078-0.018-0.169-0.027-0.273-0.027
			c-0.177,0-0.382,0.077-0.613,0.23c-0.231,0.154-0.46,0.366-0.684,0.637c-0.224,0.271-0.429,0.591-0.613,0.961
			c-0.185,0.37-0.321,0.771-0.41,1.203l-0.617,3.133c-0.011,0.042-0.028,0.077-0.055,0.105c-0.026,0.029-0.065,0.054-0.117,0.074
			s-0.121,0.036-0.207,0.047c-0.086,0.01-0.191,0.016-0.316,0.016c-0.13,0-0.235-0.005-0.316-0.016
			c-0.081-0.011-0.144-0.026-0.188-0.047s-0.073-0.045-0.086-0.074c-0.013-0.028-0.015-0.063-0.004-0.105l1.398-7.039
			c0.005-0.036,0.021-0.07,0.047-0.102s0.065-0.057,0.117-0.078c0.052-0.021,0.116-0.035,0.191-0.043s0.165-0.012,0.27-0.012
			c0.109,0,0.199,0.004,0.27,0.012s0.125,0.022,0.164,0.043c0.039,0.021,0.063,0.047,0.074,0.078s0.013,0.065,0.008,0.102
			l-0.258,1.281c0.12-0.213,0.262-0.419,0.426-0.617c0.164-0.198,0.343-0.371,0.535-0.52s0.395-0.267,0.605-0.355
			c0.211-0.088,0.418-0.133,0.621-0.133c0.089,0,0.179,0.007,0.27,0.02c0.091,0.013,0.176,0.029,0.254,0.047
			c0.078,0.019,0.147,0.039,0.207,0.063s0.105,0.051,0.137,0.082S350.573,18.681,350.573,18.749z"/>
		<path d="M356.511,25.772c-0.021,0.089-0.078,0.151-0.172,0.188s-0.25,0.055-0.469,0.055c-0.104,0-0.19-0.005-0.258-0.016
			c-0.067-0.011-0.122-0.025-0.164-0.043s-0.07-0.042-0.086-0.07c-0.016-0.028-0.016-0.066,0-0.113l0.258-1.328
			c-0.067,0.167-0.19,0.349-0.367,0.547c-0.177,0.198-0.387,0.38-0.629,0.547c-0.242,0.167-0.512,0.305-0.809,0.414
			s-0.599,0.164-0.906,0.164c-0.417,0-0.762-0.073-1.035-0.219s-0.491-0.338-0.652-0.578c-0.161-0.239-0.272-0.51-0.332-0.813
			c-0.06-0.302-0.09-0.612-0.09-0.93c0-0.292,0.027-0.622,0.082-0.992c0.055-0.37,0.144-0.747,0.266-1.133
			c0.122-0.385,0.281-0.76,0.477-1.125c0.195-0.364,0.431-0.691,0.707-0.98s0.597-0.521,0.961-0.695
			c0.364-0.174,0.778-0.262,1.242-0.262s0.86,0.094,1.191,0.281s0.626,0.445,0.887,0.773l0.148-0.711
			c0.021-0.083,0.081-0.143,0.18-0.18c0.099-0.036,0.253-0.055,0.461-0.055c0.104,0,0.191,0.004,0.262,0.012
			s0.126,0.022,0.168,0.043c0.042,0.021,0.067,0.047,0.078,0.078s0.013,0.065,0.008,0.102L356.511,25.772z M356.269,20.577
			c-0.245-0.359-0.509-0.629-0.793-0.809s-0.603-0.27-0.957-0.27c-0.281,0-0.535,0.066-0.762,0.199s-0.427,0.309-0.602,0.527
			s-0.325,0.468-0.453,0.746c-0.128,0.279-0.231,0.566-0.313,0.863s-0.141,0.589-0.18,0.875c-0.039,0.287-0.059,0.544-0.059,0.773
			c0,0.183,0.015,0.363,0.043,0.543s0.083,0.344,0.164,0.492s0.191,0.269,0.332,0.359c0.141,0.091,0.323,0.137,0.547,0.137
			c0.286,0,0.574-0.079,0.863-0.238c0.289-0.159,0.559-0.379,0.809-0.66s0.472-0.612,0.664-0.992c0.192-0.38,0.336-0.799,0.43-1.258
			L356.269,20.577z"/>
		<path d="M364.776,25.772c-0.011,0.042-0.028,0.077-0.055,0.105c-0.026,0.029-0.066,0.054-0.121,0.074s-0.124,0.036-0.207,0.047
			c-0.083,0.01-0.19,0.016-0.32,0.016c-0.125,0-0.228-0.005-0.309-0.016c-0.081-0.011-0.144-0.026-0.188-0.047
			s-0.073-0.045-0.086-0.074c-0.013-0.028-0.017-0.063-0.012-0.105l0.867-4.344c0.026-0.135,0.048-0.288,0.066-0.457
			c0.019-0.169,0.027-0.316,0.027-0.441c0-0.151-0.016-0.289-0.047-0.414s-0.082-0.233-0.152-0.324
			c-0.07-0.091-0.161-0.163-0.273-0.215c-0.112-0.052-0.249-0.078-0.41-0.078c-0.276,0-0.559,0.081-0.848,0.242
			c-0.289,0.162-0.558,0.384-0.805,0.668c-0.247,0.284-0.469,0.619-0.664,1.004c-0.195,0.386-0.337,0.8-0.426,1.242l-0.625,3.117
			c-0.011,0.042-0.028,0.077-0.055,0.105c-0.026,0.029-0.065,0.054-0.117,0.074s-0.121,0.036-0.207,0.047
			c-0.086,0.01-0.191,0.016-0.316,0.016c-0.13,0-0.235-0.005-0.316-0.016c-0.081-0.011-0.144-0.026-0.188-0.047
			s-0.073-0.045-0.086-0.074c-0.013-0.028-0.015-0.063-0.004-0.105l2.078-10.438c0.011-0.042,0.027-0.078,0.051-0.109
			s0.063-0.057,0.117-0.078c0.055-0.021,0.125-0.036,0.211-0.047c0.086-0.01,0.194-0.016,0.324-0.016
			c0.125,0,0.228,0.005,0.309,0.016c0.081,0.011,0.144,0.026,0.188,0.047c0.044,0.021,0.071,0.047,0.082,0.078
			s0.013,0.068,0.008,0.109l-0.625,3.18c-0.026,0.136-0.058,0.273-0.094,0.414s-0.074,0.28-0.113,0.418
			c-0.039,0.138-0.078,0.27-0.117,0.395s-0.074,0.234-0.105,0.328c0.083-0.182,0.214-0.371,0.391-0.566s0.386-0.375,0.625-0.539
			s0.504-0.301,0.793-0.41s0.587-0.164,0.895-0.164c0.333,0,0.617,0.048,0.852,0.145c0.234,0.097,0.426,0.229,0.574,0.398
			c0.148,0.169,0.257,0.371,0.324,0.605s0.102,0.487,0.102,0.758c0,0.188-0.011,0.37-0.031,0.547
			c-0.021,0.177-0.05,0.357-0.086,0.539L364.776,25.772z"/>
		<path d="M368.417,25.772c-0.011,0.042-0.028,0.077-0.055,0.105c-0.026,0.029-0.065,0.054-0.117,0.074s-0.121,0.036-0.207,0.047
			c-0.086,0.01-0.191,0.016-0.316,0.016c-0.13,0-0.235-0.005-0.316-0.016c-0.081-0.011-0.144-0.026-0.188-0.047
			s-0.073-0.045-0.086-0.074c-0.013-0.028-0.015-0.063-0.004-0.105l2.078-10.438c0.011-0.042,0.027-0.078,0.051-0.109
			s0.063-0.057,0.117-0.078c0.055-0.021,0.125-0.036,0.211-0.047c0.086-0.01,0.194-0.016,0.324-0.016
			c0.125,0,0.228,0.005,0.309,0.016c0.081,0.011,0.144,0.026,0.188,0.047c0.044,0.021,0.071,0.047,0.082,0.078
			s0.013,0.068,0.008,0.109L368.417,25.772z"/>
		<path d="M376.636,25.772c-0.005,0.042-0.021,0.078-0.047,0.109s-0.063,0.056-0.109,0.074s-0.108,0.032-0.184,0.043
			c-0.075,0.01-0.168,0.016-0.277,0.016c-0.104,0-0.191-0.005-0.262-0.016c-0.07-0.011-0.125-0.025-0.164-0.043
			s-0.065-0.043-0.078-0.074s-0.015-0.067-0.004-0.109l0.258-1.32c-0.083,0.177-0.215,0.363-0.395,0.559s-0.391,0.376-0.633,0.543
			c-0.242,0.167-0.508,0.302-0.797,0.406s-0.582,0.156-0.879,0.156c-0.354,0-0.652-0.048-0.895-0.145s-0.438-0.229-0.586-0.398
			c-0.148-0.169-0.255-0.37-0.32-0.602c-0.065-0.231-0.098-0.485-0.098-0.762c0-0.172,0.012-0.348,0.035-0.527
			s0.054-0.36,0.09-0.543l0.867-4.406c0.011-0.036,0.028-0.07,0.055-0.102s0.066-0.057,0.121-0.078
			c0.055-0.021,0.125-0.035,0.211-0.043s0.191-0.012,0.316-0.012s0.228,0.004,0.309,0.012s0.144,0.022,0.188,0.043
			c0.044,0.021,0.073,0.047,0.086,0.078s0.017,0.065,0.012,0.102l-0.859,4.359c-0.031,0.136-0.055,0.276-0.07,0.422
			c-0.016,0.146-0.023,0.294-0.023,0.445c0,0.156,0.015,0.298,0.043,0.426c0.028,0.128,0.078,0.238,0.148,0.332
			s0.161,0.167,0.273,0.219c0.112,0.052,0.249,0.078,0.41,0.078c0.276,0,0.559-0.079,0.848-0.238
			c0.289-0.159,0.559-0.379,0.809-0.66s0.473-0.616,0.668-1.004c0.195-0.388,0.34-0.811,0.434-1.27l0.617-3.109
			c0.005-0.036,0.022-0.07,0.051-0.102s0.07-0.057,0.125-0.078c0.055-0.021,0.125-0.035,0.211-0.043s0.191-0.012,0.316-0.012
			s0.228,0.004,0.309,0.012s0.144,0.022,0.188,0.043c0.044,0.021,0.073,0.047,0.086,0.078s0.017,0.065,0.012,0.102L376.636,25.772z"
			/>
		<path d="M385.894,20.295c0,0.183-0.011,0.362-0.031,0.539c-0.021,0.177-0.05,0.359-0.086,0.547l-0.883,4.391
			c-0.011,0.042-0.027,0.077-0.051,0.105c-0.023,0.029-0.063,0.054-0.117,0.074s-0.124,0.036-0.207,0.047
			c-0.083,0.01-0.19,0.016-0.32,0.016c-0.125,0-0.228-0.005-0.309-0.016c-0.081-0.011-0.144-0.026-0.188-0.047
			s-0.073-0.045-0.086-0.074c-0.013-0.028-0.017-0.063-0.012-0.105l0.867-4.344c0.036-0.161,0.062-0.317,0.074-0.469
			c0.013-0.151,0.02-0.284,0.02-0.398c0-0.317-0.067-0.574-0.203-0.77s-0.362-0.293-0.68-0.293c-0.276,0-0.559,0.08-0.848,0.238
			c-0.289,0.159-0.558,0.378-0.805,0.656c-0.247,0.279-0.469,0.609-0.664,0.992s-0.337,0.798-0.426,1.246l-0.625,3.141
			c-0.011,0.042-0.028,0.077-0.055,0.105c-0.026,0.029-0.065,0.054-0.117,0.074s-0.121,0.036-0.207,0.047
			c-0.086,0.01-0.191,0.016-0.316,0.016c-0.13,0-0.235-0.005-0.316-0.016c-0.081-0.011-0.144-0.026-0.188-0.047
			s-0.073-0.045-0.086-0.074c-0.013-0.028-0.015-0.063-0.004-0.105l1.414-7.039c0.005-0.036,0.02-0.07,0.043-0.102
			s0.06-0.057,0.109-0.078c0.05-0.021,0.112-0.035,0.188-0.043s0.165-0.012,0.27-0.012c0.109,0,0.199,0.004,0.27,0.012
			s0.125,0.022,0.164,0.043c0.039,0.021,0.063,0.047,0.074,0.078s0.013,0.065,0.008,0.102l-0.266,1.344
			c0.078-0.177,0.206-0.364,0.383-0.563c0.177-0.198,0.388-0.38,0.633-0.547c0.245-0.167,0.515-0.305,0.809-0.414
			s0.601-0.164,0.918-0.164c0.349,0,0.641,0.054,0.875,0.16c0.234,0.107,0.425,0.248,0.57,0.422c0.146,0.175,0.25,0.376,0.313,0.605
			C385.862,19.806,385.894,20.045,385.894,20.295z"/>
		<path d="M392.972,26.327c-0.083,0.417-0.218,0.781-0.402,1.094s-0.421,0.571-0.707,0.777c-0.286,0.206-0.626,0.36-1.02,0.465
			c-0.394,0.104-0.84,0.156-1.34,0.156c-0.433,0-0.827-0.043-1.184-0.129s-0.642-0.189-0.855-0.309
			c-0.078-0.052-0.132-0.103-0.16-0.152c-0.028-0.05-0.043-0.113-0.043-0.191c0-0.031,0.001-0.076,0.004-0.133
			c0.003-0.058,0.011-0.115,0.023-0.172c0.013-0.058,0.028-0.117,0.047-0.18s0.042-0.119,0.07-0.168
			c0.028-0.05,0.063-0.089,0.105-0.117c0.042-0.029,0.086-0.043,0.133-0.043c0.063,0,0.141,0.027,0.234,0.082
			s0.219,0.116,0.375,0.184c0.156,0.067,0.351,0.13,0.582,0.188c0.231,0.057,0.517,0.086,0.855,0.086
			c0.281,0,0.535-0.029,0.762-0.086c0.227-0.058,0.425-0.144,0.594-0.258c0.169-0.115,0.308-0.261,0.414-0.438
			c0.106-0.177,0.187-0.388,0.238-0.633c0.089-0.474,0.177-0.867,0.266-1.18s0.161-0.555,0.219-0.727
			c-0.083,0.193-0.216,0.387-0.398,0.582s-0.394,0.375-0.633,0.539s-0.503,0.297-0.789,0.398s-0.578,0.152-0.875,0.152
			c-0.391,0-0.722-0.065-0.992-0.195s-0.488-0.309-0.652-0.535s-0.282-0.495-0.355-0.805c-0.073-0.31-0.109-0.645-0.109-1.004
			c0-0.302,0.028-0.642,0.086-1.02c0.058-0.377,0.148-0.758,0.273-1.141s0.285-0.755,0.48-1.117
			c0.195-0.362,0.431-0.685,0.707-0.969c0.276-0.284,0.595-0.512,0.957-0.684s0.772-0.258,1.23-0.258
			c0.464,0,0.86,0.094,1.191,0.281s0.626,0.445,0.887,0.773l0.148-0.711c0.021-0.083,0.081-0.143,0.18-0.18
			c0.099-0.036,0.253-0.055,0.461-0.055c0.104,0,0.191,0.004,0.262,0.012s0.126,0.022,0.168,0.043
			c0.042,0.021,0.067,0.047,0.078,0.078s0.013,0.065,0.008,0.102L392.972,26.327z M392.847,20.577
			c-0.245-0.359-0.509-0.629-0.793-0.809s-0.603-0.27-0.957-0.27c-0.281,0-0.534,0.065-0.758,0.195
			c-0.224,0.13-0.423,0.304-0.598,0.52c-0.175,0.216-0.327,0.465-0.457,0.746s-0.235,0.569-0.316,0.863
			c-0.081,0.294-0.141,0.586-0.18,0.875s-0.059,0.551-0.059,0.785c0,0.224,0.02,0.43,0.059,0.617s0.102,0.348,0.188,0.48
			s0.198,0.238,0.336,0.316s0.306,0.117,0.504,0.117c0.286,0,0.574-0.079,0.863-0.238c0.289-0.159,0.559-0.379,0.809-0.66
			s0.472-0.613,0.664-0.996s0.336-0.801,0.43-1.254L392.847,20.577z"/>
	</g>
	<g>
		<path d="M74.711,190.885c0,0.317-0.043,0.618-0.129,0.902s-0.208,0.546-0.367,0.785c-0.159,0.239-0.352,0.45-0.578,0.633
			s-0.483,0.333-0.77,0.453c0.219,0.042,0.423,0.117,0.613,0.227c0.19,0.109,0.353,0.246,0.488,0.41
			c0.135,0.164,0.241,0.358,0.316,0.582c0.075,0.224,0.113,0.472,0.113,0.742c0,0.276-0.037,0.554-0.109,0.832
			c-0.073,0.278-0.184,0.544-0.332,0.797s-0.333,0.487-0.555,0.703c-0.222,0.216-0.48,0.405-0.777,0.566s-0.629,0.286-0.996,0.375
			s-0.793,0.133-1.277,0.133h-2.68c-0.172,0-0.301-0.043-0.387-0.129s-0.105-0.226-0.059-0.418l1.797-9.016
			c0.036-0.203,0.12-0.345,0.25-0.426c0.13-0.081,0.266-0.121,0.406-0.121h2.172c0.516,0,0.948,0.043,1.297,0.129
			c0.349,0.086,0.639,0.212,0.871,0.379c0.231,0.167,0.405,0.372,0.52,0.617C74.653,190.286,74.711,190.567,74.711,190.885z
			 M72.977,195.713c0-0.433-0.154-0.767-0.461-1.004c-0.308-0.237-0.781-0.355-1.422-0.355h-1.727l-0.703,3.563h1.883
			c0.427,0,0.788-0.062,1.082-0.184c0.294-0.122,0.54-0.284,0.738-0.484c0.198-0.2,0.349-0.434,0.453-0.699
			C72.924,196.283,72.977,196.005,72.977,195.713z M73.281,191.127c0-0.172-0.029-0.325-0.086-0.461
			c-0.058-0.136-0.15-0.251-0.277-0.348c-0.128-0.097-0.289-0.172-0.484-0.227s-0.452-0.082-0.77-0.082h-1.422l-0.648,3.273h1.523
			c0.411,0,0.75-0.067,1.016-0.203s0.483-0.309,0.652-0.52c0.169-0.211,0.294-0.444,0.375-0.699
			C73.241,191.606,73.281,191.361,73.281,191.127z"/>
		<path d="M81.094,191.807c0,0.021-0.004,0.062-0.012,0.121s-0.017,0.129-0.027,0.207c-0.011,0.078-0.026,0.159-0.047,0.242
			c-0.021,0.083-0.047,0.16-0.078,0.23s-0.064,0.129-0.098,0.176c-0.034,0.047-0.072,0.07-0.113,0.07
			c-0.042,0-0.087-0.009-0.137-0.027c-0.05-0.019-0.104-0.04-0.164-0.066c-0.06-0.026-0.129-0.048-0.207-0.066
			s-0.169-0.027-0.273-0.027c-0.177,0-0.382,0.077-0.613,0.23c-0.232,0.153-0.46,0.366-0.684,0.637
			c-0.224,0.271-0.429,0.591-0.613,0.961c-0.185,0.37-0.322,0.771-0.41,1.203L77,198.83c-0.011,0.042-0.029,0.077-0.055,0.105
			c-0.026,0.028-0.065,0.054-0.117,0.074c-0.052,0.021-0.121,0.036-0.207,0.047s-0.191,0.016-0.316,0.016
			c-0.13,0-0.236-0.005-0.316-0.016c-0.081-0.011-0.144-0.026-0.188-0.047c-0.044-0.021-0.073-0.046-0.086-0.074
			c-0.013-0.028-0.015-0.063-0.004-0.105l1.398-7.039c0.005-0.036,0.021-0.07,0.047-0.102c0.026-0.031,0.065-0.058,0.117-0.078
			c0.052-0.021,0.116-0.035,0.191-0.043c0.075-0.008,0.165-0.012,0.27-0.012c0.109,0,0.199,0.004,0.27,0.012
			s0.125,0.022,0.164,0.043s0.063,0.047,0.074,0.078c0.01,0.031,0.013,0.065,0.008,0.102l-0.258,1.281
			c0.12-0.214,0.262-0.419,0.426-0.617s0.342-0.371,0.535-0.52c0.192-0.148,0.395-0.267,0.605-0.355s0.418-0.133,0.621-0.133
			c0.088,0,0.178,0.007,0.27,0.02c0.091,0.013,0.176,0.028,0.254,0.047s0.147,0.039,0.207,0.063c0.06,0.023,0.105,0.051,0.137,0.082
			S81.094,191.739,81.094,191.807z"/>
		<path d="M87.914,193.236c0,0.359-0.083,0.683-0.25,0.969c-0.167,0.286-0.427,0.531-0.781,0.734
			c-0.354,0.203-0.808,0.359-1.359,0.469c-0.552,0.109-1.214,0.164-1.984,0.164h-0.828c-0.037,0.172-0.062,0.339-0.074,0.5
			c-0.013,0.161-0.02,0.313-0.02,0.453c0,0.521,0.129,0.919,0.387,1.195s0.676,0.414,1.254,0.414c0.333,0,0.633-0.024,0.898-0.074
			s0.496-0.103,0.691-0.16s0.355-0.11,0.48-0.16s0.211-0.074,0.258-0.074s0.082,0.017,0.105,0.051s0.035,0.082,0.035,0.145
			c0,0.052-0.005,0.114-0.016,0.188c-0.011,0.073-0.026,0.147-0.047,0.223c-0.021,0.075-0.048,0.147-0.082,0.215
			c-0.034,0.067-0.072,0.125-0.113,0.172c-0.063,0.063-0.173,0.124-0.332,0.184c-0.159,0.06-0.348,0.114-0.566,0.164
			s-0.458,0.09-0.719,0.121c-0.261,0.031-0.521,0.047-0.781,0.047c-0.464,0-0.87-0.052-1.219-0.156
			c-0.349-0.104-0.64-0.265-0.871-0.48c-0.232-0.216-0.405-0.485-0.52-0.809c-0.115-0.323-0.172-0.703-0.172-1.141
			c0-0.339,0.032-0.702,0.098-1.09c0.065-0.388,0.168-0.772,0.309-1.152s0.323-0.745,0.547-1.094
			c0.224-0.349,0.491-0.656,0.801-0.922c0.31-0.266,0.668-0.479,1.074-0.641s0.864-0.242,1.375-0.242
			c0.438,0,0.809,0.055,1.113,0.164s0.555,0.25,0.75,0.422s0.337,0.363,0.426,0.574C87.87,192.818,87.914,193.028,87.914,193.236z
			 M86.594,193.354c0-0.266-0.104-0.48-0.313-0.645c-0.208-0.164-0.505-0.246-0.891-0.246c-0.339,0-0.638,0.059-0.898,0.176
			c-0.261,0.117-0.491,0.274-0.691,0.473c-0.201,0.198-0.373,0.429-0.516,0.691c-0.144,0.263-0.259,0.54-0.348,0.832h0.797
			c0.547,0,1.004-0.034,1.371-0.102s0.661-0.16,0.883-0.277c0.221-0.117,0.377-0.254,0.469-0.41
			C86.548,193.689,86.594,193.525,86.594,193.354z"/>
		<path d="M99.133,198.83c-0.005,0.042-0.021,0.077-0.047,0.105c-0.026,0.028-0.066,0.054-0.121,0.074s-0.125,0.036-0.211,0.047
			s-0.191,0.016-0.316,0.016s-0.228-0.005-0.309-0.016c-0.081-0.011-0.144-0.026-0.188-0.047c-0.044-0.021-0.074-0.046-0.09-0.074
			s-0.019-0.063-0.008-0.105l0.867-4.344c0.026-0.151,0.048-0.294,0.066-0.43c0.018-0.136,0.027-0.271,0.027-0.406
			c0-0.333-0.064-0.599-0.191-0.797c-0.128-0.198-0.351-0.297-0.668-0.297c-0.261,0-0.53,0.079-0.809,0.238
			c-0.279,0.159-0.543,0.378-0.793,0.656s-0.472,0.609-0.664,0.992c-0.193,0.383-0.333,0.798-0.422,1.246l-0.625,3.141
			c-0.011,0.042-0.029,0.077-0.055,0.105c-0.026,0.028-0.066,0.054-0.121,0.074s-0.125,0.036-0.211,0.047s-0.191,0.016-0.316,0.016
			s-0.228-0.005-0.309-0.016c-0.081-0.011-0.142-0.026-0.184-0.047c-0.042-0.021-0.07-0.046-0.086-0.074s-0.021-0.063-0.016-0.105
			l0.867-4.344c0.036-0.156,0.061-0.31,0.074-0.461c0.013-0.151,0.02-0.292,0.02-0.422c0-0.317-0.065-0.571-0.195-0.762
			c-0.13-0.19-0.352-0.285-0.664-0.285c-0.266,0-0.537,0.079-0.813,0.238c-0.276,0.159-0.539,0.378-0.789,0.656
			s-0.472,0.609-0.664,0.992c-0.193,0.383-0.333,0.798-0.422,1.246l-0.625,3.141c-0.011,0.042-0.029,0.077-0.055,0.105
			c-0.026,0.028-0.065,0.054-0.117,0.074c-0.052,0.021-0.121,0.036-0.207,0.047s-0.191,0.016-0.316,0.016
			c-0.13,0-0.236-0.005-0.316-0.016c-0.081-0.011-0.144-0.026-0.188-0.047c-0.044-0.021-0.073-0.046-0.086-0.074
			c-0.013-0.028-0.015-0.063-0.004-0.105l1.414-7.039c0.005-0.036,0.02-0.07,0.043-0.102s0.06-0.058,0.109-0.078
			c0.049-0.021,0.112-0.035,0.188-0.043c0.075-0.008,0.165-0.012,0.27-0.012c0.109,0,0.199,0.004,0.27,0.012
			s0.125,0.022,0.164,0.043s0.063,0.047,0.074,0.078c0.01,0.031,0.013,0.065,0.008,0.102l-0.266,1.344
			c0.078-0.177,0.207-0.364,0.387-0.563s0.389-0.38,0.629-0.547c0.239-0.167,0.501-0.305,0.785-0.414
			c0.284-0.109,0.574-0.164,0.871-0.164c0.313,0,0.581,0.043,0.805,0.129c0.224,0.086,0.407,0.203,0.551,0.352
			c0.143,0.148,0.249,0.325,0.316,0.531c0.067,0.206,0.109,0.431,0.125,0.676c0.104-0.183,0.247-0.372,0.43-0.57
			c0.182-0.198,0.393-0.379,0.633-0.543c0.239-0.164,0.5-0.301,0.781-0.41s0.567-0.164,0.859-0.164c0.349,0,0.641,0.05,0.875,0.148
			s0.424,0.234,0.57,0.406c0.146,0.172,0.25,0.372,0.313,0.602s0.094,0.479,0.094,0.75c0,0.183-0.011,0.362-0.031,0.539
			c-0.021,0.177-0.05,0.359-0.086,0.547L99.133,198.83z"/>
		<path d="M106.82,192.182c0,0.052-0.008,0.121-0.023,0.207s-0.038,0.171-0.066,0.254c-0.029,0.083-0.063,0.153-0.102,0.211
			s-0.082,0.086-0.129,0.086c-0.063,0-0.137-0.024-0.223-0.074s-0.191-0.105-0.316-0.168s-0.275-0.12-0.449-0.172
			c-0.175-0.052-0.382-0.078-0.621-0.078c-0.229,0-0.433,0.032-0.609,0.098c-0.177,0.065-0.326,0.153-0.445,0.266
			c-0.12,0.112-0.211,0.239-0.273,0.383s-0.094,0.293-0.094,0.449c0,0.208,0.069,0.382,0.207,0.52
			c0.138,0.138,0.311,0.262,0.52,0.371c0.208,0.109,0.434,0.218,0.676,0.324s0.466,0.237,0.672,0.391
			c0.206,0.153,0.377,0.339,0.516,0.555c0.138,0.216,0.207,0.488,0.207,0.816c0,0.364-0.072,0.704-0.215,1.02
			c-0.144,0.315-0.349,0.586-0.617,0.813c-0.269,0.227-0.593,0.403-0.973,0.531c-0.38,0.128-0.805,0.191-1.273,0.191
			c-0.245,0-0.476-0.019-0.691-0.055c-0.216-0.036-0.412-0.083-0.586-0.141c-0.175-0.058-0.324-0.121-0.449-0.191
			s-0.222-0.137-0.289-0.199c-0.042-0.042-0.072-0.085-0.09-0.129c-0.019-0.044-0.027-0.098-0.027-0.16
			c0-0.042,0.002-0.091,0.008-0.148c0.005-0.058,0.016-0.117,0.031-0.18s0.032-0.122,0.051-0.18c0.018-0.058,0.04-0.109,0.066-0.156
			c0.026-0.047,0.052-0.085,0.078-0.113c0.026-0.028,0.057-0.043,0.094-0.043c0.063,0,0.138,0.035,0.227,0.105
			c0.088,0.07,0.204,0.146,0.348,0.227c0.143,0.081,0.321,0.156,0.535,0.227c0.213,0.07,0.479,0.105,0.797,0.105
			c0.286,0,0.532-0.035,0.738-0.105c0.206-0.07,0.376-0.164,0.512-0.281c0.135-0.117,0.235-0.254,0.301-0.41
			c0.065-0.156,0.098-0.32,0.098-0.492c0-0.219-0.068-0.397-0.203-0.535c-0.136-0.138-0.306-0.263-0.512-0.375
			c-0.206-0.112-0.429-0.223-0.668-0.332c-0.24-0.109-0.462-0.238-0.668-0.387c-0.206-0.148-0.378-0.331-0.516-0.547
			c-0.138-0.216-0.207-0.491-0.207-0.824c0-0.344,0.067-0.663,0.203-0.957c0.135-0.294,0.327-0.55,0.574-0.766
			c0.247-0.216,0.544-0.384,0.891-0.504c0.346-0.12,0.73-0.18,1.152-0.18c0.198,0,0.389,0.016,0.574,0.047
			c0.185,0.031,0.355,0.07,0.512,0.117s0.292,0.099,0.406,0.156c0.114,0.058,0.2,0.114,0.258,0.172
			C106.792,191.991,106.82,192.072,106.82,192.182z"/>
		<path d="M113.047,192.182c0,0.052-0.008,0.121-0.023,0.207s-0.038,0.171-0.066,0.254c-0.029,0.083-0.063,0.153-0.102,0.211
			s-0.082,0.086-0.129,0.086c-0.063,0-0.137-0.024-0.223-0.074s-0.191-0.105-0.316-0.168s-0.275-0.12-0.449-0.172
			c-0.175-0.052-0.382-0.078-0.621-0.078c-0.229,0-0.433,0.032-0.609,0.098c-0.177,0.065-0.326,0.153-0.445,0.266
			c-0.12,0.112-0.211,0.239-0.273,0.383s-0.094,0.293-0.094,0.449c0,0.208,0.069,0.382,0.207,0.52
			c0.138,0.138,0.311,0.262,0.52,0.371c0.208,0.109,0.434,0.218,0.676,0.324s0.466,0.237,0.672,0.391
			c0.206,0.153,0.377,0.339,0.516,0.555c0.138,0.216,0.207,0.488,0.207,0.816c0,0.364-0.072,0.704-0.215,1.02
			c-0.144,0.315-0.349,0.586-0.617,0.813c-0.269,0.227-0.593,0.403-0.973,0.531c-0.38,0.128-0.805,0.191-1.273,0.191
			c-0.245,0-0.476-0.019-0.691-0.055c-0.216-0.036-0.412-0.083-0.586-0.141c-0.175-0.058-0.324-0.121-0.449-0.191
			s-0.222-0.137-0.289-0.199c-0.042-0.042-0.072-0.085-0.09-0.129c-0.019-0.044-0.027-0.098-0.027-0.16
			c0-0.042,0.002-0.091,0.008-0.148c0.005-0.058,0.016-0.117,0.031-0.18s0.032-0.122,0.051-0.18c0.018-0.058,0.04-0.109,0.066-0.156
			c0.026-0.047,0.052-0.085,0.078-0.113c0.026-0.028,0.057-0.043,0.094-0.043c0.063,0,0.138,0.035,0.227,0.105
			c0.088,0.07,0.204,0.146,0.348,0.227c0.143,0.081,0.321,0.156,0.535,0.227c0.213,0.07,0.479,0.105,0.797,0.105
			c0.286,0,0.532-0.035,0.738-0.105c0.206-0.07,0.376-0.164,0.512-0.281c0.135-0.117,0.235-0.254,0.301-0.41
			c0.065-0.156,0.098-0.32,0.098-0.492c0-0.219-0.068-0.397-0.203-0.535c-0.136-0.138-0.306-0.263-0.512-0.375
			c-0.206-0.112-0.429-0.223-0.668-0.332c-0.24-0.109-0.462-0.238-0.668-0.387c-0.206-0.148-0.378-0.331-0.516-0.547
			c-0.138-0.216-0.207-0.491-0.207-0.824c0-0.344,0.067-0.663,0.203-0.957c0.135-0.294,0.327-0.55,0.574-0.766
			c0.247-0.216,0.544-0.384,0.891-0.504c0.346-0.12,0.73-0.18,1.152-0.18c0.198,0,0.389,0.016,0.574,0.047
			c0.185,0.031,0.355,0.07,0.512,0.117s0.292,0.099,0.406,0.156c0.114,0.058,0.2,0.114,0.258,0.172
			C113.018,191.991,113.047,192.072,113.047,192.182z"/>
		<path d="M118.797,191.877c0,0.047-0.003,0.098-0.008,0.152c-0.005,0.055-0.016,0.11-0.031,0.168s-0.037,0.114-0.063,0.172
			c-0.026,0.058-0.054,0.108-0.082,0.152c-0.029,0.044-0.062,0.079-0.098,0.105c-0.037,0.026-0.078,0.039-0.125,0.039h-1.797
			l-0.789,3.922c-0.021,0.109-0.039,0.231-0.055,0.367s-0.023,0.247-0.023,0.336c0,0.266,0.056,0.46,0.168,0.582
			c0.112,0.122,0.293,0.184,0.543,0.184c0.141,0,0.263-0.012,0.367-0.035c0.104-0.023,0.194-0.048,0.27-0.074
			c0.075-0.026,0.142-0.051,0.199-0.074c0.057-0.023,0.106-0.035,0.148-0.035c0.042,0,0.074,0.015,0.098,0.043
			s0.035,0.082,0.035,0.16c0,0.067-0.007,0.142-0.02,0.223c-0.013,0.081-0.03,0.16-0.051,0.238
			c-0.021,0.078-0.047,0.148-0.078,0.211s-0.065,0.112-0.102,0.148c-0.042,0.036-0.104,0.073-0.188,0.109
			c-0.083,0.036-0.18,0.069-0.289,0.098s-0.226,0.051-0.348,0.066c-0.123,0.016-0.244,0.023-0.363,0.023
			c-0.292,0-0.544-0.031-0.758-0.094c-0.214-0.063-0.394-0.16-0.539-0.293c-0.146-0.133-0.254-0.3-0.324-0.5
			s-0.105-0.441-0.105-0.723c0-0.063,0.002-0.132,0.008-0.207c0.005-0.075,0.014-0.155,0.027-0.238
			c0.013-0.083,0.026-0.167,0.039-0.25c0.013-0.083,0.027-0.161,0.043-0.234l0.789-3.953h-0.977c-0.058,0-0.102-0.017-0.133-0.051
			s-0.047-0.101-0.047-0.199c0-0.073,0.008-0.157,0.023-0.254s0.039-0.187,0.07-0.27s0.071-0.153,0.121-0.211
			c0.049-0.058,0.108-0.086,0.176-0.086h0.984l0.336-1.672c0.005-0.036,0.022-0.07,0.051-0.102c0.028-0.031,0.069-0.059,0.121-0.082
			c0.052-0.023,0.121-0.04,0.207-0.051s0.191-0.016,0.316-0.016s0.228,0.005,0.309,0.016c0.081,0.011,0.143,0.027,0.188,0.051
			c0.044,0.023,0.073,0.051,0.086,0.082c0.013,0.031,0.017,0.065,0.012,0.102l-0.336,1.672h1.797c0.078,0,0.13,0.028,0.156,0.086
			C118.784,191.739,118.797,191.804,118.797,191.877z"/>
		<path d="M124.508,191.807c0,0.021-0.004,0.062-0.012,0.121s-0.017,0.129-0.027,0.207s-0.026,0.159-0.047,0.242
			s-0.047,0.16-0.078,0.23s-0.063,0.129-0.098,0.176s-0.071,0.07-0.113,0.07s-0.087-0.009-0.137-0.027s-0.104-0.04-0.164-0.066
			s-0.129-0.048-0.207-0.066s-0.169-0.027-0.273-0.027c-0.177,0-0.382,0.077-0.613,0.23c-0.232,0.153-0.46,0.366-0.684,0.637
			c-0.224,0.271-0.429,0.591-0.613,0.961c-0.185,0.37-0.322,0.771-0.41,1.203l-0.617,3.133c-0.011,0.042-0.029,0.077-0.055,0.105
			c-0.026,0.028-0.065,0.054-0.117,0.074c-0.052,0.021-0.121,0.036-0.207,0.047s-0.191,0.016-0.316,0.016
			c-0.13,0-0.236-0.005-0.316-0.016c-0.081-0.011-0.144-0.026-0.188-0.047c-0.044-0.021-0.073-0.046-0.086-0.074
			c-0.013-0.028-0.015-0.063-0.004-0.105l1.398-7.039c0.005-0.036,0.021-0.07,0.047-0.102c0.026-0.031,0.065-0.058,0.117-0.078
			c0.052-0.021,0.116-0.035,0.191-0.043c0.075-0.008,0.165-0.012,0.27-0.012c0.109,0,0.199,0.004,0.27,0.012
			s0.125,0.022,0.164,0.043s0.063,0.047,0.074,0.078c0.01,0.031,0.013,0.065,0.008,0.102l-0.258,1.281
			c0.12-0.214,0.262-0.419,0.426-0.617s0.342-0.371,0.535-0.52c0.192-0.148,0.395-0.267,0.605-0.355s0.418-0.133,0.621-0.133
			c0.089,0,0.179,0.007,0.27,0.02s0.176,0.028,0.254,0.047s0.147,0.039,0.207,0.063s0.105,0.051,0.137,0.082
			S124.508,191.739,124.508,191.807z"/>
		<path d="M130.445,198.83c-0.021,0.089-0.078,0.151-0.172,0.188s-0.25,0.055-0.469,0.055c-0.104,0-0.19-0.005-0.258-0.016
			s-0.122-0.024-0.164-0.043s-0.07-0.042-0.086-0.07s-0.016-0.066,0-0.113l0.258-1.328c-0.067,0.167-0.19,0.349-0.367,0.547
			s-0.387,0.38-0.629,0.547s-0.512,0.305-0.809,0.414s-0.599,0.164-0.906,0.164c-0.417,0-0.762-0.073-1.035-0.219
			s-0.491-0.339-0.652-0.578s-0.272-0.511-0.332-0.813s-0.09-0.612-0.09-0.93c0-0.292,0.027-0.622,0.082-0.992
			s0.144-0.747,0.266-1.133s0.281-0.761,0.477-1.125s0.431-0.691,0.707-0.98s0.597-0.521,0.961-0.695s0.778-0.262,1.242-0.262
			s0.86,0.094,1.191,0.281s0.626,0.445,0.887,0.773l0.148-0.711c0.021-0.083,0.081-0.144,0.18-0.18s0.253-0.055,0.461-0.055
			c0.104,0,0.191,0.004,0.262,0.012s0.126,0.022,0.168,0.043s0.067,0.047,0.078,0.078s0.013,0.065,0.008,0.102L130.445,198.83z
			 M130.203,193.635c-0.245-0.359-0.509-0.629-0.793-0.809s-0.603-0.27-0.957-0.27c-0.281,0-0.535,0.066-0.762,0.199
			s-0.427,0.309-0.602,0.527s-0.325,0.468-0.453,0.746s-0.231,0.566-0.313,0.863s-0.141,0.589-0.18,0.875s-0.059,0.544-0.059,0.773
			c0,0.183,0.015,0.363,0.043,0.543s0.083,0.344,0.164,0.492s0.191,0.269,0.332,0.359s0.323,0.137,0.547,0.137
			c0.286,0,0.574-0.079,0.863-0.238s0.559-0.379,0.809-0.66s0.472-0.612,0.664-0.992s0.336-0.8,0.43-1.258L130.203,193.635z"/>
		<path d="M138.711,198.83c-0.011,0.042-0.028,0.077-0.055,0.105s-0.066,0.054-0.121,0.074s-0.124,0.036-0.207,0.047
			s-0.19,0.016-0.32,0.016c-0.125,0-0.228-0.005-0.309-0.016s-0.144-0.026-0.188-0.047s-0.073-0.046-0.086-0.074
			s-0.017-0.063-0.012-0.105l0.867-4.344c0.026-0.136,0.048-0.288,0.066-0.457s0.027-0.316,0.027-0.441
			c0-0.151-0.016-0.289-0.047-0.414s-0.082-0.233-0.152-0.324s-0.161-0.163-0.273-0.215s-0.249-0.078-0.41-0.078
			c-0.276,0-0.559,0.081-0.848,0.242s-0.558,0.384-0.805,0.668s-0.469,0.618-0.664,1.004s-0.337,0.8-0.426,1.242l-0.625,3.117
			c-0.011,0.042-0.028,0.077-0.055,0.105s-0.065,0.054-0.117,0.074s-0.121,0.036-0.207,0.047s-0.191,0.016-0.316,0.016
			c-0.13,0-0.235-0.005-0.316-0.016s-0.144-0.026-0.188-0.047s-0.073-0.046-0.086-0.074s-0.015-0.063-0.004-0.105l2.078-10.438
			c0.011-0.042,0.027-0.078,0.051-0.109s0.063-0.058,0.117-0.078s0.125-0.036,0.211-0.047s0.194-0.016,0.324-0.016
			c0.125,0,0.228,0.005,0.309,0.016s0.144,0.026,0.188,0.047s0.071,0.047,0.082,0.078s0.013,0.067,0.008,0.109l-0.625,3.18
			c-0.026,0.136-0.058,0.273-0.094,0.414s-0.074,0.28-0.113,0.418s-0.078,0.27-0.117,0.395s-0.074,0.234-0.105,0.328
			c0.083-0.183,0.214-0.371,0.391-0.566s0.386-0.375,0.625-0.539s0.504-0.301,0.793-0.41s0.587-0.164,0.895-0.164
			c0.333,0,0.617,0.048,0.852,0.145s0.426,0.229,0.574,0.398s0.257,0.371,0.324,0.605s0.102,0.487,0.102,0.758
			c0,0.188-0.011,0.37-0.031,0.547s-0.05,0.356-0.086,0.539L138.711,198.83z"/>
		<path d="M142.352,198.83c-0.011,0.042-0.028,0.077-0.055,0.105s-0.065,0.054-0.117,0.074s-0.121,0.036-0.207,0.047
			s-0.191,0.016-0.316,0.016c-0.13,0-0.235-0.005-0.316-0.016s-0.144-0.026-0.188-0.047s-0.073-0.046-0.086-0.074
			s-0.015-0.063-0.004-0.105l2.078-10.438c0.011-0.042,0.027-0.078,0.051-0.109s0.063-0.058,0.117-0.078s0.125-0.036,0.211-0.047
			s0.194-0.016,0.324-0.016c0.125,0,0.228,0.005,0.309,0.016s0.144,0.026,0.188,0.047s0.071,0.047,0.082,0.078
			s0.013,0.067,0.008,0.109L142.352,198.83z"/>
		<path d="M150.57,198.83c-0.005,0.042-0.021,0.078-0.047,0.109s-0.063,0.056-0.109,0.074s-0.108,0.032-0.184,0.043
			s-0.168,0.016-0.277,0.016c-0.104,0-0.191-0.005-0.262-0.016s-0.125-0.024-0.164-0.043s-0.065-0.043-0.078-0.074
			s-0.015-0.067-0.004-0.109l0.258-1.32c-0.083,0.177-0.215,0.363-0.395,0.559s-0.391,0.376-0.633,0.543s-0.508,0.302-0.797,0.406
			s-0.582,0.156-0.879,0.156c-0.354,0-0.652-0.048-0.895-0.145s-0.438-0.229-0.586-0.398s-0.255-0.37-0.32-0.602
			s-0.098-0.485-0.098-0.762c0-0.172,0.012-0.348,0.035-0.527s0.054-0.36,0.09-0.543l0.867-4.406
			c0.011-0.036,0.028-0.07,0.055-0.102s0.066-0.058,0.121-0.078s0.125-0.035,0.211-0.043s0.191-0.012,0.316-0.012
			s0.228,0.004,0.309,0.012s0.144,0.022,0.188,0.043s0.073,0.047,0.086,0.078s0.017,0.065,0.012,0.102l-0.859,4.359
			c-0.031,0.136-0.055,0.276-0.07,0.422s-0.023,0.294-0.023,0.445c0,0.156,0.015,0.298,0.043,0.426s0.078,0.238,0.148,0.332
			s0.161,0.167,0.273,0.219s0.249,0.078,0.41,0.078c0.276,0,0.559-0.079,0.848-0.238s0.559-0.379,0.809-0.66
			s0.473-0.616,0.668-1.004s0.34-0.812,0.434-1.27l0.617-3.109c0.005-0.036,0.022-0.07,0.051-0.102s0.07-0.058,0.125-0.078
			s0.125-0.035,0.211-0.043s0.191-0.012,0.316-0.012s0.228,0.004,0.309,0.012s0.144,0.022,0.188,0.043s0.073,0.047,0.086,0.078
			s0.017,0.065,0.012,0.102L150.57,198.83z"/>
		<path d="M159.828,193.354c0,0.183-0.011,0.362-0.031,0.539s-0.05,0.359-0.086,0.547l-0.883,4.391
			c-0.011,0.042-0.027,0.077-0.051,0.105s-0.063,0.054-0.117,0.074s-0.124,0.036-0.207,0.047s-0.19,0.016-0.32,0.016
			c-0.125,0-0.228-0.005-0.309-0.016s-0.144-0.026-0.188-0.047s-0.073-0.046-0.086-0.074s-0.017-0.063-0.012-0.105l0.867-4.344
			c0.036-0.161,0.062-0.317,0.074-0.469s0.02-0.284,0.02-0.398c0-0.317-0.067-0.574-0.203-0.77s-0.362-0.293-0.68-0.293
			c-0.276,0-0.559,0.079-0.848,0.238s-0.558,0.378-0.805,0.656s-0.469,0.609-0.664,0.992s-0.337,0.798-0.426,1.246l-0.625,3.141
			c-0.011,0.042-0.028,0.077-0.055,0.105s-0.065,0.054-0.117,0.074s-0.121,0.036-0.207,0.047s-0.191,0.016-0.316,0.016
			c-0.13,0-0.235-0.005-0.316-0.016s-0.144-0.026-0.188-0.047s-0.073-0.046-0.086-0.074s-0.015-0.063-0.004-0.105l1.414-7.039
			c0.005-0.036,0.02-0.07,0.043-0.102s0.06-0.058,0.109-0.078s0.112-0.035,0.188-0.043s0.165-0.012,0.27-0.012
			c0.109,0,0.199,0.004,0.27,0.012s0.125,0.022,0.164,0.043s0.063,0.047,0.074,0.078s0.013,0.065,0.008,0.102l-0.266,1.344
			c0.078-0.177,0.206-0.364,0.383-0.563s0.388-0.38,0.633-0.547s0.515-0.305,0.809-0.414s0.601-0.164,0.918-0.164
			c0.349,0,0.641,0.054,0.875,0.16s0.425,0.247,0.57,0.422s0.25,0.376,0.313,0.605S159.828,193.104,159.828,193.354z"/>
		<path d="M166.906,199.385c-0.083,0.417-0.218,0.781-0.402,1.094s-0.421,0.571-0.707,0.777s-0.626,0.36-1.02,0.465
			s-0.84,0.156-1.34,0.156c-0.433,0-0.827-0.043-1.184-0.129s-0.642-0.188-0.855-0.309c-0.078-0.052-0.132-0.103-0.16-0.152
			s-0.043-0.113-0.043-0.191c0-0.031,0.001-0.075,0.004-0.133s0.011-0.114,0.023-0.172s0.028-0.117,0.047-0.18
			s0.042-0.118,0.07-0.168s0.063-0.089,0.105-0.117s0.086-0.043,0.133-0.043c0.063,0,0.141,0.027,0.234,0.082
			s0.219,0.116,0.375,0.184s0.351,0.13,0.582,0.188s0.517,0.086,0.855,0.086c0.281,0,0.535-0.028,0.762-0.086
			s0.425-0.144,0.594-0.258s0.308-0.261,0.414-0.438s0.187-0.388,0.238-0.633c0.089-0.474,0.177-0.867,0.266-1.18
			s0.161-0.555,0.219-0.727c-0.083,0.192-0.216,0.387-0.398,0.582s-0.394,0.375-0.633,0.539s-0.503,0.297-0.789,0.398
			s-0.578,0.152-0.875,0.152c-0.391,0-0.722-0.065-0.992-0.195s-0.488-0.309-0.652-0.535s-0.282-0.495-0.355-0.805
			s-0.109-0.645-0.109-1.004c0-0.302,0.028-0.642,0.086-1.02s0.148-0.758,0.273-1.141s0.285-0.755,0.48-1.117
			s0.431-0.685,0.707-0.969s0.595-0.512,0.957-0.684s0.772-0.258,1.23-0.258c0.464,0,0.86,0.094,1.191,0.281
			s0.626,0.445,0.887,0.773l0.148-0.711c0.021-0.083,0.081-0.144,0.18-0.18s0.253-0.055,0.461-0.055
			c0.104,0,0.191,0.004,0.262,0.012s0.126,0.022,0.168,0.043s0.067,0.047,0.078,0.078s0.013,0.065,0.008,0.102L166.906,199.385z
			 M166.781,193.635c-0.245-0.359-0.509-0.629-0.793-0.809s-0.603-0.27-0.957-0.27c-0.281,0-0.534,0.065-0.758,0.195
			s-0.423,0.304-0.598,0.52s-0.327,0.465-0.457,0.746s-0.235,0.569-0.316,0.863s-0.141,0.586-0.18,0.875s-0.059,0.551-0.059,0.785
			c0,0.224,0.02,0.43,0.059,0.617s0.102,0.348,0.188,0.48s0.198,0.238,0.336,0.316s0.306,0.117,0.504,0.117
			c0.286,0,0.574-0.079,0.863-0.238s0.559-0.379,0.809-0.66s0.472-0.613,0.664-0.996s0.336-0.801,0.43-1.254L166.781,193.635z"/>
	</g>
</g>
</svg>
